<svg width="300" height="300" viewBox="0 0 300 300" fill="none" xmlns="http://www.w3.org/2000/svg">
  <g filter="url(#filter0_d_1117_20773)">
    <path d="M241.32 187.008H232.72C264.18 137.238 221.11 106.168 221.11 106.168C239.28 87.4978 224.78 56.9478 212.97 38.2578C210.034 33.606 205.462 30.2229 200.155 28.7754C194.848 27.3279 189.191 27.921 184.3 30.4378L142.83 51.8478C111.71 28.2378 92.07 61.2478 92.07 61.2478C71.44 49.3378 49.2 65.9778 47.32 86.0278C45.44 106.078 64.5 117.288 64.5 117.288C35.59 152.288 62.2 180.378 68.71 187.008H58.21C55.8178 187.008 53.449 187.479 51.239 188.395C49.029 189.311 47.0211 190.653 45.3301 192.345C43.639 194.037 42.2978 196.046 41.3833 198.256C40.4687 200.467 39.9987 202.836 40 205.228V253.138C40 257.967 41.9185 262.599 45.3336 266.014C48.7486 269.429 53.3804 271.348 58.21 271.348H241.32C243.712 271.349 246.081 270.879 248.292 269.964C250.502 269.05 252.511 267.709 254.203 266.018C255.895 264.327 257.237 262.319 258.153 260.109C259.069 257.899 259.54 255.53 259.54 253.138V205.228C259.54 202.835 259.069 200.466 258.153 198.255C257.237 196.045 255.895 194.036 254.203 192.344C252.512 190.652 250.503 189.31 248.292 188.395C246.082 187.479 243.713 187.008 241.32 187.008V187.008Z" fill="#FCFCFC"/>
    <path d="M90.7785 56.0998C91.2907 55.4257 91.893 54.6696 92.5831 53.8614C95.0881 50.9278 98.8338 47.2088 103.716 44.2677C108.622 41.3121 114.755 39.099 121.915 39.3587C128.497 39.5974 135.634 41.9147 143.186 47.1625L182.465 26.8835L182.47 26.881C188.25 23.9066 194.936 23.2057 201.208 24.9164C207.479 26.6269 212.882 30.6244 216.351 36.1211C222.343 45.6023 229.201 58.3629 232.181 71.3239C234.872 83.0273 234.509 95.5058 226.79 105.69C227.789 106.59 228.96 107.705 230.232 109.029C233.981 112.93 238.659 118.704 242.306 126.168C249.121 140.114 252.132 159.606 239.675 183.008H241.32C244.238 183.008 247.127 183.583 249.823 184.699C252.519 185.816 254.969 187.453 257.032 189.516C259.095 191.579 260.732 194.029 261.849 196.725C262.965 199.42 263.54 202.31 263.54 205.228V253.138C263.54 256.055 262.965 258.945 261.848 261.64C260.731 264.335 259.094 266.784 257.031 268.847C254.967 270.91 252.517 272.545 249.821 273.661C247.125 274.776 244.236 275.349 241.318 275.348M90.7785 56.0998L241.32 271.348M90.7785 56.0998C80.0816 51.3115 69.1688 52.9279 60.5602 58.2506C51.1816 64.0494 44.4011 74.3107 43.3375 85.6544C42.2626 97.1173 47.2078 105.967 52.1622 111.773C54.5046 114.518 56.8952 116.643 58.7682 118.124M90.7785 56.0998L58.7682 118.124M241.318 275.348L241.32 271.348M241.318 275.348H241.32V271.348M241.318 275.348H58.21C52.3195 275.348 46.6703 273.008 42.5052 268.843C38.34 264.677 36 259.028 36 253.138V205.229C36 205.229 36 205.23 36 205.23L40 205.228M241.32 271.348H58.21C53.3804 271.348 48.7486 269.429 45.3336 266.014C41.9185 262.599 40 257.967 40 253.138V205.228M40 205.228H36M40 205.228H36M36 205.228C35.9987 202.311 36.572 199.422 37.6871 196.727C38.8026 194.031 40.4383 191.581 42.5008 189.517C44.5634 187.454 47.0123 185.817 49.7078 184.7C52.4032 183.583 55.2923 183.008 58.21 183.008H59.8237M36 205.228L59.8237 183.008M59.8237 183.008C56.1616 178.35 51.9918 171.873 49.5074 163.989C45.5128 151.312 46.0032 135.385 58.7682 118.124M59.8237 183.008L58.7682 118.124" stroke="white" stroke-width="8" stroke-linejoin="round"/>
  </g>
  <path d="M241.32 187.008H232.72C264.18 137.238 221.11 106.168 221.11 106.168C239.28 87.4978 224.78 56.9478 212.97 38.2578C210.034 33.606 205.462 30.2229 200.155 28.7754C194.848 27.3279 189.191 27.921 184.3 30.4378L142.83 51.8478C111.71 28.2378 92.07 61.2478 92.07 61.2478C71.44 49.3378 49.2 65.9778 47.32 86.0278C45.44 106.078 64.5 117.288 64.5 117.288C35.59 152.288 62.2 180.378 68.71 187.008H58.21C55.8178 187.008 53.449 187.479 51.239 188.395C49.029 189.311 47.0211 190.653 45.3301 192.345C43.639 194.037 42.2978 196.046 41.3833 198.256C40.4687 200.467 39.9987 202.836 40 205.228V253.138C40 257.967 41.9185 262.599 45.3336 266.014C48.7486 269.429 53.3804 271.348 58.21 271.348H241.32C243.712 271.349 246.081 270.879 248.292 269.964C250.502 269.05 252.511 267.709 254.203 266.018C255.895 264.327 257.237 262.319 258.153 260.109C259.069 257.899 259.54 255.53 259.54 253.138V205.228C259.54 202.835 259.069 200.466 258.153 198.255C257.237 196.045 255.895 194.036 254.203 192.344C252.512 190.652 250.503 189.31 248.292 188.395C246.082 187.479 243.713 187.008 241.32 187.008V187.008Z" fill="#F8F8FF" stroke="#08124F" stroke-width="2.2" stroke-linejoin="round"/>
  <path d="M65.6696 242.182V255.354C65.6696 255.521 65.8363 255.688 66.0031 255.688H69.1156C69.2823 255.688 69.449 255.521 69.449 255.354V242.182H75.4517C75.6184 242.182 75.8407 241.959 75.8407 241.793V239.403C75.8407 239.236 75.6184 239.014 75.4517 239.014H59.667C59.5002 239.014 59.2779 239.236 59.2779 239.403V241.793C59.2779 241.959 59.5002 242.182 59.667 242.182H65.6696ZM86.1213 238.736C81.1191 238.736 76.9228 242.21 76.9228 247.351C76.9228 252.575 81.1191 255.966 86.1213 255.966C91.1235 255.966 95.3198 252.575 95.3198 247.351C95.3198 242.21 91.1235 238.736 86.1213 238.736ZM86.1213 241.904C89.067 241.904 91.5404 243.988 91.5404 247.351C91.5404 250.713 89.067 252.798 86.1213 252.798C83.1756 252.798 80.7023 250.713 80.7023 247.351C80.7023 243.988 83.1756 241.904 86.1213 241.904ZM110.268 242.182V255.354C110.268 255.521 110.435 255.688 110.602 255.688H113.714C113.881 255.688 114.048 255.521 114.048 255.354V242.182H120.051C120.217 242.182 120.44 241.959 120.44 241.793V239.403C120.44 239.236 120.217 239.014 120.051 239.014H104.266C104.099 239.014 103.877 239.236 103.877 239.403V241.793C103.877 241.959 104.099 242.182 104.266 242.182H110.268ZM140.371 239.347C140.371 239.18 140.204 239.014 140.037 239.014H136.925C136.758 239.014 136.591 239.18 136.591 239.347V246.267H127.004V239.347C127.004 239.18 126.837 239.014 126.67 239.014H123.558C123.391 239.014 123.224 239.18 123.224 239.347V255.354C123.224 255.521 123.391 255.688 123.558 255.688H126.67C126.837 255.688 127.004 255.521 127.004 255.354V249.435H136.591V255.354C136.591 255.521 136.758 255.688 136.925 255.688H140.037C140.204 255.688 140.371 255.521 140.371 255.354V239.347ZM157.4 248.74C157.567 248.74 157.789 248.518 157.789 248.351V245.961C157.789 245.795 157.567 245.572 157.4 245.572H148.619V242.182H158.234C158.401 242.182 158.623 241.959 158.623 241.793V239.403C158.623 239.236 158.401 239.014 158.234 239.014H145.173C145.006 239.014 144.839 239.18 144.839 239.347V255.354C144.839 255.521 145.006 255.688 145.173 255.688H158.401C158.567 255.688 158.79 255.465 158.79 255.299V252.909C158.79 252.742 158.567 252.52 158.401 252.52H148.619V248.74H157.4ZM172.355 255.688C172.521 255.688 172.688 255.521 172.688 255.354V251.408H176.357C180.275 251.408 183.276 249.129 183.276 245.266C183.276 241.431 180.386 239.014 176.357 239.014H169.242C169.076 239.014 168.909 239.18 168.909 239.347V255.354C168.909 255.521 169.076 255.688 169.242 255.688H172.355ZM176.051 242.182C178.107 242.182 179.497 243.349 179.497 245.266C179.497 247.128 178.246 248.407 176.051 248.407H172.688V242.182H176.051ZM190.286 239.347C190.286 239.18 190.12 239.014 189.953 239.014H186.841C186.674 239.014 186.507 239.18 186.507 239.347V255.354C186.507 255.521 186.674 255.688 186.841 255.688H198.512C198.679 255.688 198.901 255.465 198.901 255.299V252.909C198.901 252.742 198.679 252.52 198.512 252.52H190.286V239.347ZM214.939 255.326C215.106 255.66 215.189 255.688 215.523 255.688H218.83C218.997 255.688 219.052 255.577 219.052 255.493C219.052 255.41 218.997 255.271 218.941 255.16L211.104 239.014H208.214L200.377 255.16C200.322 255.271 200.266 255.41 200.266 255.493C200.266 255.577 200.322 255.688 200.488 255.688H203.795C204.129 255.688 204.212 255.66 204.379 255.326L205.574 252.798H213.689L214.939 255.326ZM208.409 246.767C208.992 245.572 209.576 243.794 209.576 243.794H209.743C209.743 243.794 210.326 245.572 210.91 246.767L212.41 249.852H206.908L208.409 246.767ZM238.652 255.688C238.819 255.688 238.986 255.521 238.986 255.354V239.347C238.986 239.18 238.819 239.014 238.652 239.014H235.54C235.373 239.014 235.206 239.18 235.206 239.347V249.824H235.095C235.095 249.824 234.067 248.49 233.15 247.573L224.729 239.014H222.173C222.006 239.014 221.839 239.18 221.839 239.347V255.354C221.839 255.521 222.006 255.688 222.173 255.688H225.285C225.452 255.688 225.619 255.521 225.619 255.354V244.877H225.702C225.702 244.877 226.702 246.128 227.592 247.017L236.095 255.688H238.652Z" fill="#08124F"/>
  <path d="M74.235 219.533C74.0345 219.533 73.8006 219.634 73.3663 219.968C72.4642 220.669 70.9608 221.505 69.6578 221.505C68.5887 221.505 68.1878 221.104 68.1878 219.5C68.1878 215.123 71.1947 204.532 71.1947 203.697C71.1947 203.43 71.061 203.229 70.5599 203.196C69.5242 203.129 67.6532 203.062 65.8491 203.062C64.3122 203.062 62.9758 203.096 62.174 203.163C61.6728 203.196 61.3721 203.53 61.2719 204.065C60.1693 209.878 59.8018 216.76 59.8018 222.808C59.8018 224.545 59.8687 226.215 59.9355 227.719C59.9689 228.521 60.3698 228.654 61.1048 228.688C62.9424 228.755 65.5484 228.821 68.288 228.821C70.5933 228.821 72.9654 228.788 74.9366 228.688C75.6382 228.654 76.0057 228.253 76.0057 227.685C76.0057 226.015 75.2707 221.271 74.7027 219.868C74.6025 219.6 74.4354 219.533 74.235 219.533ZM86.5236 228.855C89.163 228.855 91.9026 228.788 94.1745 228.688C94.8761 228.654 95.2436 228.253 95.2436 227.685C95.2436 226.015 94.4417 221.17 93.9072 219.734C93.8404 219.533 93.7067 219.433 93.5397 219.433C93.3392 219.433 93.239 219.533 92.9383 219.734C92.0028 220.369 90.3323 221.571 87.5593 221.571C86.0892 221.571 85.4545 221.07 85.4545 219.934C85.4545 219.132 85.9556 218.23 87.5593 218.23C88.8957 218.23 90.2989 218.732 90.7332 218.732C91.0005 218.732 91.1342 218.598 91.2678 218.197C91.7689 216.694 92.6376 213.119 92.6376 212.317C92.6376 211.749 91.8024 211.582 90.5662 211.582C88.9625 211.582 87.5259 212.083 86.3899 212.083C85.822 212.083 85.5213 211.749 85.5213 211.114C85.5213 210.513 85.6883 210.045 86.0558 209.677C86.4902 209.243 87.125 209.043 88.027 209.043C89.4971 209.043 90.7666 209.377 91.7355 209.744C92.3369 209.978 92.6376 210.078 92.9383 210.078C93.1722 210.078 93.3726 209.978 93.5063 209.711C94.3081 207.84 95.3438 204.098 95.3438 203.664C95.3438 203.396 95.2102 203.196 94.709 203.163C93.0051 203.029 89.898 202.962 86.8577 202.962C83.8842 202.962 81.0109 203.029 79.6745 203.129C79.2068 203.163 78.8727 203.597 78.7725 204.031C77.6031 209.945 77.102 217.228 77.102 223.175C77.102 224.779 77.1354 226.316 77.2022 227.719C77.2356 228.521 77.6365 228.654 78.3715 228.688C80.443 228.788 83.4164 228.855 86.5236 228.855ZM105.476 228.855C107.113 228.855 108.784 228.788 109.519 228.688C110.12 228.588 110.354 228.354 110.354 227.886C110.354 226.65 108.717 220.937 108.717 214.054C108.717 213.419 108.784 212.918 108.85 212.551C108.984 211.916 109.218 211.649 109.719 211.649C111.222 211.649 112.292 212.417 112.826 212.417C113.06 212.417 113.194 212.283 113.294 211.916C113.561 210.446 113.828 207.673 113.895 205.568C113.929 204.699 113.862 204.298 113.194 203.864C111.924 203.229 109.151 202.795 105.676 202.795C101.701 202.795 98.7939 203.33 97.6914 203.697C97.1902 203.864 96.9564 204.131 96.8227 204.465C96.4552 206.169 95.9541 210.479 95.9541 211.649C95.9541 212.083 96.1545 212.25 96.4218 212.25C97.1902 212.25 98.393 211.548 100.063 211.548C100.732 211.548 100.865 211.916 100.865 212.417C100.865 213.52 100.13 217.696 100.13 223.81C100.13 225.347 100.164 226.717 100.264 227.518C100.364 228.387 100.799 228.654 101.366 228.688C102.502 228.788 104.173 228.855 105.476 228.855ZM114.357 202.16C114.357 202.762 115.326 203.63 115.326 206.57C115.326 207.005 115.226 207.406 115.226 207.806C115.226 208.207 115.493 208.475 115.794 208.475C117.431 208.475 121.474 206.704 121.474 202.695C121.474 200.256 119.97 198.786 118.801 198.786C118.433 198.786 118.099 198.919 117.832 199.053C116.796 199.588 115.059 200.891 114.691 201.358C114.457 201.659 114.357 201.926 114.357 202.16ZM134.994 211.615C135.127 211.715 135.328 211.782 135.495 211.782C135.695 211.782 135.829 211.715 135.963 211.548C137.165 210.045 138.569 207.172 138.569 206.002C138.569 205.702 138.435 205.401 138.134 205.167C136.163 203.664 133.256 202.661 129.715 202.661C123.634 202.661 120.327 206.236 120.327 210.78C120.327 215.524 123.868 217.696 127.944 219.066C130.183 219.801 130.784 220.168 130.784 220.836C130.784 221.438 130.316 221.772 129.214 221.772C127.042 221.772 124.236 220.135 122.331 217.596C122.198 217.395 122.031 217.295 121.83 217.295C121.696 217.295 121.563 217.328 121.396 217.462C120.494 218.23 119.826 219.667 119.826 221.872C119.826 226.65 123.601 229.189 129.214 229.189C136.029 229.189 139.136 225.313 139.136 220.77C139.136 216.259 136.898 213.921 131.218 211.916C129.414 211.281 128.679 210.747 128.679 209.911C128.679 209.444 128.98 209.043 129.782 209.043C131.185 209.043 133.056 209.978 134.994 211.615ZM161.731 211.615C161.864 211.715 162.065 211.782 162.232 211.782C162.432 211.782 162.566 211.715 162.7 211.548C163.902 210.045 165.306 207.172 165.306 206.002C165.306 205.702 165.172 205.401 164.871 205.167C162.9 203.664 159.993 202.661 156.452 202.661C150.371 202.661 147.064 206.236 147.064 210.78C147.064 215.524 150.605 217.696 154.681 219.066C156.92 219.801 157.521 220.168 157.521 220.836C157.521 221.438 157.053 221.772 155.951 221.772C153.779 221.772 150.973 220.135 149.068 217.596C148.935 217.395 148.768 217.295 148.567 217.295C148.434 217.295 148.3 217.328 148.133 217.462C147.231 218.23 146.563 219.667 146.563 221.872C146.563 226.65 150.338 229.189 155.951 229.189C162.766 229.189 165.874 225.313 165.874 220.77C165.874 216.259 163.635 213.921 157.955 211.916C156.151 211.281 155.416 210.747 155.416 209.911C155.416 209.444 155.717 209.043 156.519 209.043C157.922 209.043 159.793 209.978 161.731 211.615ZM175.337 228.855C176.974 228.855 178.644 228.788 179.379 228.688C179.981 228.588 180.215 228.354 180.215 227.886C180.215 226.65 178.578 220.937 178.578 214.054C178.578 213.419 178.644 212.918 178.711 212.551C178.845 211.916 179.079 211.649 179.58 211.649C181.083 211.649 182.152 212.417 182.687 212.417C182.921 212.417 183.054 212.283 183.155 211.916C183.422 210.446 183.689 207.673 183.756 205.568C183.789 204.699 183.723 204.298 183.054 203.864C181.785 203.229 179.012 202.795 175.537 202.795C171.561 202.795 168.655 203.33 167.552 203.697C167.051 203.864 166.817 204.131 166.684 204.465C166.316 206.169 165.815 210.479 165.815 211.649C165.815 212.083 166.015 212.25 166.283 212.25C167.051 212.25 168.254 211.548 169.924 211.548C170.593 211.548 170.726 211.916 170.726 212.417C170.726 213.52 169.991 217.696 169.991 223.81C169.991 225.347 170.025 226.717 170.125 227.518C170.225 228.387 170.659 228.654 171.227 228.688C172.363 228.788 174.034 228.855 175.337 228.855ZM195.184 228.621C195.652 228.588 195.886 228.42 195.886 228.02C195.886 227.351 194.215 222.641 194.215 215.791C194.215 209.31 195.953 204.733 195.953 203.831C195.986 203.396 195.752 203.196 195.318 203.163C194.048 203.096 192.645 203.062 191.242 203.062C189.906 203.062 188.569 203.096 187.3 203.163C186.865 203.196 186.498 203.43 186.331 204.031C185.93 205.434 185.128 210.179 185.128 217.763C185.128 222.306 185.495 226.382 185.796 227.652C185.963 228.354 186.197 228.554 186.732 228.621C188.068 228.788 189.538 228.788 190.975 228.788C192.411 228.788 193.815 228.755 195.184 228.621ZM207.413 229.189C213.16 229.189 215.966 225.447 215.966 221.505C215.966 218.965 215.198 216.927 214.329 216.927C214.129 216.927 213.962 216.994 213.761 217.195C212.191 218.765 210.621 220.101 208.683 220.101C207.046 220.101 205.91 219.4 205.91 215.123C205.91 211.682 206.378 210.179 207.346 210.179C208.248 210.179 208.549 211.615 208.549 213.252C208.549 214.054 208.482 214.923 208.482 215.524C208.482 216.059 208.616 216.359 209.017 216.359C210.554 216.359 213.795 213.954 215.031 212.317C215.599 211.582 215.866 210.847 215.866 209.711C215.866 206.169 213.394 202.628 208.015 202.628C200.865 202.628 197.123 209.978 197.123 217.362C197.123 225.28 200.932 229.189 207.413 229.189ZM223.211 228.788C224.414 228.788 225.583 228.755 226.485 228.688C227.187 228.654 227.554 228.32 227.554 227.585C227.554 226.516 226.752 223.743 226.752 221.772C226.752 220.435 227.354 219.099 227.955 219.099C228.924 219.099 229.425 221.271 230.194 227.351C230.294 228.22 230.528 228.654 231.396 228.688C232.566 228.721 233.768 228.755 234.904 228.755C236.207 228.755 237.31 228.721 238.212 228.688C238.88 228.654 239.181 228.32 239.181 227.619C239.181 223.309 237.51 217.997 235.172 215.123C235.005 214.923 234.904 214.689 234.904 214.455C234.904 214.188 234.971 214.021 235.172 213.787C237.845 210.613 238.88 206.303 238.88 203.864C238.88 203.43 238.613 203.196 238.012 203.163C237.143 203.096 235.907 203.062 234.637 203.062C233.535 203.062 232.432 203.096 231.463 203.163C230.895 203.196 230.661 203.463 230.427 204.232C229.86 206.236 228.891 209.845 227.721 212.016C227.32 212.751 226.986 212.985 226.752 212.985C226.552 212.985 226.452 212.818 226.452 212.517C226.452 210.613 227.454 205.802 227.588 204.065C227.654 203.396 227.287 203.196 226.585 203.163C225.449 203.129 224.313 203.096 223.244 203.096C222.108 203.096 221.073 203.129 220.237 203.163C219.269 203.196 218.968 203.497 218.767 204.733C218.3 207.907 217.932 213.586 217.932 219.199C217.932 222.039 218.032 224.912 218.266 227.385C218.366 228.354 218.734 228.654 219.402 228.688C220.404 228.755 221.841 228.788 223.211 228.788Z" fill="#08124F"/>
  <path d="M66.88 93.7775C69.8734 93.7775 72.3 91.3509 72.3 88.3575C72.3 85.3641 69.8734 82.9375 66.88 82.9375C63.8866 82.9375 61.46 85.3641 61.46 88.3575C61.46 91.3509 63.8866 93.7775 66.88 93.7775Z" fill="#818CFF"/>
  <path d="M171.16 132.278C183.375 129.049 194.662 122.997 204.11 114.608C204.578 114.197 205.143 113.912 205.751 113.782C206.36 113.652 206.992 113.679 207.587 113.863C208.182 114.047 208.72 114.38 209.149 114.831C209.579 115.281 209.885 115.835 210.04 116.438C212.56 126.388 218.73 146.018 230.28 156.778C230.725 157.186 231.061 157.699 231.258 158.271C231.454 158.842 231.505 159.453 231.406 160.049C231.307 160.645 231.06 161.206 230.689 161.683C230.318 162.159 229.833 162.536 229.28 162.778C218.14 167.848 192.87 179.778 181.22 188.868C180.708 189.268 180.098 189.523 179.454 189.608C178.81 189.692 178.155 189.603 177.557 189.349C176.959 189.095 176.44 188.685 176.053 188.163C175.667 187.64 175.428 187.024 175.36 186.378C174 173.248 171.05 146.508 168.5 136.758C168.374 136.289 168.344 135.8 168.41 135.319C168.476 134.838 168.638 134.375 168.886 133.957C169.134 133.54 169.463 133.176 169.853 132.888C170.244 132.599 170.688 132.392 171.16 132.278Z" fill="#AAB2FF"/>
  <path d="M111.71 67.7979C119.44 79.3179 134.44 99.0279 151.65 108.418C152.124 108.678 152.533 109.043 152.845 109.485C153.157 109.927 153.365 110.434 153.452 110.968C153.538 111.502 153.502 112.049 153.346 112.567C153.19 113.085 152.917 113.561 152.55 113.958C145.28 121.818 128.83 142.538 128.18 169.618C128.173 170.31 127.965 170.985 127.582 171.561C127.198 172.137 126.656 172.589 126.02 172.862C125.384 173.136 124.683 173.218 124.001 173.1C123.319 172.982 122.687 172.669 122.18 172.198C112.68 163.688 93.5997 149.088 75.0097 148.688C74.3609 148.678 73.7269 148.492 73.1759 148.149C72.625 147.806 72.1779 147.32 71.8828 146.742C71.5876 146.164 71.4556 145.517 71.5009 144.869C71.5462 144.222 71.767 143.599 72.1397 143.068C81.2097 130.148 100.87 99.3079 105.22 69.2579C105.328 68.5472 105.647 67.8856 106.137 67.3597C106.627 66.8337 107.265 66.4679 107.966 66.3102C108.667 66.1524 109.4 66.21 110.068 66.4755C110.736 66.7409 111.308 67.2018 111.71 67.7979V67.7979Z" fill="#AAB2FF"/>
  <path d="M208.32 92.6877C212.545 92.6877 215.97 89.2627 215.97 85.0377C215.97 80.8127 212.545 77.3877 208.32 77.3877C204.095 77.3877 200.67 80.8127 200.67 85.0377C200.67 89.2627 204.095 92.6877 208.32 92.6877Z" fill="#818CFF"/>
  <path d="M83.5 142.5C92.1667 124.833 123.5 87.5 167.5 65" stroke="#08124F" stroke-width="2.6" stroke-linecap="round" stroke-linejoin="round"/>
  <path d="M157 62.5L168 64.5L166 78" stroke="#08124F" stroke-width="2.6" stroke-linecap="round" stroke-linejoin="round"/>
  <path d="M177 83C149.5 95 122.667 89.6667 109 86C88.5003 136.5 115 177.5 130.5 172C160 158 181.5 145 181.5 145C162.5 114 177 83 177 83Z" fill="white" stroke="#08124F" stroke-width="2.6" stroke-linecap="round" stroke-linejoin="round"/>
  <path d="M190 153.5L130.5 172C139 168.5 134.5 156.5 127 155C143 150 171.5 142.5 183.5 139.5C183.5 139.5 193 144.5 190 153.5Z" fill="white" stroke="#08124F" stroke-width="2.6" stroke-linecap="round" stroke-linejoin="round"/>
  <circle cx="77" cy="156" r="8" stroke="#08124F" stroke-width="2.6"/>
  <path d="M106.5 168.5C107.833 172.833 113.5 179 120.5 179.5" stroke="#08124F" stroke-width="2.6" stroke-linecap="round" stroke-linejoin="round"/>
  <path d="M98.5 172C98.5 176 101 183 115 186" stroke="#08124F" stroke-width="2.6" stroke-linecap="round" stroke-linejoin="round"/>
  <path d="M92 76.5L88.5 93.5" stroke="#08124F" stroke-width="2.6" stroke-linecap="round" stroke-linejoin="round"/>
  <path d="M81 80C85.5 82.5 95 87.6 97 88" stroke="#08124F" stroke-width="2.6" stroke-linecap="round" stroke-linejoin="round"/>
  <path d="M192 45C191.167 50.1667 190 57.5 187 66" stroke="#08124F" stroke-width="2.6" stroke-linecap="round" stroke-linejoin="round"/>
  <path d="M180 50.5C185.167 52.8333 196 58 198 60" stroke="#08124F" stroke-width="2.6" stroke-linecap="round" stroke-linejoin="round"/>
  <path d="M202.5 156.5C201 160.333 198.1 167 196.5 169" stroke="#08124F" stroke-width="2.6" stroke-linecap="round" stroke-linejoin="round"/>
  <path d="M194.5 157.5L207 164.5" stroke="#08124F" stroke-width="2.6" stroke-linecap="round" stroke-linejoin="round"/>
  <path d="M182 97C180.5 100.667 178.2 110.4 181 120" stroke="#08124F" stroke-width="2.6" stroke-linecap="round" stroke-linejoin="round"/>
  <path d="M192 98.5C190 101.5 187.3 106.1 190.5 118.5" stroke="#08124F" stroke-width="2.6" stroke-linecap="round" stroke-linejoin="round"/>
  <ellipse cx="149.5" cy="108.5" rx="3.5" ry="4.5" fill="#08124F"/>
  <ellipse cx="126.407" cy="109.305" rx="3.5" ry="5.17981" transform="rotate(13.2129 126.407 109.305)" fill="#08124F"/>
  <path d="M129.5 124.5C133.5 129.667 143.9 136.7 153.5 123.5" stroke="#08124F" stroke-width="2.6" stroke-linecap="round" stroke-linejoin="round"/>
  <defs>
    <filter id="filter0_d_1117_20773" x="22" y="16" width="255.54" height="279.348" filterUnits="userSpaceOnUse" color-interpolation-filters="sRGB">
      <feFlood flood-opacity="0" result="BackgroundImageFix"/>
      <feColorMatrix in="SourceAlpha" type="matrix" values="0 0 0 0 0 0 0 0 0 0 0 0 0 0 0 0 0 0 127 0" result="hardAlpha"/>
      <feOffset dy="6"/>
      <feGaussianBlur stdDeviation="5"/>
      <feComposite in2="hardAlpha" operator="out"/>
      <feColorMatrix type="matrix" values="0 0 0 0 0.0313726 0 0 0 0 0.0705882 0 0 0 0 0.309804 0 0 0 0.25 0"/>
      <feBlend mode="normal" in2="BackgroundImageFix" result="effect1_dropShadow_1117_20773"/>
      <feBlend mode="normal" in="SourceGraphic" in2="effect1_dropShadow_1117_20773" result="shape"/>
    </filter>
  </defs>
</svg>
