<svg width="270" height="310" viewBox="0 0 270 310" fill="none" xmlns="http://www.w3.org/2000/svg">
  <g filter="url(#filter0_d_1117_20743)">
    <path d="M222.058 106.442L140.808 27.4821C139.199 25.8919 137.029 25 134.768 25C132.506 25 130.336 25.8919 128.728 27.4821L47.4975 106.482C46.3066 107.668 45.4947 109.18 45.1649 110.828C44.8351 112.475 45.0023 114.184 45.6451 115.736C46.288 117.289 47.3776 118.615 48.7756 119.548C50.1737 120.48 51.8172 120.976 53.4975 120.972H74.0775L48.4075 268.072C48.1264 270.085 48.2815 272.134 48.8621 274.081C49.4428 276.029 50.4354 277.828 51.7728 279.358C53.1101 280.888 54.7609 282.112 56.6131 282.948C58.4653 283.784 60.4755 284.212 62.5075 284.202H207.068C209.099 284.21 211.108 283.781 212.96 282.945C214.811 282.109 216.461 280.884 217.798 279.355C219.135 277.825 220.128 276.026 220.709 274.08C221.291 272.133 221.447 270.084 221.168 268.072L195.488 120.932H216.018C217.701 120.944 219.35 120.453 220.755 119.524C222.159 118.595 223.255 117.269 223.902 115.715C224.55 114.161 224.721 112.449 224.392 110.798C224.064 109.146 223.251 107.63 222.058 106.442Z" fill="#FCFCFC"/>
    <path d="M224.862 103.59L224.879 103.607C226.636 105.355 227.832 107.587 228.315 110.017C228.799 112.447 228.548 114.967 227.595 117.254C226.641 119.541 225.028 121.493 222.962 122.86C220.899 124.225 218.478 124.946 216.005 124.932H200.246L225.108 267.384L225.12 267.453L225.13 267.522C225.488 270.102 225.287 272.729 224.542 275.224C223.797 277.72 222.524 280.026 220.81 281.987C219.096 283.948 216.98 285.518 214.607 286.59C212.235 287.661 209.662 288.211 207.06 288.202C207.058 288.202 207.055 288.202 207.052 288.202H62.5262C62.5239 288.202 62.5217 288.202 62.5194 288.202C59.9161 288.213 57.3408 287.665 54.9678 286.594C52.5928 285.522 50.4761 283.952 48.7612 281.991C47.0463 280.029 45.7734 277.721 45.0289 275.224C44.2843 272.727 44.0855 270.099 44.446 267.519L44.4554 267.451L44.4671 267.384L69.319 124.972L53.5058 124.972C53.5045 124.972 53.5031 124.972 53.5018 124.972H53.4975V120.972C51.8172 120.976 50.1737 120.48 48.7756 119.548C47.3776 118.615 46.288 117.289 45.6451 115.736C45.0023 114.184 44.8351 112.475 45.1649 110.828C45.4947 109.18 46.3066 107.668 47.4975 106.482L224.862 103.59ZM224.862 103.59L224.845 103.574L143.62 24.6379L224.862 103.59Z" stroke="white" stroke-width="8" stroke-miterlimit="10"/>
  </g>
  <path d="M222.058 106.442L140.808 27.4821C139.199 25.8919 137.029 25 134.768 25C132.506 25 130.336 25.8919 128.728 27.4821L47.4975 106.482C46.3066 107.668 45.4947 109.18 45.1649 110.828C44.8351 112.475 45.0023 114.184 45.6451 115.736C46.288 117.289 47.3776 118.615 48.7756 119.548C50.1737 120.48 51.8172 120.976 53.4975 120.972H74.0775L48.4075 268.072C48.1264 270.085 48.2815 272.134 48.8621 274.081C49.4428 276.029 50.4354 277.828 51.7728 279.358C53.1101 280.888 54.7609 282.112 56.6131 282.948C58.4653 283.784 60.4755 284.212 62.5075 284.202H207.068C209.099 284.21 211.108 283.781 212.96 282.945C214.811 282.109 216.461 280.884 217.798 279.355C219.135 277.825 220.128 276.026 220.709 274.08C221.291 272.133 221.447 270.084 221.168 268.072L195.488 120.932H216.018C217.701 120.944 219.35 120.453 220.755 119.524C222.159 118.595 223.255 117.269 223.902 115.715C224.55 114.161 224.721 112.449 224.392 110.798C224.064 109.146 223.251 107.63 222.058 106.442Z" fill="#F8F8FF" stroke="#08124F" stroke-width="2.2" stroke-miterlimit="10"/>
  <path d="M79.1271 101.792C82.0984 101.792 84.5071 99.3835 84.5071 96.4122C84.5071 93.4409 82.0984 91.0322 79.1271 91.0322C76.1558 91.0322 73.7471 93.4409 73.7471 96.4122C73.7471 99.3835 76.1558 101.792 79.1271 101.792Z" fill="#818CFF"/>
  <path d="M187.697 110.562C191.353 110.562 194.317 107.598 194.317 103.942C194.317 100.286 191.353 97.3223 187.697 97.3223C184.041 97.3223 181.077 100.286 181.077 103.942C181.077 107.598 184.041 110.562 187.697 110.562Z" fill="#818CFF"/>
  <path d="M77.588 266H81.1096V252.534H85.2016V249.136H73.496V252.534H77.588V266ZM86.666 257.568C86.666 262.503 90.4108 266.273 95.346 266.273C100.281 266.273 104.026 262.503 104.026 257.568C104.026 252.633 100.281 248.863 95.346 248.863C90.4108 248.863 86.666 252.633 86.666 257.568ZM90.2868 257.568C90.2868 254.716 92.4692 252.385 95.346 252.385C98.198 252.385 100.38 254.716 100.38 257.568C100.38 260.445 98.198 262.751 95.346 262.751C92.4692 262.751 90.2868 260.445 90.2868 257.568ZM119.442 249.657C118.326 249.161 116.615 248.863 114.879 248.863C109.82 248.863 106.149 252.633 106.149 257.568C106.149 262.478 109.671 266.273 114.557 266.273C119.963 266.273 122.79 262.379 122.79 257.94C122.79 257.097 122.691 256.13 122.567 255.485H114.581V258.684H118.946C118.946 258.783 118.971 258.957 118.971 259.056C118.971 260.891 117.359 262.751 114.656 262.751C111.804 262.751 109.77 260.42 109.77 257.568C109.77 254.567 111.953 252.385 114.879 252.385C116.665 252.385 118.301 252.856 119.442 253.476V249.657ZM135.231 266V262.602H129.155V259.205H134.735V255.807H129.155V252.534H135.231V249.136H125.633V266H135.231ZM141.693 266H145.215V252.534H149.307V249.136H137.601V252.534H141.693V266ZM163.386 266H166.908V249.136H163.386V255.807H155.673V249.136H152.152V266H155.673V259.205H163.386V266ZM180.7 266V262.602H174.624V259.205H180.204V255.807H174.624V252.534H180.7V249.136H171.102V266H180.7ZM184.434 266H187.956V259.726H188.824C190.882 259.726 192.321 262.33 192.916 266H196.562C196.165 262.379 194.9 259.403 192.792 258.312C194.454 257.841 195.842 256.452 195.842 254.046C195.842 250.922 193.561 249.136 190.262 249.136H184.434V266ZM192.222 254.443C192.222 255.658 191.378 256.328 190.262 256.328H187.956V252.534H190.262C191.378 252.534 192.222 253.203 192.222 254.443Z" fill="#08124F"/>
  <path d="M77.588 266H77.398V266.19H77.588V266ZM81.1096 266V266.19H81.2996V266H81.1096ZM81.1096 252.534V252.344H80.9196V252.534H81.1096ZM85.2016 252.534V252.724H85.3916V252.534H85.2016ZM85.2016 249.136H85.3916V248.946H85.2016V249.136ZM73.496 249.136V248.946H73.306V249.136H73.496ZM73.496 252.534H73.306V252.724H73.496V252.534ZM77.588 252.534H77.778V252.344H77.588V252.534ZM77.588 266.19H81.1096V265.81H77.588V266.19ZM81.2996 266V252.534H80.9196V266H81.2996ZM81.1096 252.724H85.2016V252.344H81.1096V252.724ZM85.3916 252.534V249.136H85.0116V252.534H85.3916ZM85.2016 248.946H73.496V249.326H85.2016V248.946ZM73.306 249.136V252.534H73.686V249.136H73.306ZM73.496 252.724H77.588V252.344H73.496V252.724ZM77.398 252.534V266H77.778V252.534H77.398ZM86.476 257.568C86.476 262.607 90.3051 266.463 95.346 266.463V266.083C90.5164 266.083 86.856 262.399 86.856 257.568H86.476ZM95.346 266.463C100.387 266.463 104.216 262.607 104.216 257.568H103.836C103.836 262.399 100.176 266.083 95.346 266.083V266.463ZM104.216 257.568C104.216 252.529 100.387 248.673 95.346 248.673V249.053C100.176 249.053 103.836 252.737 103.836 257.568H104.216ZM95.346 248.673C90.3051 248.673 86.476 252.529 86.476 257.568H86.856C86.856 252.737 90.5164 249.053 95.346 249.053V248.673ZM90.4768 257.568C90.4768 254.814 92.5807 252.575 95.346 252.575V252.195C92.3577 252.195 90.0968 254.618 90.0968 257.568H90.4768ZM95.346 252.575C98.0859 252.575 100.19 254.814 100.19 257.568H100.57C100.57 254.618 98.3101 252.195 95.346 252.195V252.575ZM100.19 257.568C100.19 260.347 98.0864 262.561 95.346 262.561V262.941C98.3095 262.941 100.57 260.543 100.57 257.568H100.19ZM95.346 262.561C92.5801 262.561 90.4768 260.346 90.4768 257.568H90.0968C90.0968 260.544 92.3582 262.941 95.346 262.941V262.561ZM119.442 249.657H119.632V249.533L119.519 249.483L119.442 249.657ZM122.567 255.485L122.754 255.449L122.724 255.295H122.567V255.485ZM114.581 255.485V255.295H114.391V255.485H114.581ZM114.581 258.684H114.391V258.874H114.581V258.684ZM118.946 258.684H119.136V258.494H118.946V258.684ZM119.442 253.476L119.352 253.643L119.632 253.796V253.476H119.442ZM119.519 249.483C118.371 248.973 116.631 248.673 114.879 248.673V249.053C116.599 249.053 118.281 249.349 119.365 249.83L119.519 249.483ZM114.879 248.673C109.714 248.673 105.959 252.529 105.959 257.568H106.339C106.339 252.737 109.926 249.053 114.879 249.053V248.673ZM105.959 257.568C105.959 262.575 109.558 266.463 114.557 266.463V266.083C109.784 266.083 106.339 262.382 106.339 257.568H105.959ZM114.557 266.463C117.309 266.463 119.42 265.47 120.842 263.899C122.261 262.33 122.98 260.199 122.98 257.94H122.6C122.6 260.12 121.906 262.156 120.56 263.644C119.216 265.129 117.211 266.083 114.557 266.083V266.463ZM122.98 257.94C122.98 257.085 122.88 256.106 122.754 255.449L122.38 255.521C122.502 256.153 122.6 257.109 122.6 257.94H122.98ZM122.567 255.295H114.581V255.675H122.567V255.295ZM114.391 255.485V258.684H114.771V255.485H114.391ZM114.581 258.874H118.946V258.494H114.581V258.874ZM118.756 258.684C118.756 258.744 118.764 258.822 118.769 258.887C118.776 258.959 118.781 259.017 118.781 259.056H119.161C119.161 258.996 119.154 258.918 119.148 258.853C119.141 258.781 119.136 258.723 119.136 258.684H118.756ZM118.781 259.056C118.781 260.775 117.266 262.561 114.656 262.561V262.941C117.452 262.941 119.161 261.008 119.161 259.056H118.781ZM114.656 262.561C111.923 262.561 109.96 260.33 109.96 257.568H109.58C109.58 260.51 111.684 262.941 114.656 262.941V262.561ZM109.96 257.568C109.96 254.67 112.059 252.575 114.879 252.575V252.195C111.846 252.195 109.58 254.464 109.58 257.568H109.96ZM114.879 252.575C116.634 252.575 118.239 253.038 119.352 253.643L119.533 253.309C118.364 252.674 116.696 252.195 114.879 252.195V252.575ZM119.632 253.476V249.657H119.252V253.476H119.632ZM135.231 266V266.19H135.421V266H135.231ZM135.231 262.602H135.421V262.412H135.231V262.602ZM129.155 262.602H128.965V262.792H129.155V262.602ZM129.155 259.205V259.015H128.965V259.205H129.155ZM134.735 259.205V259.395H134.925V259.205H134.735ZM134.735 255.807H134.925V255.617H134.735V255.807ZM129.155 255.807H128.965V255.997H129.155V255.807ZM129.155 252.534V252.344H128.965V252.534H129.155ZM135.231 252.534V252.724H135.421V252.534H135.231ZM135.231 249.136H135.421V248.946H135.231V249.136ZM125.633 249.136V248.946H125.443V249.136H125.633ZM125.633 266H125.443V266.19H125.633V266ZM135.421 266V262.602H135.041V266H135.421ZM135.231 262.412H129.155V262.792H135.231V262.412ZM129.345 262.602V259.205H128.965V262.602H129.345ZM129.155 259.395H134.735V259.015H129.155V259.395ZM134.925 259.205V255.807H134.545V259.205H134.925ZM134.735 255.617H129.155V255.997H134.735V255.617ZM129.345 255.807V252.534H128.965V255.807H129.345ZM129.155 252.724H135.231V252.344H129.155V252.724ZM135.421 252.534V249.136H135.041V252.534H135.421ZM135.231 248.946H125.633V249.326H135.231V248.946ZM125.443 249.136V266H125.823V249.136H125.443ZM125.633 266.19H135.231V265.81H125.633V266.19ZM141.693 266H141.503V266.19H141.693V266ZM145.215 266V266.19H145.405V266H145.215ZM145.215 252.534V252.344H145.025V252.534H145.215ZM149.307 252.534V252.724H149.497V252.534H149.307ZM149.307 249.136H149.497V248.946H149.307V249.136ZM137.601 249.136V248.946H137.411V249.136H137.601ZM137.601 252.534H137.411V252.724H137.601V252.534ZM141.693 252.534H141.883V252.344H141.693V252.534ZM141.693 266.19H145.215V265.81H141.693V266.19ZM145.405 266V252.534H145.025V266H145.405ZM145.215 252.724H149.307V252.344H145.215V252.724ZM149.497 252.534V249.136H149.117V252.534H149.497ZM149.307 248.946H137.601V249.326H149.307V248.946ZM137.411 249.136V252.534H137.791V249.136H137.411ZM137.601 252.724H141.693V252.344H137.601V252.724ZM141.503 252.534V266H141.883V252.534H141.503ZM163.386 266H163.196V266.19H163.386V266ZM166.908 266V266.19H167.098V266H166.908ZM166.908 249.136H167.098V248.946H166.908V249.136ZM163.386 249.136V248.946H163.196V249.136H163.386ZM163.386 255.807V255.997H163.576V255.807H163.386ZM155.673 255.807H155.483V255.997H155.673V255.807ZM155.673 249.136H155.863V248.946H155.673V249.136ZM152.152 249.136V248.946H151.962V249.136H152.152ZM152.152 266H151.962V266.19H152.152V266ZM155.673 266V266.19H155.863V266H155.673ZM155.673 259.205V259.015H155.483V259.205H155.673ZM163.386 259.205H163.576V259.015H163.386V259.205ZM163.386 266.19H166.908V265.81H163.386V266.19ZM167.098 266V249.136H166.718V266H167.098ZM166.908 248.946H163.386V249.326H166.908V248.946ZM163.196 249.136V255.807H163.576V249.136H163.196ZM163.386 255.617H155.673V255.997H163.386V255.617ZM155.863 255.807V249.136H155.483V255.807H155.863ZM155.673 248.946H152.152V249.326H155.673V248.946ZM151.962 249.136V266H152.342V249.136H151.962ZM152.152 266.19H155.673V265.81H152.152V266.19ZM155.863 266V259.205H155.483V266H155.863ZM155.673 259.395H163.386V259.015H155.673V259.395ZM163.196 259.205V266H163.576V259.205H163.196ZM180.7 266V266.19H180.89V266H180.7ZM180.7 262.602H180.89V262.412H180.7V262.602ZM174.624 262.602H174.434V262.792H174.624V262.602ZM174.624 259.205V259.015H174.434V259.205H174.624ZM180.204 259.205V259.395H180.394V259.205H180.204ZM180.204 255.807H180.394V255.617H180.204V255.807ZM174.624 255.807H174.434V255.997H174.624V255.807ZM174.624 252.534V252.344H174.434V252.534H174.624ZM180.7 252.534V252.724H180.89V252.534H180.7ZM180.7 249.136H180.89V248.946H180.7V249.136ZM171.102 249.136V248.946H170.912V249.136H171.102ZM171.102 266H170.912V266.19H171.102V266ZM180.89 266V262.602H180.51V266H180.89ZM180.7 262.412H174.624V262.792H180.7V262.412ZM174.814 262.602V259.205H174.434V262.602H174.814ZM174.624 259.395H180.204V259.015H174.624V259.395ZM180.394 259.205V255.807H180.014V259.205H180.394ZM180.204 255.617H174.624V255.997H180.204V255.617ZM174.814 255.807V252.534H174.434V255.807H174.814ZM174.624 252.724H180.7V252.344H174.624V252.724ZM180.89 252.534V249.136H180.51V252.534H180.89ZM180.7 248.946H171.102V249.326H180.7V248.946ZM170.912 249.136V266H171.292V249.136H170.912ZM171.102 266.19H180.7V265.81H171.102V266.19ZM184.434 266H184.244V266.19H184.434V266ZM187.956 266V266.19H188.146V266H187.956ZM187.956 259.726V259.536H187.766V259.726H187.956ZM192.916 266L192.728 266.03L192.754 266.19H192.916V266ZM196.562 266V266.19H196.773L196.75 265.979L196.562 266ZM192.792 258.312L192.74 258.129L192.278 258.26L192.705 258.481L192.792 258.312ZM184.434 249.136V248.946H184.244V249.136H184.434ZM187.956 256.328H187.766V256.518H187.956V256.328ZM187.956 252.534V252.344H187.766V252.534H187.956ZM184.434 266.19H187.956V265.81H184.434V266.19ZM188.146 266V259.726H187.766V266H188.146ZM187.956 259.916H188.824V259.536H187.956V259.916ZM188.824 259.916C189.761 259.916 190.584 260.506 191.257 261.587C191.93 262.667 192.433 264.209 192.728 266.03L193.103 265.97C192.804 264.121 192.289 262.525 191.58 261.386C190.871 260.247 189.945 259.536 188.824 259.536V259.916ZM192.916 266.19H196.562V265.81H192.916V266.19ZM196.75 265.979C196.55 264.154 196.131 262.483 195.49 261.126C194.85 259.77 193.982 258.714 192.879 258.143L192.705 258.481C193.709 259.001 194.528 259.979 195.147 261.289C195.765 262.597 196.176 264.225 196.373 266.021L196.75 265.979ZM192.844 258.495C194.581 258.002 196.032 256.543 196.032 254.046H195.652C195.652 256.361 194.326 257.68 192.74 258.129L192.844 258.495ZM196.032 254.046C196.032 252.434 195.442 251.151 194.412 250.275C193.387 249.401 191.944 248.946 190.262 248.946V249.326C191.879 249.326 193.226 249.764 194.166 250.564C195.102 251.361 195.652 252.534 195.652 254.046H196.032ZM190.262 248.946H184.434V249.326H190.262V248.946ZM184.244 249.136V266H184.624V249.136H184.244ZM192.032 254.443C192.032 255.004 191.838 255.422 191.532 255.701C191.224 255.982 190.783 256.138 190.262 256.138V256.518C190.857 256.518 191.396 256.339 191.788 255.982C192.183 255.622 192.412 255.097 192.412 254.443H192.032ZM190.262 256.138H187.956V256.518H190.262V256.138ZM188.146 256.328V252.534H187.766V256.328H188.146ZM187.956 252.724H190.262V252.344H187.956V252.724ZM190.262 252.724C190.783 252.724 191.224 252.88 191.532 253.163C191.838 253.445 192.032 253.869 192.032 254.443H192.412C192.412 253.778 192.184 253.247 191.789 252.884C191.397 252.522 190.857 252.344 190.262 252.344V252.724Z" fill="#08124F"/>
  <path d="M73.2817 194.241V191.762H85.5357V194.241H80.8313V207.622H77.9579V194.241H73.2817ZM94.4893 208.016C91.9352 208.016 89.9821 207.275 88.6299 205.791C87.2778 204.289 86.6017 202.27 86.6017 199.734C86.6017 198.063 86.8928 196.617 87.475 195.396C88.0572 194.157 88.9304 193.199 90.0948 192.523C91.2779 191.828 92.7428 191.481 94.4893 191.481C97.0809 191.481 99.0435 192.232 100.377 193.734C101.71 195.218 102.377 197.218 102.377 199.734C102.377 201.368 102.076 202.814 101.475 204.073C100.875 205.312 99.9918 206.279 98.8275 206.974C97.6631 207.669 96.2171 208.016 94.4893 208.016ZM94.4611 205.256C96.1513 205.256 97.419 204.73 98.2641 203.678C99.128 202.627 99.5599 201.312 99.5599 199.734C99.5599 198.664 99.3721 197.716 98.9965 196.889C98.6209 196.044 98.0575 195.387 97.3063 194.917C96.5551 194.429 95.6067 194.185 94.4611 194.185C92.8085 194.185 91.5502 194.692 90.6864 195.706C89.8225 196.72 89.3905 198.063 89.3905 199.734C89.3905 200.767 89.5689 201.706 89.9258 202.551C90.3014 203.378 90.8648 204.035 91.616 204.523C92.3672 205.012 93.3156 205.256 94.4611 205.256Z" fill="#08124F"/>
  <path d="M73.2817 194.241H72.2817V195.241H73.2817V194.241ZM73.2817 191.762V190.762H72.2817V191.762H73.2817ZM85.5357 191.762H86.5357V190.762H85.5357V191.762ZM85.5357 194.241V195.241H86.5357V194.241H85.5357ZM80.8313 194.241V193.241H79.8313V194.241H80.8313ZM80.8313 207.622V208.622H81.8313V207.622H80.8313ZM77.9579 207.622H76.9579V208.622H77.9579V207.622ZM77.9579 194.241H78.9579V193.241H77.9579V194.241ZM74.2817 194.241V191.762H72.2817V194.241H74.2817ZM73.2817 192.762H85.5357V190.762H73.2817V192.762ZM84.5357 191.762V194.241H86.5357V191.762H84.5357ZM85.5357 193.241H80.8313V195.241H85.5357V193.241ZM79.8313 194.241V207.622H81.8313V194.241H79.8313ZM80.8313 206.622H77.9579V208.622H80.8313V206.622ZM78.9579 207.622V194.241H76.9579V207.622H78.9579ZM77.9579 193.241H73.2817V195.241H77.9579V193.241ZM88.6299 205.791L87.8866 206.46L87.8909 206.465L88.6299 205.791ZM87.475 195.396L88.3776 195.827L88.3801 195.821L87.475 195.396ZM90.0948 192.523L90.5969 193.388L90.6012 193.385L90.0948 192.523ZM100.377 193.734L99.6289 194.398L99.6331 194.403L100.377 193.734ZM101.475 204.073L102.375 204.509L102.378 204.504L101.475 204.073ZM98.8275 206.974L99.3399 207.833L98.8275 206.974ZM98.2641 203.678L97.4913 203.043L97.4846 203.052L98.2641 203.678ZM98.9965 196.889L98.0827 197.295L98.0861 197.303L98.9965 196.889ZM97.3063 194.917L96.7613 195.756L96.7688 195.761L96.7763 195.765L97.3063 194.917ZM90.6864 195.706L91.4476 196.355L90.6864 195.706ZM89.9258 202.551L89.0045 202.94L89.0098 202.953L89.0154 202.965L89.9258 202.551ZM91.616 204.523L91.071 205.362L91.616 204.523ZM94.4893 207.016C92.1349 207.016 90.4829 206.34 89.369 205.117L87.8909 206.465C89.4813 208.21 91.7356 209.016 94.4893 209.016V207.016ZM89.3732 205.122C88.2253 203.847 87.6017 202.088 87.6017 199.734H85.6017C85.6017 202.452 86.3302 204.731 87.8867 206.46L89.3732 205.122ZM87.6017 199.734C87.6017 198.178 87.8728 196.885 88.3776 195.827L86.5724 194.966C85.9128 196.349 85.6017 197.948 85.6017 199.734H87.6017ZM88.3801 195.821C88.8774 194.763 89.6117 193.96 90.5969 193.388L89.5927 191.658C88.2492 192.438 87.2369 193.551 86.5698 194.971L88.3801 195.821ZM90.6012 193.385C91.5943 192.802 92.873 192.481 94.4893 192.481V190.481C92.6125 190.481 90.9616 190.854 89.5884 191.661L90.6012 193.385ZM94.4893 192.481C96.8834 192.481 98.537 193.168 99.6289 194.398L101.125 193.07C99.5499 191.296 97.2785 190.481 94.4893 190.481V192.481ZM99.6331 194.403C100.762 195.658 101.377 197.398 101.377 199.734H103.377C103.377 197.038 102.659 194.777 101.121 193.066L99.6331 194.403ZM101.377 199.734C101.377 201.245 101.1 202.539 100.573 203.642L102.378 204.504C103.053 203.09 103.377 201.492 103.377 199.734H101.377ZM100.576 203.636C100.058 204.703 99.309 205.522 98.315 206.115L99.3399 207.833C100.675 207.036 101.691 205.921 102.375 204.509L100.576 203.636ZM98.315 206.115C97.3427 206.696 96.0854 207.016 94.4893 207.016V209.016C96.3488 209.016 97.9836 208.642 99.3399 207.833L98.315 206.115ZM94.4611 206.256C96.3705 206.256 97.9617 205.651 99.0436 204.305L97.4846 203.052C96.8762 203.809 95.9322 204.256 94.4611 204.256V206.256ZM99.0368 204.313C100.07 203.055 100.56 201.505 100.56 199.734H98.5599C98.5599 201.119 98.1855 202.199 97.4914 203.044L99.0368 204.313ZM100.56 199.734C100.56 198.547 100.351 197.453 99.9069 196.475L98.0861 197.303C98.393 197.978 98.5599 198.781 98.5599 199.734H100.56ZM99.9103 196.483C99.4575 195.464 98.7644 194.649 97.8363 194.069L96.7763 195.765C97.3507 196.124 97.7843 196.624 98.0827 197.295L99.9103 196.483ZM97.8513 194.079C96.8982 193.459 95.7467 193.185 94.4611 193.185V195.185C95.4667 195.185 96.212 195.399 96.7613 195.756L97.8513 194.079ZM94.4611 193.185C92.5921 193.185 91.0236 193.768 89.9251 195.058L91.4476 196.355C92.0769 195.616 93.0249 195.185 94.4611 195.185V193.185ZM89.9251 195.058C88.871 196.295 88.3905 197.888 88.3905 199.734H90.3905C90.3905 198.238 90.774 197.145 91.4476 196.355L89.9251 195.058ZM88.3905 199.734C88.3905 200.884 88.5896 201.958 89.0045 202.94L90.847 202.162C90.5483 201.455 90.3905 200.651 90.3905 199.734H88.3905ZM89.0154 202.965C89.4688 203.963 90.1578 204.768 91.071 205.362L92.161 203.685C91.5717 203.302 91.134 202.793 90.8361 202.138L89.0154 202.965ZM91.071 205.362C92.024 205.981 93.1755 206.256 94.4611 206.256V204.256C93.4556 204.256 92.7103 204.042 92.161 203.685L91.071 205.362Z" fill="#08124F"/>
  <path d="M153.45 194.371V191.892H165.704V194.371H160.999V207.752H158.126V194.371H153.45ZM170.798 207.752H167.896V191.892H170.798V198.569H178.319V191.892H181.193V207.752H178.319V200.794H170.798V207.752ZM187.162 205.442H195.923V207.752H184.317V191.892H195.641V194.371H187.162V198.54H193.669V200.907H187.162V205.442Z" fill="#08124F"/>
  <path d="M153.45 194.371H152.45V195.371H153.45V194.371ZM153.45 191.892V190.892H152.45V191.892H153.45ZM165.704 191.892H166.704V190.892H165.704V191.892ZM165.704 194.371V195.371H166.704V194.371H165.704ZM160.999 194.371V193.371H159.999V194.371H160.999ZM160.999 207.752V208.752H161.999V207.752H160.999ZM158.126 207.752H157.126V208.752H158.126V207.752ZM158.126 194.371H159.126V193.371H158.126V194.371ZM154.45 194.371V191.892H152.45V194.371H154.45ZM153.45 192.892H165.704V190.892H153.45V192.892ZM164.704 191.892V194.371H166.704V191.892H164.704ZM165.704 193.371H160.999V195.371H165.704V193.371ZM159.999 194.371V207.752H161.999V194.371H159.999ZM160.999 206.752H158.126V208.752H160.999V206.752ZM159.126 207.752V194.371H157.126V207.752H159.126ZM158.126 193.371H153.45V195.371H158.126V193.371ZM170.798 207.752V208.752H171.798V207.752H170.798ZM167.896 207.752H166.896V208.752H167.896V207.752ZM167.896 191.892V190.892H166.896V191.892H167.896ZM170.798 191.892H171.798V190.892H170.798V191.892ZM170.798 198.569H169.798V199.569H170.798V198.569ZM178.319 198.569V199.569H179.319V198.569H178.319ZM178.319 191.892V190.892H177.319V191.892H178.319ZM181.193 191.892H182.193V190.892H181.193V191.892ZM181.193 207.752V208.752H182.193V207.752H181.193ZM178.319 207.752H177.319V208.752H178.319V207.752ZM178.319 200.794H179.319V199.794H178.319V200.794ZM170.798 200.794V199.794H169.798V200.794H170.798ZM170.798 206.752H167.896V208.752H170.798V206.752ZM168.896 207.752V191.892H166.896V207.752H168.896ZM167.896 192.892H170.798V190.892H167.896V192.892ZM169.798 191.892V198.569H171.798V191.892H169.798ZM170.798 199.569H178.319V197.569H170.798V199.569ZM179.319 198.569V191.892H177.319V198.569H179.319ZM178.319 192.892H181.193V190.892H178.319V192.892ZM180.193 191.892V207.752H182.193V191.892H180.193ZM181.193 206.752H178.319V208.752H181.193V206.752ZM179.319 207.752V200.794H177.319V207.752H179.319ZM178.319 199.794H170.798V201.794H178.319V199.794ZM169.798 200.794V207.752H171.798V200.794H169.798ZM187.162 205.442H186.162V206.442H187.162V205.442ZM195.923 205.442H196.923V204.442H195.923V205.442ZM195.923 207.752V208.752H196.923V207.752H195.923ZM184.317 207.752H183.317V208.752H184.317V207.752ZM184.317 191.892V190.892H183.317V191.892H184.317ZM195.641 191.892H196.641V190.892H195.641V191.892ZM195.641 194.371V195.371H196.641V194.371H195.641ZM187.162 194.371V193.371H186.162V194.371H187.162ZM187.162 198.54H186.162V199.54H187.162V198.54ZM193.669 198.54H194.669V197.54H193.669V198.54ZM193.669 200.907V201.907H194.669V200.907H193.669ZM187.162 200.907V199.907H186.162V200.907H187.162ZM187.162 206.442H195.923V204.442H187.162V206.442ZM194.923 205.442V207.752H196.923V205.442H194.923ZM195.923 206.752H184.317V208.752H195.923V206.752ZM185.317 207.752V191.892H183.317V207.752H185.317ZM184.317 192.892H195.641V190.892H184.317V192.892ZM194.641 191.892V194.371H196.641V191.892H194.641ZM195.641 193.371H187.162V195.371H195.641V193.371ZM186.162 194.371V198.54H188.162V194.371H186.162ZM187.162 199.54H193.669V197.54H187.162V199.54ZM192.669 198.54V200.907H194.669V198.54H192.669ZM193.669 199.907H187.162V201.907H193.669V199.907ZM186.162 200.907V205.442H188.162V200.907H186.162Z" fill="#08124F"/>
  <path d="M98.5146 212.982H75.3246C75.1519 212.981 74.9836 213.036 74.8448 213.139C74.706 213.242 74.6042 213.387 74.5546 213.552L73.0346 218.552C72.9985 218.672 72.9905 218.798 73.0113 218.921C73.0321 219.044 73.0812 219.161 73.1546 219.262C73.2316 219.362 73.33 219.443 73.4424 219.5C73.5548 219.557 73.6785 219.589 73.8046 219.592H81.3146V241.692C81.3155 241.909 81.4017 242.117 81.5546 242.272C81.6282 242.345 81.7156 242.403 81.8117 242.443C81.9077 242.482 82.0107 242.502 82.1146 242.502L90.2446 242.312C90.4541 242.304 90.6525 242.215 90.798 242.064C90.9435 241.913 91.0247 241.712 91.0246 241.502V219.582H97.0246C97.1968 219.581 97.3644 219.525 97.5029 219.423C97.6413 219.32 97.7435 219.176 97.7946 219.012L99.3146 214.012C99.345 213.894 99.3481 213.771 99.3237 213.652C99.2994 213.532 99.2481 213.42 99.1738 213.324C99.0996 213.227 99.0043 213.149 98.8953 213.095C98.7862 213.041 98.6663 213.013 98.5446 213.012L98.5146 212.982Z" fill="#08124F"/>
  <path d="M112.568 234.069L112.568 234.07L112.576 234.078C113.454 234.946 114.508 235.616 115.667 236.043C116.825 236.469 118.061 236.642 119.292 236.551C119.293 236.551 119.294 236.551 119.295 236.551L148.726 234.771C148.726 234.771 148.727 234.771 148.727 234.771C150.048 234.696 151.335 234.319 152.488 233.67C153.627 233.028 154.607 232.137 155.353 231.064L155.361 231.056L155.393 231.024L155.419 230.986C156.673 229.172 157.177 226.944 156.827 224.767C156.477 222.59 155.299 220.632 153.539 219.303L153.539 219.303L153.531 219.297C152.014 218.196 150.184 217.609 148.309 217.622C148.113 217.612 147.917 217.612 147.72 217.623L147.718 217.623L118.344 219.393C118.343 219.393 118.342 219.393 118.341 219.393C116.761 219.469 115.232 219.978 113.922 220.865C112.613 221.752 111.573 222.981 110.915 224.419C110.252 225.788 109.975 227.313 110.115 228.828C110.256 230.342 110.807 231.788 111.709 233.011C111.965 233.388 112.252 233.742 112.568 234.069ZM151.131 212.372H151.178C155.735 212.372 159.438 213.774 161.997 216.214C164.552 218.651 166.012 222.166 166.008 226.488C165.944 230.169 165.095 233.793 163.519 237.121C163.495 237.168 163.459 237.208 163.415 237.238C163.371 237.269 163.32 237.288 163.266 237.295L115.685 241.752C111.092 241.747 107.38 240.345 104.819 237.91C102.256 235.473 100.799 231.958 100.798 227.637C100.866 223.958 101.718 220.335 103.297 217.012C103.321 216.965 103.356 216.925 103.4 216.895C103.444 216.864 103.494 216.845 103.547 216.84C103.548 216.84 103.548 216.84 103.549 216.839L151.131 212.372Z" fill="#08124F" stroke="#08124F"/>
  <path d="M195.807 221.382C195.657 218.242 193.937 212.982 184.027 212.982H171.807C171.701 212.981 171.596 213 171.498 213.04C171.4 213.08 171.31 213.138 171.235 213.213C171.16 213.287 171.1 213.376 171.059 213.474C171.018 213.571 170.997 213.676 170.997 213.782V241.682C171 241.896 171.086 242.101 171.237 242.252C171.389 242.403 171.593 242.489 171.807 242.492L179.927 242.302C180.138 242.297 180.339 242.209 180.487 242.058C180.635 241.906 180.717 241.703 180.717 241.492V233.032L193.367 229.192C193.515 229.146 193.647 229.059 193.747 228.942C195.607 226.742 195.877 223.622 195.807 221.382ZM180.737 226.652V219.072C182.049 219.093 183.301 219.629 184.221 220.564C185.141 221.5 185.657 222.76 185.657 224.072V226.692L180.737 226.652Z" fill="#08124F"/>
  <path d="M180.858 145.592C191.918 140.042 195.958 119.012 180.858 120.592C171.278 121.592 174.578 115.772 174.968 109.432C175.908 94.3822 169.968 86.5122 138.388 103.542C128.688 108.762 114.068 87.9022 97.9278 90.5422C89.3778 91.9122 88.0678 105.082 92.3078 115.212C97.3078 127.102 92.6178 125.442 84.9678 127.542C72.6778 130.922 76.9678 149.762 90.7278 157.432C96.4178 160.592 74.4778 164.032 81.7278 173.952C90.1878 185.462 123.788 199.822 132.218 200.372C149.498 201.512 145.648 173.032 154.838 177.482C184.598 191.882 187.998 168.092 182.238 158.382C177.258 149.882 174.248 148.902 180.858 145.592Z" fill="#AAB2FF"/>
  <path d="M118.938 140.062C118.938 140.062 107.778 116.322 105.938 112.632C103.778 108.302 100.998 108.202 98.1079 113.552C92.9479 123.102 87.5979 130.822 84.2879 138.622C81.9979 144.012 90.4979 138.022 96.1979 141.152C103.338 145.062 103.318 139.152 109.548 141.512C111.093 142.17 112.79 142.383 114.45 142.127C116.109 141.871 117.664 141.156 118.938 140.062Z" fill="white"/>
  <path d="M128.268 71.1422C128.888 79.2022 129.648 87.2422 130.368 95.2922C130.508 96.8822 133.008 96.9022 132.868 95.2922C132.148 87.2922 131.388 79.2022 130.768 71.1422C130.648 69.5422 128.148 69.5322 128.268 71.1422Z" fill="#AD0002"/>
  <path d="M158 131L148 155C146 159.5 151 162 158 159.5C165.31 156.889 164.5 163 173.5 159.5C177.791 157.831 181.368 159.399 184 159.5C187.196 159.623 189 158.5 189 158.5C189 158.5 181 143 174.5 133C172.303 129.62 169.5 123 165.5 123C161.5 123 158.833 129 158 131Z" fill="white" stroke="#08124F" stroke-width="2.6" stroke-linecap="round" stroke-linejoin="round"/>
  <path d="M157 135C162.5 134 161 140 165 140C170 140 169 131 174.5 133" stroke="#08124F" stroke-width="2.6" stroke-linecap="round" stroke-linejoin="round"/>
  <path d="M129.737 71.1523C136.417 71.1523 149.267 71.3223 148.967 71.5123C145.967 73.3823 141.277 75.5923 138.107 77.1423C142.647 78.5823 145.107 80.2223 149.507 82.0523C141.507 82.7723 138.797 82.3923 130.617 83.3623L129.737 71.1523Z" fill="white"/>
  <path d="M134.5 62.5L135 44.5" stroke="#08124F" stroke-width="2.6" stroke-linecap="round" stroke-linejoin="round"/>
  <path d="M147 63L156 53" stroke="#08124F" stroke-width="2.6" stroke-linecap="round" stroke-linejoin="round"/>
  <path d="M156 73L170 67.5" stroke="#08124F" stroke-width="2.6" stroke-linecap="round" stroke-linejoin="round"/>
  <path d="M113.5 53L124 65" stroke="#08124F" stroke-width="2.6" stroke-linecap="round" stroke-linejoin="round"/>
  <path d="M102.5 70.5L117.5 74" stroke="#08124F" stroke-width="2.6" stroke-linecap="round" stroke-linejoin="round"/>
  <path d="M131.5 95.5L130.5 83.25M130.5 83.25L129.5 70.5L148.5 71.5L138 77L148.5 82L130.5 83.25Z" stroke="#08124F" stroke-width="2.6" stroke-linecap="round" stroke-linejoin="round"/>
  <path d="M112.5 142C114.972 143.374 120 141.5 120 141.5C120 141.5 115.534 129.332 110.716 120C107.803 114.357 105.5 109.5 102.5 109.5C100.746 109.5 99 110 94.3447 119C89.1722 129 84 138.469 84 140C84 143 89 139.429 93 140C96.5 140.5 98 143.5 102 142.5C106.339 141.415 108 139.5 112.5 142Z" fill="white" stroke="#08124F" stroke-width="2.6" stroke-linecap="round" stroke-linejoin="round"/>
  <path d="M94 120C95.5 118.5 98.9 115.9 100.5 119.5C102.1 123.1 106.833 119.333 109 117" stroke="#08124F" stroke-width="2.6" stroke-linecap="round" stroke-linejoin="round"/>
  <path d="M131.5 96.0001C119.9 97.2001 101.333 151.167 93.5 178C94.5 179.5 98 181.3 102 180.5C107 179.5 112.5 179 115.5 180.5C118.5 182 124.5 183 128 181.5C131.5 180 134 179.5 140 181.5C145.303 183.268 146 183 152.5 180.5C159 178 159.134 178.409 163.5 179.5C167.5 180.5 172.443 179.5 168.5 173.5C157 156 146 94.5001 131.5 96.0001Z" fill="white"/>
  <path d="M131.5 96.0001C119.9 97.2001 101.333 151.167 93.5 178C94.5 179.5 98 181.3 102 180.5C107 179.5 112.5 179 115.5 180.5C118.5 182 124.5 183 128 181.5C131.5 180 134 179.5 140 181.5C145.303 183.268 146 183 152.5 180.5C159 178 159.134 178.409 163.5 179.5C167.5 180.5 172.443 179.5 168.5 173.5C157 156 146 94.5001 131.5 96.0001Z" stroke="#08124F" stroke-width="2.6" stroke-linecap="round" stroke-linejoin="round"/>
  <path d="M114 121C116.667 116.834 122.8 110.6 128 119C133.2 127.4 140 114.5 147 117" stroke="#08124F" stroke-width="2.6" stroke-linecap="round" stroke-linejoin="round"/>
  <defs>
    <filter id="filter0_d_1117_20743" x="27" y="13" width="215.556" height="295.202" filterUnits="userSpaceOnUse" color-interpolation-filters="sRGB">
      <feFlood flood-opacity="0" result="BackgroundImageFix"/>
      <feColorMatrix in="SourceAlpha" type="matrix" values="0 0 0 0 0 0 0 0 0 0 0 0 0 0 0 0 0 0 127 0" result="hardAlpha"/>
      <feOffset dy="6"/>
      <feGaussianBlur stdDeviation="5"/>
      <feComposite in2="hardAlpha" operator="out"/>
      <feColorMatrix type="matrix" values="0 0 0 0 0.0313726 0 0 0 0 0.0705882 0 0 0 0 0.309804 0 0 0 0.25 0"/>
      <feBlend mode="normal" in2="BackgroundImageFix" result="effect1_dropShadow_1117_20743"/>
      <feBlend mode="normal" in="SourceGraphic" in2="effect1_dropShadow_1117_20743" result="shape"/>
    </filter>
  </defs>
</svg>
