<svg width="300" height="304" viewBox="0 0 300 304" fill="none" xmlns="http://www.w3.org/2000/svg">
  <g filter="url(#filter0_d_1077_2468)">
    <path d="M223.341 197.06H207.149C224.006 184.066 236.123 165.868 241.628 145.28C245.722 142.261 249.046 138.315 251.327 133.763C253.609 129.211 254.784 124.183 254.757 119.089C254.73 113.995 253.501 108.979 251.171 104.452C248.84 99.9249 245.475 96.0145 241.349 93.0399C230.045 52.5699 193.62 22.9399 150.421 22.9399C106.992 22.9399 70.3977 52.9399 59.3136 93.7199C54.8558 96.7085 51.2124 100.765 48.7134 105.521C46.2144 110.277 44.9388 115.583 45.0023 120.958C45.0657 126.333 46.466 131.608 49.0765 136.303C51.687 140.999 55.4251 144.968 59.9521 147.85C65.7535 167.406 77.565 184.627 93.7033 197.06H76.0446C68.9004 197.06 62.0488 199.905 56.9971 204.968C51.9454 210.032 49.1074 216.899 49.1074 224.06C49.1074 231.221 51.9454 238.088 56.9971 243.152C62.0488 248.215 68.9004 251.06 76.0446 251.06H99.0808C98.9369 252.164 98.8635 253.276 98.8613 254.39C98.864 260.976 101.476 267.292 106.123 271.948C110.771 276.604 117.073 279.22 123.643 279.22H175.742C182.312 279.22 188.613 276.604 193.259 271.947C197.904 267.291 200.514 260.975 200.514 254.39C200.517 253.276 200.444 252.164 200.295 251.06H223.341C230.485 251.06 237.337 248.215 242.388 243.152C247.44 238.088 250.278 231.221 250.278 224.06C250.278 216.899 247.44 210.032 242.388 204.968C237.337 199.905 230.485 197.06 223.341 197.06Z" fill="white"/>
    <path d="M76.0446 255.06H94.8693C95.0433 262.462 98.0534 269.525 103.292 274.774C108.689 280.181 116.009 283.22 123.643 283.22H175.742C183.376 283.22 190.695 280.18 196.09 274.773C201.327 269.523 204.335 262.461 204.506 255.06H223.341C231.549 255.06 239.419 251.792 245.22 245.977C251.021 240.163 254.278 232.279 254.278 224.06C254.278 215.841 251.021 207.957 245.22 202.143C239.419 196.328 231.549 193.06 223.341 193.06H217.91C230.814 180.655 240.237 164.987 245.13 147.633C249.216 144.365 252.552 140.246 254.903 135.555C257.467 130.44 258.787 124.791 258.757 119.067C258.726 113.344 257.346 107.709 254.727 102.621C252.326 97.9562 248.946 93.873 244.825 90.6489C232.65 49.2216 195.044 18.9399 150.421 18.9399C105.586 18.9399 67.8277 49.5608 55.846 91.267C51.398 94.5265 47.7452 98.7637 45.1724 103.66C42.3644 109.005 40.9313 114.967 41.0025 121.006C41.0738 127.044 42.6471 132.971 45.5804 138.247C48.2678 143.081 52.0191 147.23 56.5424 150.383C61.6271 166.658 70.7288 181.326 82.9384 193.06H76.0446C67.8365 193.06 59.9665 196.328 54.1654 202.143C48.3646 207.957 45.1074 215.841 45.1074 224.06C45.1074 232.279 48.3646 240.163 54.1654 245.977C59.9665 251.792 67.8365 255.06 76.0446 255.06ZM204.514 254.395C204.517 253.28 204.454 252.167 204.326 251.06H223.341C230.485 251.06 237.337 248.215 242.388 243.152C247.44 238.088 250.278 231.221 250.278 224.06C250.278 216.899 247.44 210.032 242.388 204.968C237.337 199.905 230.485 197.06 223.341 197.06H213.495L204.514 254.395Z" stroke="white" stroke-width="8" stroke-linecap="round" stroke-linejoin="round"/>
  </g>
  <path d="M223.341 197.06H207.149C224.006 184.066 236.123 165.868 241.628 145.28C245.722 142.261 249.046 138.315 251.327 133.763C253.609 129.211 254.784 124.183 254.757 119.089C254.73 113.995 253.501 108.979 251.171 104.452C248.84 99.9249 245.475 96.0145 241.349 93.0399C230.045 52.5699 193.62 22.9399 150.421 22.9399C106.992 22.9399 70.3977 52.9399 59.3136 93.7199C54.8558 96.7085 51.2124 100.765 48.7134 105.521C46.2144 110.277 44.9388 115.583 45.0023 120.958C45.0657 126.333 46.466 131.608 49.0765 136.303C51.687 140.999 55.4251 144.968 59.9521 147.85C65.7535 167.406 77.565 184.627 93.7033 197.06H76.0446C68.9004 197.06 62.0488 199.905 56.9971 204.968C51.9454 210.032 49.1074 216.899 49.1074 224.06C49.1074 231.221 51.9454 238.088 56.9971 243.152C62.0488 248.215 68.9004 251.06 76.0446 251.06H99.0808C98.9369 252.164 98.8635 253.276 98.8613 254.39C98.8639 260.976 101.476 267.292 106.123 271.948C110.771 276.604 117.073 279.22 123.643 279.22H175.742C182.312 279.22 188.613 276.604 193.259 271.947C197.904 267.291 200.514 260.975 200.514 254.39C200.517 253.276 200.444 252.164 200.295 251.06H223.341C230.485 251.06 237.337 248.215 242.388 243.152C247.44 238.088 250.278 231.221 250.278 224.06C250.278 216.899 247.44 210.032 242.388 204.968C237.337 199.905 230.485 197.06 223.341 197.06Z" fill="#F8F8FF"/>
  <path d="M242.7 146.1C246.8 143 250.1 139 252.4 134.4C254.7 129.7 256 124.5 255.9 119.2C255.9 114 254.6 108.7 252.2 104.1C249.9 99.6 246.5 95.6 242.4 92.5C230.6 51 192.9 22 150.5 22C107.8 22 70.0001 51.3 58.5001 93.2C54.1001 96.3 50.4001 100.4 47.9001 105.2C45.3001 110.1 44.0001 115.6 44.1001 121.2C44.2001 126.7 45.6001 132.2 48.3001 137.1C50.9001 141.8 54.7001 145.9 59.2001 148.8C64.8001 167.5 75.7001 183.8 90.7001 196.2H76.1001C68.6001 196.2 61.6001 199.1 56.3001 204.4C51.0001 209.7 48.1001 216.8 48.1001 224.3C48.1001 231.8 51.0001 238.9 56.3001 244.2C61.6001 249.5 68.6001 252.4 76.1001 252.4H98.0001C97.9001 253.1 97.9001 253.9 97.9001 254.6C97.9001 261.5 100.6 268 105.5 272.9C110.4 277.8 116.9 280.5 123.8 280.5H175.9C182.8 280.5 189.3 277.8 194.2 272.9C199.1 268 201.8 261.5 201.8 254.6C201.8 253.9 201.8 253.1 201.7 252.4H223.5C231 252.4 238 249.5 243.3 244.2C248.6 238.9 251.5 231.8 251.5 224.3C251.5 216.8 248.6 209.7 243.3 204.4C238 199.1 231 196.2 223.5 196.2H210.5C226 183.3 237.4 165.6 242.7 146.1ZM206.6 196.3C206.2 196.6 206.1 197.1 206.2 197.5C206.4 197.9 206.8 198.2 207.2 198.2H223.4C230.3 198.2 236.8 200.9 241.7 205.8C246.6 210.7 249.3 217.2 249.3 224.1C249.3 231 246.6 237.5 241.7 242.4C236.8 247.3 230.3 250 223.4 250H200.4C200.1 250 199.8 250.1 199.6 250.4C199.4 250.7 199.3 251 199.3 251.3C199.4 252.3 199.5 253.4 199.5 254.5C199.5 260.8 197 266.8 192.6 271.3C188.1 275.8 182.2 278.3 175.9 278.3H123.7C117.4 278.3 111.4 275.8 107 271.4C102.6 267 100.1 261 100.1 254.6C100.1 253.5 100.2 252.5 100.3 251.4C100.3 251.1 100.2 250.8 100 250.5C99.8001 250.3 99.5001 250.1 99.2001 250.1H76.2001C69.3001 250.1 62.8001 247.4 57.9001 242.5C53.0001 237.6 50.3001 231.1 50.3001 224.2C50.3001 217.3 53.0001 210.8 57.9001 205.9C62.8001 201 69.3001 198.3 76.2001 198.3H93.9001C94.4001 198.3 94.8001 198 94.9001 197.6C95.1001 197.2 94.9001 196.7 94.5001 196.4C78.4001 184 66.9001 167.2 61.1001 147.7C61.0001 147.4 60.9001 147.2 60.6001 147.1C56.2001 144.3 52.6001 140.5 50.1001 135.9C47.6001 131.4 46.2001 126.3 46.2001 121.1C46.1001 115.9 47.4001 110.8 49.8001 106.2C52.2001 101.6 55.7001 97.7 60.0001 94.8C60.2001 94.7 60.4001 94.4 60.4001 94.2C71.6001 53 108.6 24.2 150.4 24.2C191.9 24.2 228.9 52.7 240.3 93.5C240.4 93.7 240.5 94 240.7 94.1C244.7 97 247.9 100.8 250.2 105.1C252.4 109.5 253.6 114.3 253.7 119.2C253.7 124.1 252.6 129 250.4 133.4C248.2 137.8 245 141.6 241 144.5C240.8 144.6 240.7 144.9 240.6 145.1C235.3 165.4 223.1 183.6 206.6 196.3Z" fill="#08124F"/>
  <path d="M60.6502 125.35H63.1536V115.777H66.0626V113.362H57.7412V115.777H60.6502V125.35Z" fill="#08124F"/>
  <path d="M66.751 119.356C66.751 122.864 69.4131 125.544 72.9215 125.544C76.4298 125.544 79.092 122.864 79.092 119.356C79.092 115.847 76.4298 113.168 72.9215 113.168C69.4131 113.168 66.751 115.847 66.751 119.356ZM69.3249 119.356C69.3249 117.328 70.8764 115.671 72.9215 115.671C74.9489 115.671 76.5004 117.328 76.5004 119.356C76.5004 121.401 74.9489 123.041 72.9215 123.041C70.8764 123.041 69.3249 121.401 69.3249 119.356Z" fill="#08124F"/>
  <path d="M78.3398 82.9551L96.6635 89.5694L99.8324 85.2363L93.6121 76.3809L104.065 79.4488L107.212 75.146L95.4255 59.5928L92.3009 63.8653L100.409 73.828L87.8245 69.9861L84.8328 74.0768L87.4219 74.861L93.4284 83.3729L81.4645 78.6826L78.3398 82.9551Z" fill="#08124F"/>
  <path fill-rule="evenodd" clip-rule="evenodd" d="M77.9482 83.0745L81.3776 78.3854L92.7566 82.8464L87.27 75.0712L84.4303 74.2111L87.729 69.7007L99.7106 73.3586L91.9909 63.873L95.4213 59.1825L107.517 75.1434L104.16 79.7323L94.2144 76.8132L100.133 85.2392L96.7521 89.8621L77.9482 83.0745ZM78.7301 82.8354L96.5735 89.2764L99.5304 85.2332L93.0084 75.9483L103.968 79.165L106.906 75.1483L95.4284 60.0028L92.6095 63.8573L101.106 74.2972L87.9187 70.2713L85.234 73.9422L87.5725 74.6505L94.0988 83.8992L81.55 78.9796L78.7301 82.8354Z" fill="#08124F"/>
  <path d="M121.225 55.9798C121.047 55.3866 120.638 54.4062 120.235 53.7287C117.759 49.5668 112.819 47.7966 108.179 50.5702C103.539 53.3438 102.324 59.0119 105.126 63.7223C108.101 68.723 113.628 70.0112 118.397 67.1605C120.717 65.7737 122.472 64.0248 123.449 62.4353L120.935 58.2089C120.041 60.0112 118.389 61.7862 116.391 62.9803C114.136 64.3286 111.814 64.0979 110.334 62.4901L121.225 55.9798ZM110.315 54.2352C112.184 53.118 114.241 53.419 115.285 55.0259L108.357 59.167C107.68 57.5158 108.382 55.3908 110.315 54.2352Z" fill="#08124F"/>
  <path fill-rule="evenodd" clip-rule="evenodd" d="M104.916 63.8479C102.05 59.0312 103.287 53.2084 108.053 50.3595C112.822 47.5085 117.908 49.3386 120.445 53.6029C120.859 54.2992 121.275 55.2983 121.459 55.9089L121.514 56.0922L110.727 62.54C112.118 63.8494 114.197 64.0063 116.265 62.7697C118.226 61.5975 119.844 59.8564 120.715 58.0999L120.915 57.6969L123.735 62.437L123.657 62.5636C122.657 64.1921 120.87 65.9673 118.522 67.371C116.087 68.8267 113.447 69.2314 111.029 68.6234C108.61 68.0154 106.433 66.3992 104.916 63.8479ZM108.303 50.7807C103.789 53.479 102.597 58.9924 105.336 63.5965C106.793 66.046 108.867 67.5742 111.148 68.1477C113.43 68.7214 115.938 68.3448 118.272 66.9499C120.502 65.6167 122.195 63.9497 123.162 62.4322L120.947 58.7098C119.996 60.4192 118.406 62.0608 116.516 63.1908C114.183 64.5856 111.728 64.3666 110.153 62.6564L109.949 62.4343L120.932 55.869C120.738 55.2873 120.377 54.4478 120.024 53.8543C117.609 49.7947 112.814 48.0845 108.303 50.7807ZM108.487 58.8035L114.931 54.9512C113.938 53.6627 112.138 53.4307 110.44 54.4456C108.703 55.4838 108.037 57.3204 108.487 58.8035ZM108.13 59.2602C107.401 57.4815 108.167 55.2336 110.189 54.0245C112.142 52.8576 114.357 53.1478 115.489 54.8919L115.628 55.1056L108.238 59.5233L108.13 59.2602Z" fill="#08124F"/>
  <path d="M125.213 34.5087L120.301 36.033L127.942 60.7829L132.854 59.2586L125.213 34.5087Z" fill="#08124F"/>
  <path fill-rule="evenodd" clip-rule="evenodd" d="M119.995 35.8713L125.375 34.2019L133.161 59.42L127.781 61.0894L119.995 35.8713ZM120.608 36.1943L128.104 60.476L132.548 59.097L125.052 34.8153L120.608 36.1943Z" fill="#08124F"/>
  <path d="M150.244 51.1757C149.373 51.9657 147.933 52.6926 146.255 52.839C143.532 53.0765 141.405 51.0825 141.182 48.509C140.959 45.9355 142.714 43.6404 145.437 43.4029C147.152 43.2532 148.621 43.7263 149.649 44.3131L149.184 38.9424C148.094 38.5113 146.238 38.3351 145.007 38.4424C139.114 38.9565 135.56 43.4753 136.036 48.958C136.508 54.4033 140.792 58.3135 146.685 57.7995C147.953 57.6888 149.714 57.197 150.709 56.5464L150.244 51.1757Z" fill="#08124F"/>
  <path fill-rule="evenodd" clip-rule="evenodd" d="M135.792 48.9792C135.305 43.364 138.957 38.725 144.986 38.199C146.242 38.0894 148.139 38.2664 149.273 38.7152L149.414 38.7707L149.933 44.7564L149.528 44.5253C148.536 43.9592 147.116 43.5016 145.458 43.6463C142.877 43.8714 141.213 46.041 141.425 48.4878C141.638 50.9371 143.655 52.8205 146.233 52.5956C147.858 52.4539 149.248 51.7495 150.08 50.9948L150.445 50.6638L150.965 56.671L150.843 56.751C149.803 57.4303 147.999 57.93 146.706 58.0429C140.675 58.569 136.275 54.5552 135.792 48.9792ZM145.028 38.6858C139.271 39.188 135.815 43.5867 136.279 48.9367C136.739 54.2514 140.909 58.0581 146.663 57.5561C147.854 57.4522 149.482 57.0033 150.453 56.4188L150.041 51.6612C149.122 52.3597 147.792 52.9501 146.276 53.0824C143.409 53.3325 141.173 51.2279 140.939 48.5302C140.705 45.83 142.551 43.4094 145.416 43.1595C146.975 43.0235 148.337 43.3853 149.367 43.8878L148.953 39.1172C147.893 38.7416 146.18 38.5853 145.028 38.6858Z" fill="#08124F"/>
  <path d="M154.972 47.4419C153.769 52.7891 156.968 57.8988 162.314 59.1062C167.66 60.3136 172.737 57.0728 173.94 51.7256C175.143 46.3783 171.936 41.3053 166.589 40.0979C161.243 38.8905 156.175 42.0947 154.972 47.4419ZM160.025 48.5831C160.593 46.056 162.967 44.3984 165.494 44.969C168.057 45.5479 169.418 48.049 168.85 50.5761C168.281 53.1032 165.973 54.814 163.409 54.2351C160.883 53.6645 159.457 51.1102 160.025 48.5831Z" fill="#08124F"/>
  <path fill-rule="evenodd" clip-rule="evenodd" d="M154.732 47.388C155.965 41.9087 161.165 38.6217 166.643 39.8589C172.121 41.0961 175.411 46.3003 174.178 51.7796C172.946 57.2576 167.739 60.5827 162.26 59.3453C156.78 58.1078 153.5 52.866 154.732 47.388ZM166.535 40.337C161.321 39.1594 156.383 42.2807 155.21 47.4959C154.037 52.7123 157.154 57.6899 162.367 58.8672C167.58 60.0445 172.527 56.8881 173.7 51.6716C174.874 46.4564 171.75 41.5145 166.535 40.337ZM165.44 45.2081C163.058 44.6701 160.805 46.2292 160.264 48.6371C159.721 51.0476 161.083 53.4587 163.463 53.9961C165.876 54.541 168.067 52.9367 168.611 50.5222C169.153 48.1102 167.855 45.7535 165.44 45.2081ZM159.786 48.5292C160.381 45.8829 162.876 44.1268 165.547 44.73C168.259 45.3424 169.683 47.9879 169.089 50.6301C168.495 53.2698 166.069 55.087 163.355 54.4742C160.682 53.8704 159.191 51.1729 159.786 48.5292Z" fill="#08124F"/>
  <path d="M189.524 48.9642L185.443 45.8584L174.103 60.8245L178.184 63.9303L184.856 55.1249C186.13 53.6307 187.773 53.4599 189.213 54.5561C190.653 55.6522 190.862 57.3747 189.587 59.0577L183.074 67.6527L187.154 70.7584L193.667 62.1634C194.942 60.4805 196.714 60.2652 198.184 61.3842C199.624 62.4804 199.832 64.2029 198.557 65.8858L192.045 74.4808L196.125 77.5866L203.526 67.8195C205.962 64.6039 205.442 60.6072 202.562 58.4149C200.312 56.7021 197.984 56.778 196.103 57.7626C196.583 55.3801 195.662 53.1624 193.562 51.5639C191.791 50.2165 189.871 50.1289 188.18 50.7373L189.524 48.9642Z" fill="#08124F"/>
  <path fill-rule="evenodd" clip-rule="evenodd" d="M188.829 50.2885C190.401 49.9217 192.117 50.155 193.71 51.3677C195.738 52.9108 196.716 55.0325 196.422 57.3366C198.3 56.5177 200.548 56.5724 202.711 58.2187C205.709 60.5004 206.233 64.6542 203.722 67.9685L196.173 77.9317L191.701 74.5279L198.362 65.7367C198.972 64.932 199.21 64.1404 199.144 63.4378C199.079 62.7379 198.709 62.0928 198.035 61.5803C197.345 61.0552 196.601 60.854 195.891 60.9664C195.18 61.0789 194.47 61.5109 193.863 62.3124L187.202 71.1036L182.73 67.6997L189.391 58.9086C190.001 58.1038 190.239 57.3123 190.174 56.6096C190.108 55.9098 189.738 55.2646 189.065 54.7521C188.386 54.2359 187.678 54.0302 187.002 54.1136C186.327 54.1968 185.652 54.5723 185.047 55.2796L178.231 64.2754L173.759 60.8716L185.396 45.5132L189.868 48.917L188.829 50.2885ZM193.413 51.76C191.718 50.4693 189.886 50.3852 188.264 50.9691L187.483 51.2498L189.179 49.0112L185.491 46.2035L174.448 60.7774L178.137 63.5851L184.664 54.9702L184.669 54.9648C185.337 54.1814 186.119 53.7261 186.942 53.6246C187.766 53.5229 188.6 53.78 189.362 54.3599C190.129 54.9435 190.583 55.7077 190.663 56.5639C190.743 57.4173 190.448 58.3285 189.783 59.2067L183.419 67.6055L187.108 70.4132L193.471 62.0143C194.139 61.133 194.953 60.6159 195.814 60.4797C196.676 60.3434 197.552 60.5942 198.333 61.188C199.099 61.7717 199.554 62.5359 199.634 63.3921C199.714 64.2454 199.419 65.1566 198.753 66.0348L192.39 74.4337L196.078 77.2414L203.33 67.6704C205.692 64.5535 205.177 60.7138 202.414 58.611C200.245 56.9603 198.02 57.037 196.217 57.9809L195.76 58.2201L195.862 57.7136C196.322 55.4349 195.448 53.3086 193.413 51.76Z" fill="#08124F"/>
  <path d="M212.034 91.4208C212.634 91.2574 213.629 90.8725 214.32 90.4851C218.565 88.1051 220.483 83.1803 217.836 78.436C215.189 73.6918 209.54 72.3173 204.736 75.0109C199.635 77.8706 198.183 83.399 200.904 88.2751C202.227 90.6472 203.93 92.4605 205.496 93.4858L209.807 91.0689C208.025 90.1214 206.293 88.4108 205.153 86.3681C203.867 84.0619 204.165 81.7319 205.82 80.285L212.034 91.4208ZM214.099 80.4879C215.165 82.3988 214.804 84.4612 213.162 85.4681L209.21 78.3846C210.885 77.7481 212.996 78.5111 214.099 80.4879Z" fill="#08124F"/>
  <path fill-rule="evenodd" clip-rule="evenodd" d="M204.616 74.7959C209.529 72.0414 215.332 73.4427 218.051 78.3156C220.771 83.1923 218.789 88.2615 214.439 90.7001C213.729 91.0983 212.715 91.4904 212.098 91.6585L211.912 91.709L205.759 80.68C204.405 82.0451 204.188 84.1324 205.368 86.2477C206.487 88.2527 208.186 89.9277 209.922 90.8512L210.321 91.0631L205.486 93.7738L205.361 93.6921C203.757 92.6417 202.028 90.7964 200.689 88.3954C199.299 85.9054 198.97 83.2374 199.65 80.8203C200.329 78.4027 202.013 76.2549 204.616 74.7959ZM217.621 78.5564C215.046 73.9408 209.552 72.5931 204.855 75.2259C202.357 76.6267 200.765 78.6729 200.123 80.9534C199.482 83.2344 199.787 85.7686 201.118 88.1546C202.391 90.435 204.013 92.1832 205.507 93.1972L209.304 91.0685C207.617 90.0658 206.017 88.4214 204.939 86.4885C203.607 84.1027 203.898 81.6385 205.659 80.0993L205.887 79.8995L212.153 91.1296C212.742 90.9496 213.594 90.6095 214.2 90.2701C218.34 87.9486 220.194 83.1682 217.621 78.5564ZM209.571 78.5256L213.247 85.115C214.568 84.1501 214.853 82.3443 213.884 80.6083C212.893 78.8324 211.071 78.1125 209.571 78.5256ZM209.123 78.1542C210.928 77.4685 213.16 78.2993 214.314 80.3675C215.427 82.3634 215.072 84.5853 213.29 85.6782L213.072 85.8121L208.856 78.2556L209.123 78.1542Z" fill="#08124F"/>
  <path d="M189.13 132.03C177.068 139.15 217.783 220.72 136.254 200.5C94.6906 190.19 76.5828 149.24 113.467 136.72C147.008 125.32 111.95 104.53 147.457 85.3099C180.6 67.3899 224.039 111.4 189.13 132.03Z" fill="#AAB2FF"/>
  <path fill-rule="evenodd" clip-rule="evenodd" d="M130.024 243.087C123.698 243.087 118.893 247.925 118.893 254.25C118.893 260.574 123.698 265.412 130.024 265.412C131.804 265.412 133.488 264.999 134.951 264.299L135.093 264.232V258.481L134.677 258.851C133.606 259.803 131.925 260.497 130.024 260.497C126.533 260.497 123.932 257.727 123.932 254.25C123.932 250.803 126.564 248.002 130.024 248.002C131.921 248.002 133.542 248.694 134.679 249.681L135.093 250.041V244.268L134.951 244.2C133.488 243.5 131.804 243.087 130.024 243.087ZM142.493 243.118H137.734V265.07H142.493V243.118ZM167.51 243.118H162.782V265.07H167.51V263.52C168.615 264.697 170.188 265.412 172.048 265.412C176.534 265.412 179.636 261.728 179.636 257.079C179.636 252.428 176.533 248.776 172.017 248.776C170.186 248.776 168.616 249.467 167.51 250.639V243.118ZM150.203 249.087H145.475V259.348C145.475 261.065 146.029 262.581 147.021 263.671C148.014 264.763 149.435 265.412 151.134 265.412C152.841 265.412 154.107 264.732 154.957 263.693V265.07H159.685V249.087H154.957V258.346C154.912 259.104 154.658 259.708 154.255 260.122C153.852 260.535 153.282 260.777 152.565 260.777C151.819 260.777 151.237 260.514 150.839 260.068C150.438 259.619 150.203 258.96 150.203 258.136V249.087ZM167.51 257.079C167.51 255.097 169.051 253.442 171.147 253.442C173.207 253.442 174.721 255.093 174.721 257.079C174.721 259.067 173.204 260.746 171.147 260.746C169.054 260.746 167.51 259.063 167.51 257.079Z" fill="#08124F"/>
  <path fill-rule="evenodd" clip-rule="evenodd" d="M135.9 217.9V228C135.9 230.5 136.6 231.5 138.7 232.5L138.8 232.6V234H130.8V232.6L130.9 232.5C132.7 231.6 133.6 230.7 133.6 228V218.8C133.6 215.6 132.8 214.5 131.3 213.5L131.2 213.4V212.1L135.5 210H136.8L136.7 210.3L136.644 210.616C136.342 212.315 135.9 214.798 135.9 217.9ZM125.8 216.3C127.3 216.3 128.4 215.3 128.4 213.8C128.4 212.4 127.3 211.3 125.8 211.3C124.3 211.3 123.2 212.4 123.2 213.8C123.3 215.1 124.5 216.3 125.8 216.3ZM68 211.7H87.8L89.3 218.2L88.2 218.6L88.1 218.5C86.2 216.3 84.3 215.2 82 215.2H79C76.3 215.2 74.5 216.8 74.5 219.3V221.1H78.7C81.1 221.1 82.1 221.1 83.2 218.8L83.3 218.7H84.5V226.4H83.3L83.2 226.3C82.2 224.2 81 224 78.7 224H74.6V226.6C74.6 230 76.2 231.3 79.4 232.5L79.5 232.6V234H68V232.6H68.1C70.5 231.5 72.1 230.2 72.1 227V218.8C72.1 215.6 70.6 214.3 68.1 213.2L68 213.1V211.7ZM102.8 224.5V226.5C102.8 229.5 103.4 230.9 105 231.7H105.2V233L102.6 234.5H101.4L101.3 234.4C100.9 233.8 100.7 232.9 100.6 232C99.1001 233.7 97.4001 234.5 95.1001 234.5C91.6001 234.5 89.1001 232.4 89.1001 229.6C89.1001 226.6 91.8001 224.5 95.7001 224.5C98.1001 224.5 99.6001 225.3 100.5 226V224.9C100.5 222.8 98.6001 221.8 96.7001 221.8C94.9001 221.8 93.5001 222.6 92.4001 224.2L92.3001 224.3H91.5001L89.1001 222.2L89.2001 222C90.8001 219.8 93.5001 218.4 96.4001 218.4C100.4 218.4 102.8 220.7 102.8 224.5ZM100.5 228.4C99.4001 227.5 98.1001 227 95.7001 227C93.4001 227 91.5001 227.9 91.5001 229C91.5001 230.2 93.1001 231 95.4001 231C97.8001 231 99.7001 230 100.5 229.2V228.4ZM113.5 222.4C115.7 222.4 117.3 223.5 117.8 225.3V225.5H118.8L121.1 222.2V222C119.9 219.8 117.3 218.4 114.5 218.4C109.6 218.4 106.2 221.8 106.2 226.6C106.2 231.2 109.5 234.5 114.1 234.5C117.5 234.5 119.9 232.6 121 229.2V229.1L120.2 228.4L120 228.5C118.2 230 116.4 230.8 114.2 230.8C111.4 230.8 108.5 229.5 108.5 226.6C108.5 223.8 111.1 222.4 113.5 222.4ZM127.2 226.3V228C127.2 230.5 127.8 231.5 129.9 232.5L130 232.6V234H122V232.6L122.1 232.5C124.1 231.5 124.8 230.4 124.8 228V226.4C124.8 223.9 123.8 222.8 122.1 221.9L122 221.8V220.5L126.5 218.4H127.8L127.7 218.7C127.3 220.5 127.2 222.7 127.2 226.3ZM144.7 228V226.3C144.7 222.7 144.8 220.5 145.2 218.7L145.3 218.4H144L139.6 220.5V221.8L139.7 221.9C141.4 222.8 142.4 223.9 142.4 226.4V228C142.4 230.4 141.7 231.5 139.7 232.5L139.6 232.6V234H147.6V232.6L147.5 232.5C145.3 231.5 144.7 230.5 144.7 228ZM145.9 213.8C145.9 215.3 144.8 216.3 143.3 216.3C142 216.3 140.8 215.1 140.7 213.8C140.7 212.4 141.8 211.3 143.3 211.3C144.8 211.3 145.9 212.4 145.9 213.8ZM157.6 229.2C157.3 230.2 156.8 230.7 155.9 230.7C154.6 230.7 153.8 229.7 153.8 228.2V225.5C153.8 222.7 155.4 221 158.6 220.4H158.8V218.9H154.3V213.9H152.9V214.1C152.3 216.3 151.3 218.6 148.4 218.9H148.2V220.3H148.4C150.5 220.6 151.4 222.2 151.4 225.6V229.7C151.4 232.6 152.9 234.4 155.3 234.4C157.6 234.4 159 232.5 159.1 229.2V229H157.7L157.6 229.2ZM167.1 218.4C171.1 218.4 173.5 220.7 173.5 224.5V226.5C173.5 229.5 174.1 230.9 175.8 231.6L175.9 231.7V233L173.3 234.5H172.1L172 234.4C171.6 233.8 171.4 232.9 171.3 232C169.8 233.7 168.1 234.5 165.8 234.5C162.3 234.5 159.8 232.4 159.8 229.6C159.8 226.6 162.5 224.5 166.4 224.5C168.8 224.5 170.3 225.3 171.2 226V224.9C171.2 222.8 169.3 221.8 167.4 221.8C165.6 221.8 164.2 222.6 163.1 224.2L163 224.3H162.2L159.8 222.2L159.9 222C161.5 219.8 164.2 218.4 167.1 218.4ZM171.3 228.4C170.2 227.5 168.9 227 166.5 227C164.1 227 162.3 227.9 162.3 229.1C162.3 230.3 163.9 231.1 166.2 231.1C168.6 231.1 170.5 230.1 171.3 229.2V228.4ZM185.4 229.2C185.1 230.2 184.6 230.7 183.7 230.7C182.4 230.7 181.6 229.7 181.6 228.2V225.5C181.6 222.7 183.2 221 186.4 220.4H186.6V218.9H182.1V213.9H180.7V214.1C180.1 216.3 179.1 218.6 176.2 218.9H176V220.3H176.2C178.3 220.6 179.2 222.2 179.2 225.6V229.7C179.2 232.6 180.7 234.4 183.1 234.4C185.4 234.4 186.8 232.5 186.9 229.2V229H185.5L185.4 229.2ZM187.8 226.4C187.8 221.8 191.4 218.4 196.1 218.4C200.8 218.4 204.4 221.9 204.4 226.4C204.4 231 200.8 234.5 196.1 234.5C191.3 234.5 187.8 231.1 187.8 226.4ZM190.2 226.4C190.2 228.9 192.6 230.7 196.1 230.7C199.6 230.7 202 229 202 226.4C202 223.9 199.6 222.2 196.1 222.2C192.6 222.2 190.2 223.9 190.2 226.4ZM219.3 220.6C218.7 219.2 217.2 218.4 215.4 218.4C213.8 218.4 212.2 219.3 210.8 221C210.861 220.694 210.913 220.398 210.961 220.122C211.07 219.496 211.161 218.978 211.3 218.7L211.4 218.4H209.9L205.7 220.5V221.8L205.8 221.9C207.4 222.9 208.2 223.9 208.2 226.5V228C208.2 230.6 207.1 231.7 205.5 232.5L205.4 232.6V234H213.9V232.6L213.8 232.5C211.7 231.4 210.5 230.3 210.5 228V224.5C211.4 223 212.9 222.3 213.9 222.3C214.8 222.3 215.4 222.6 215.9 223.9L216 224H217.3L219.5 220.6H219.3ZM223.1 223.4C223.1 224.6 225 224.9 227 225.2C230 225.7 233.6 226.3 233.5 229.6C233.5 232.3 231 234.3 227.4 234.3C224.9 234.3 223.2 233.4 222.2 232.8L221.8 233.9H220.4L219 228.1L220.3 227.5L220.4 227.6C222.3 229.8 224.6 230.8 227.6 230.8C229.3 230.8 230.4 230.3 230.4 229.4C230.4 228.1 228.4 227.7 226.3 227.4C223.3 226.9 219.9 226.3 219.9 222.9C219.9 220.2 222.4 218.3 225.8 218.3C227.3 218.3 228.6 218.7 229.6 219.4L230 218.3H231.4L233.3 223.9L232 224.5L231.9 224.4C230.3 222.7 228.6 221.9 226.2 221.9C224.2 221.9 223.1 222.7 223.1 223.4Z" fill="#08124F"/>
  <path d="M131.984 94.25C130.857 90.03 127.993 86.25 122.845 88.01C112.869 91.38 117.857 106.15 127.295 133.51C127.295 133.51 118.755 115.6 117.368 112.95C115.004 108.46 111.542 106.2 107.631 108.14C102.772 110.56 103.451 118.47 107.142 126.7C110.833 134.93 118.346 149.2 120.112 158.9C121.878 168.6 129.689 178.95 138.349 182.67C138.349 182.67 135.466 196.6 163.451 189.75C191.435 182.9 179.294 172.14 179.294 172.14C179.294 172.14 187.045 162.7 186.676 147.56C186.307 132.42 198.01 120.17 191.804 114.47C185.2 108.42 174.704 115.12 170.853 135.73C170.853 135.73 168.239 112.63 170.015 96.79C170.893 88.96 167.421 86.26 163.57 86.04C159.131 85.78 156.118 89.35 155.09 93.88C153.364 101.46 152.746 109.37 151.688 117.19C151.688 117.19 149.693 89.98 149.553 86.97C149.393 82.79 147.159 77.86 140.684 78.74C134.518 79.57 133.57 86.21 133.88 91.24C133.88 91.24 138.282 120.64 137.711 118.24C137.76 118.31 132.982 97.98 131.984 94.25Z" fill="white"/>
  <path d="M213.642 125.35H216.146V115.777H219.055V113.362H210.733V115.777H213.642V125.35Z" fill="#08124F"/>
  <path d="M228.711 125.35H231.214V113.362H228.711V118.104H223.228V113.362H220.725V125.35H223.228V120.519H228.711V125.35Z" fill="#08124F"/>
  <path d="M240.667 125.35V122.935H236.347V120.519H240.314V118.104H236.347V115.777H240.667V113.362H233.844V125.35H240.667Z" fill="#08124F"/>
  <path d="M213.594 151.74C217.897 151.74 221.385 148.243 221.385 143.93C221.385 139.617 217.897 136.12 213.594 136.12C209.29 136.12 205.802 139.617 205.802 143.93C205.802 148.243 209.29 151.74 213.594 151.74Z" fill="#818CFF"/>
  <path d="M84.3055 149.12C87.4351 149.12 89.9722 146.577 89.9722 143.44C89.9722 140.303 87.4351 137.76 84.3055 137.76C81.1758 137.76 78.6387 140.303 78.6387 143.44C78.6387 146.577 81.1758 149.12 84.3055 149.12Z" fill="#818CFF"/>
  <path fill-rule="evenodd" clip-rule="evenodd" d="M181.5 112.4C185.5 109.8 191.1 110.2 194 114.4C195.6 116.7 195.3 119.7 194.6 122.3C194.016 124.635 193.138 126.928 192.265 129.206L192.265 129.206C191.792 130.44 191.321 131.67 190.9 132.9C189.4 137.1 188.3 141.5 188.2 146C188.1 150.8 187.9 155.4 186.6 160C185.4 164 183.7 168.2 181.2 171.6C182.5 173.1 183.3 175 183.4 176.9C183.6 181.9 178.6 185.1 174.7 186.9C170.2 189 165.3 190.3 160.5 191.3C156.5 192.1 152.4 192.7 148.3 192.4C144.4 192.2 139.9 190.9 138 187.1C137.4 185.8 137 184.4 137.1 183C132.2 180.7 128.2 176.9 125.1 172.6C123.4 170.3 122 167.8 120.9 165.2C119.9 162.7 119.3 160.2 118.7 157.6C116.902 149.382 113.125 141.603 109.441 134.013L109.441 134.013L109.44 134.013L109.44 134.013L109.44 134.012L109.44 134.012L109.44 134.012L109.44 134.012L109.44 134.011L109.438 134.009C108.82 132.734 108.203 131.465 107.6 130.2C105.5 125.7 103.4 121.2 103 116.2C102.7 112.1 103.8 107.8 108 106.2C114 104 117.5 109.6 120 114.6C119.9 114.35 119.825 114.075 119.75 113.8C119.675 113.525 119.6 113.25 119.5 113C118.2 108.7 117 104.3 116.5 99.8C116.2 96.9 116.1 93.7 117.4 90.9C118.5 88.4 120.8 86.7 123.4 86.1C128.2 84.9 131.5 88.1 133 92.2C132.9 91.9 132.9 91.7 132.9 91.4C132.5 85.3 133.9 77.7 141.3 77C145 76.6 148.4 78.3 150 81.8C150.722 83.4849 150.929 85.2342 151.137 86.9962L151.138 86.9963C151.189 87.4303 151.24 87.8652 151.3 88.3C151.6 93.6 152 98.9 152.4 104.2C152.45 103.7 152.525 103.225 152.6 102.75L152.6 102.75C152.675 102.275 152.75 101.8 152.8 101.3C153.1 98.8 153.6 96.3 154.1 93.8C154.5 92 155 90.2 156.1 88.6C157.8 86.1 160.5 84.4 163.6 84.4C165.8 84.4 168 85.2 169.5 86.9C171.4 89.1 171.9 92.2 171.7 95.1C171.62 96.5 171.508 97.9 171.396 99.2999C171.228 101.4 171.06 103.5 171 105.6C170.8 113 171 120.5 171.7 127.9C172.5 125.3 173.5 122.7 174.8 120.3C176.4 117.3 178.6 114.3 181.5 112.4ZM189.992 128.079C190.767 126.042 191.546 123.99 192.1 121.9C192.7 119.8 193.2 117.2 191.8 115.3C188.9 111.9 184.4 112.9 181.5 115.5C176.1 120.4 173.8 128.5 172.5 135.5C172.2 137 170.1 136.5 170 135.2C169.6 131.9 169.3 128.5 169.1 125.2C168.6 119 168.4 112.8 168.5 106.6C168.5 103.4 168.7 100.2 169 97C169.3 94.3 169.6 91.1 167.9 88.8C166.7 87.2 164.6 86.6 162.7 86.8C159.8 87.2 157.9 89.6 157 92.2C155.748 95.5972 155.296 99.3141 154.857 102.922L154.856 102.926L154.856 102.93C154.804 103.355 154.752 103.779 154.7 104.2C154.539 105.55 154.389 106.9 154.239 108.246L154.239 108.247C153.922 111.09 153.607 113.918 153.2 116.7C153 118.3 150.8 118.3 150.7 116.7C150.55 114.65 150.4 112.575 150.25 110.5C150.1 108.425 149.95 106.35 149.8 104.3C149.4 99.1 149 93.8 148.7 88.6C148.687 88.3641 148.676 88.1281 148.666 87.8923L148.665 87.8918V87.8917C148.589 86.2292 148.513 84.5763 147.9 83C146.5 79.8 142.8 78.6 139.6 79.9C134.795 81.8218 135.254 88.3602 135.563 92.7724L135.563 92.7768C135.576 92.9548 135.588 93.1294 135.6 93.3C136.2 101.4 137.3 109.6 139.2 117.5C139.6 119.1 137.2 119.8 136.8 118.2C136.413 116.551 136.03 114.907 135.649 113.266L135.648 113.262L135.648 113.262C134.154 106.841 132.672 100.47 131 94.1C130.4 92 129.3 89.6 127.2 88.7C125.5 88 123.4 88.5 121.9 89.4C117.5 92 118.7 98.8 119.5 103C121.379 112.586 124.849 121.819 128.248 130.865C128.466 131.444 128.683 132.022 128.9 132.6C129.3 134 127.2 134.9 126.6 133.6C125.4 131.15 124.225 128.7 123.05 126.25C121.875 123.8 120.7 121.35 119.5 118.9C119 117.95 118.525 116.975 118.05 116C117.575 115.025 117.1 114.05 116.6 113.1C115.6 111.2 114.1 109.1 111.9 108.4C110.2 107.9 108.2 108.6 107.1 109.9C104.3 113.1 105.9 118.7 107.1 122.2C108.265 125.464 109.793 128.607 111.308 131.723L111.308 131.723C111.743 132.617 112.176 133.509 112.6 134.4C114.6 138.7 116.6 143.1 118.3 147.5C119.1 149.6 119.9 151.7 120.5 153.9C120.855 155.085 121.105 156.305 121.354 157.518L121.354 157.518L121.354 157.518C121.525 158.353 121.696 159.185 121.9 160C124.1 168.8 130.7 177.5 139.2 181.2C139.7 181.4 139.9 182.1 139.8 182.6V182.7V182.8V183.9V184.3V184.4C139.85 184.5 139.875 184.625 139.9 184.75C139.925 184.875 139.95 185 140 185.1C140.036 185.208 140.065 185.303 140.092 185.391C140.216 185.788 140.29 186.026 140.7 186.6C141.3 187.6 142.5 188.5 143.8 189C146.2 189.9 148.7 190.1 151.2 190C155.5 189.9 159.8 189 163.9 188C167.9 187 171.9 185.8 175.5 183.8C177.4 182.7 179.3 181.4 180.4 179.5C181 178.4 181.2 177.2 180.9 176.1C180.6 174.7 179.9 173.6 178.8 172.6C178.3 172.1 178.4 171.3 178.8 170.8C178.9 170.7 178.975 170.575 179.05 170.45C179.125 170.325 179.2 170.2 179.3 170.1L179.3 170.1L179.3 170.1L179.3 170.1L179.3 170.1L179.3 170.1L179.3 170.099L179.3 170.099L179.3 170.099L179.3 170.099C179.9 169.199 180.5 168.3 181 167.3C182.7 164 184 160.6 184.7 157C185.2 154.9 185.5 152.7 185.6 150.6C185.7 149.45 185.7 148.3 185.7 147.15C185.7 146 185.7 144.85 185.8 143.7C186.2 139.6 187.3 135.7 188.6 131.9C189.024 130.628 189.507 129.357 189.992 128.079ZM166.254 150.158C166.065 149.465 165.35 149.057 164.658 149.246C163.965 149.435 163.557 150.149 163.746 150.842C164.426 153.338 164.432 157.016 163.163 160.288C161.915 163.505 159.467 166.271 155.213 167.232C149.379 168.549 145.231 167.169 142.385 165.014C139.486 162.819 137.852 159.751 137.25 157.643C137.053 156.953 136.333 156.553 135.643 156.75C134.952 156.947 134.553 157.667 134.75 158.357C135.481 160.915 137.397 164.498 140.815 167.086C144.285 169.714 149.22 171.251 155.786 169.768C161.033 168.583 164.085 165.1 165.587 161.228C167.068 157.411 167.073 153.162 166.254 150.158ZM161.994 136.558C160.58 135.548 158.737 135.101 156.342 135.754C153.913 136.416 152.844 137.958 152.426 139.717C151.985 141.568 152.284 143.665 152.739 145.109C152.956 145.793 152.576 146.523 151.891 146.74C151.207 146.956 150.476 146.576 150.26 145.891C149.716 144.168 149.313 141.57 149.896 139.115C150.502 136.569 152.183 134.193 155.658 133.246C158.762 132.399 161.419 132.952 163.505 134.442C165.545 135.899 166.926 138.168 167.733 140.589C167.96 141.27 167.592 142.006 166.911 142.233C166.23 142.46 165.494 142.092 165.267 141.411C164.574 139.332 163.455 137.601 161.994 136.558ZM134.419 141.558C136.828 140.901 138.686 141.35 140.113 142.37C141.585 143.421 142.709 145.162 143.404 147.248C143.622 147.903 144.33 148.257 144.985 148.038C145.64 147.82 145.994 147.112 145.776 146.457C144.971 144.042 143.595 141.784 141.566 140.335C139.493 138.854 136.852 138.304 133.761 139.146C131.171 139.853 129.241 141.335 128.053 143.397C126.879 145.435 126.487 147.937 126.756 150.624C126.825 151.311 127.437 151.813 128.124 151.744C128.811 151.675 129.312 151.063 129.244 150.376C129.012 148.063 129.371 146.117 130.219 144.645C131.054 143.196 132.419 142.104 134.419 141.558ZM98.315 105.739C99.0115 105.913 99.435 106.619 99.2609 107.315C98.4656 110.496 97.54 118.778 100.22 126.051C100.468 126.724 100.123 127.472 99.4491 127.72C98.7754 127.968 98.028 127.623 97.7798 126.949C94.8593 119.022 95.8671 110.17 96.7385 106.685C96.9126 105.988 97.6184 105.565 98.315 105.739ZM94.7038 102.991C94.9747 102.326 94.6552 101.567 93.9903 101.296C93.3254 101.025 92.5668 101.345 92.2959 102.01C90.3661 106.746 88.1483 118.881 92.2757 130.437C92.5172 131.113 93.261 131.466 93.9372 131.224C94.6133 130.983 94.9657 130.239 94.7242 129.563C90.8516 118.719 92.9669 107.254 94.7038 102.991ZM106.335 151.71C107.047 151.62 107.698 152.123 107.789 152.835C108.272 156.619 109.808 162.803 112.839 168.91C115.873 175.021 120.342 180.933 126.622 184.359C127.253 184.703 127.485 185.492 127.141 186.122C126.797 186.753 126.008 186.985 125.377 186.641C118.458 182.867 113.677 176.445 110.51 170.065C107.341 163.68 105.727 157.214 105.21 153.165C105.119 152.452 105.623 151.801 106.335 151.71ZM102.737 163.102C102.518 162.419 101.786 162.043 101.102 162.262C100.418 162.482 100.042 163.214 100.262 163.898C101.05 166.349 102.75 170.096 105.06 173.79C107.363 177.47 110.351 181.225 113.763 183.571C114.355 183.978 115.164 183.828 115.571 183.237C115.978 182.645 115.828 181.836 115.236 181.429C112.249 179.375 109.487 175.963 107.264 172.411C105.05 168.87 103.45 165.318 102.737 163.102ZM195.713 141.718C196.422 141.836 196.9 142.506 196.782 143.214C195.777 149.245 193.055 162.484 188.18 173.045C187.879 173.697 187.107 173.981 186.455 173.68C185.803 173.38 185.519 172.607 185.819 171.955C190.545 161.716 193.223 148.755 194.217 142.786C194.335 142.078 195.005 141.6 195.713 141.718ZM202.789 144.165C202.88 143.452 202.377 142.801 201.664 142.71C200.952 142.62 200.301 143.123 200.21 143.835C199.718 147.693 198.555 154.104 196.674 160.733C194.786 167.387 192.209 174.132 188.939 178.749C188.524 179.334 188.663 180.146 189.248 180.561C189.834 180.976 190.646 180.837 191.061 180.251C194.591 175.268 197.264 168.18 199.175 161.442C201.094 154.68 202.282 148.141 202.789 144.165Z" fill="#08124F"/>
  <defs>
    <filter id="filter0_d_1077_2468" x="27" y="10.9399" width="245.758" height="292.28" filterUnits="userSpaceOnUse" color-interpolation-filters="sRGB">
      <feFlood flood-opacity="0" result="BackgroundImageFix"/>
      <feColorMatrix in="SourceAlpha" type="matrix" values="0 0 0 0 0 0 0 0 0 0 0 0 0 0 0 0 0 0 127 0" result="hardAlpha"/>
      <feOffset dy="6"/>
      <feGaussianBlur stdDeviation="5"/>
      <feComposite in2="hardAlpha" operator="out"/>
      <feColorMatrix type="matrix" values="0 0 0 0 0.0313726 0 0 0 0 0.0705882 0 0 0 0 0.309804 0 0 0 0.25 0"/>
      <feBlend mode="normal" in2="BackgroundImageFix" result="effect1_dropShadow_1077_2468"/>
      <feBlend mode="normal" in="SourceGraphic" in2="effect1_dropShadow_1077_2468" result="shape"/>
    </filter>
  </defs>
</svg>
