<svg width="300" height="300" viewBox="0 0 300 300" fill="none" xmlns="http://www.w3.org/2000/svg">
  <g filter="url(#filter0_d_1077_2469)">
    <path d="M245.004 111.685C253.124 90.9848 232.294 82.5749 232.294 82.5749C232.294 82.5749 234.564 66.2548 217.674 54.3648C180.184 27.9548 131.174 26.8148 96.2242 41.1648C61.2742 55.5148 39.3042 85.8648 31.4842 112.095C29.6642 118.185 27.8342 132.185 37.0142 141.305C37.0142 141.305 22.8642 158.305 42.3442 172.125C42.3442 172.125 23.0342 187.185 47.1742 220.285C78.6042 263.385 137.284 276.545 181.814 264.005C235.434 248.895 264.024 204.455 268.444 165.405C275.614 101.975 245.004 111.685 245.004 111.685Z" fill="white"/>
    <path d="M249.442 111.154C257.646 111.283 273.873 117.382 268.444 165.405C264.024 204.455 235.434 248.895 181.814 264.005C137.284 276.545 78.6042 263.385 47.1742 220.285M249.442 111.154L31.4842 112.095C29.6642 118.185 27.8342 132.185 37.0142 141.305C37.0142 141.305 24.523 156.312 39.17 169.589C39.0421 169.707 38.9001 169.843 38.7463 169.995C38.1451 170.591 37.3576 171.45 36.5151 172.58M249.442 111.154C249.882 109.797 250.215 108.475 250.45 107.19M249.442 111.154L250.45 107.19M47.1742 220.285C29.1761 195.606 35.3309 180.956 39.6279 175.099C38.4979 174.277 37.462 173.437 36.5151 172.58M47.1742 220.285L43.9423 222.642C43.9423 222.642 43.9424 222.642 43.9424 222.642M47.1742 220.285L43.9424 222.642M36.5151 172.58C33.1469 169.535 30.9071 166.289 29.5786 162.963C27.8349 158.597 27.7796 154.39 28.4406 150.807C29.0958 147.255 30.4591 144.274 31.6249 142.21C31.7399 142.006 31.8535 141.811 31.9651 141.623C28.1502 136.707 26.578 131.033 26.1388 125.905C25.6249 119.903 26.6297 114.37 27.651 110.952M36.5151 172.58C36.5079 172.59 36.5006 172.6 36.4933 172.61C34.7904 174.902 32.8571 178.318 31.8077 182.899C29.6739 192.216 31.3835 205.421 43.9424 222.642M27.651 110.952C35.7687 83.7235 58.4912 52.3335 94.705 37.4646C130.756 22.6623 181.233 23.8018 219.977 51.094L27.651 110.952ZM27.651 110.952L219.978 51.0948C229.269 57.6355 233.413 65.5146 235.172 71.8596C236.045 75.0041 236.324 77.7414 236.383 79.72C236.388 79.8671 236.391 80.0101 236.393 80.1489C236.739 80.3417 237.11 80.5572 237.502 80.7959C239.552 82.0442 242.243 83.9795 244.676 86.7015C247.12 89.4354 249.361 93.0288 250.351 97.5471C250.996 100.488 251.085 103.706 250.45 107.19M43.9424 222.642C76.5312 267.331 137.063 280.763 182.898 267.855L182.899 267.855C238.243 252.259 267.835 206.349 272.419 165.855L272.419 165.854C276.033 133.882 270.389 118.537 261.939 111.657C257.981 108.435 253.762 107.391 250.45 107.19" stroke="white" stroke-width="8" stroke-linecap="round" stroke-linejoin="round"/>
  </g>
  <path d="M245.004 111.685C253.124 90.9848 232.294 82.5749 232.294 82.5749C232.294 82.5749 234.564 66.2548 217.674 54.3648C180.184 27.9548 131.174 26.8148 96.2242 41.1648C61.2742 55.5148 39.3042 85.8648 31.4842 112.095C29.6642 118.185 27.8342 132.185 37.0142 141.305C37.0142 141.305 22.8642 158.305 42.3442 172.125C42.3442 172.125 23.0342 187.185 47.1742 220.285C78.6042 263.385 137.284 276.545 181.814 264.005C235.434 248.895 264.024 204.455 268.444 165.405C275.614 101.975 245.004 111.685 245.004 111.685Z" fill="#F8F8FF" stroke="#08124F" stroke-width="2.2" stroke-linecap="round" stroke-linejoin="round"/>
  <path d="M141.224 81.0949C142.434 80.1559 143.923 79.6462 145.454 79.6462C146.986 79.6462 148.474 80.1559 149.684 81.0949L153.044 83.8949C154.388 84.8871 155.935 85.5709 157.573 85.8975C159.212 86.2242 160.902 86.1857 162.524 85.7849L166.704 84.4849C168.181 84.0804 169.75 84.1793 171.165 84.766C172.579 85.3527 173.758 86.3938 174.514 87.7249L176.514 91.5949C177.373 93.0211 178.535 94.2413 179.917 95.1692C181.3 96.0971 182.869 96.7101 184.514 96.9649L188.874 97.3649C190.401 97.5504 191.822 98.2422 192.909 99.3298C193.997 100.417 194.689 101.838 194.874 103.365L195.284 107.725C195.536 109.371 196.147 110.942 197.076 112.325C198.004 113.708 199.226 114.869 200.654 115.725L204.524 117.725C205.854 118.483 206.893 119.662 207.477 121.076C208.062 122.491 208.16 124.059 207.754 125.535L206.464 129.725C206.059 131.344 206.018 133.033 206.343 134.671C206.668 136.308 207.351 137.853 208.344 139.195L211.144 142.565C212.082 143.773 212.592 145.26 212.592 146.79C212.592 148.32 212.082 149.806 211.144 151.015L208.344 154.385C207.351 155.729 206.668 157.275 206.343 158.914C206.018 160.553 206.059 162.244 206.464 163.865L207.804 168.095C208.21 169.571 208.112 171.139 207.527 172.553C206.943 173.967 205.904 175.147 204.574 175.905L200.704 177.905C199.276 178.761 198.054 179.922 197.126 181.305C196.197 182.688 195.586 184.259 195.334 185.905L194.924 190.265C194.739 191.792 194.047 193.212 192.959 194.3C191.872 195.388 190.451 196.079 188.924 196.265L184.564 196.675C182.919 196.926 181.349 197.536 179.966 198.463C178.584 199.389 177.422 200.609 176.564 202.035L174.564 205.915C173.806 207.244 172.627 208.283 171.213 208.868C169.799 209.453 168.23 209.55 166.754 209.145L162.574 207.855C160.953 207.45 159.263 207.408 157.624 207.733C155.985 208.058 154.438 208.742 153.094 209.735L149.734 212.535C148.524 213.474 147.036 213.984 145.504 213.984C143.973 213.984 142.484 213.474 141.274 212.535L137.904 209.735C136.562 208.742 135.017 208.059 133.38 207.734C131.743 207.409 130.054 207.45 128.434 207.855L124.244 209.145C122.769 209.55 121.2 209.453 119.786 208.868C118.372 208.283 117.192 207.244 116.434 205.915L114.434 202.035C113.577 200.608 112.416 199.387 111.033 198.461C109.65 197.534 108.08 196.925 106.434 196.675L102.074 196.265C100.549 196.076 99.1299 195.383 98.0429 194.296C96.956 193.209 96.2631 191.79 96.0743 190.265L95.6743 185.905C95.4228 184.259 94.8111 182.688 93.8829 181.305C92.9547 179.922 91.7327 178.761 90.3043 177.905L86.4343 175.905C85.085 175.163 84.0229 173.991 83.4176 172.576C82.8122 171.16 82.6984 169.583 83.0943 168.095L84.3943 163.915C84.7972 162.293 84.8367 160.602 84.51 158.963C84.1832 157.325 83.4983 155.778 82.5043 154.435L79.7143 151.095C78.7711 149.888 78.2588 148.401 78.2588 146.87C78.2588 145.339 78.7711 143.851 79.7143 142.645L82.5043 139.275C83.4981 137.933 84.183 136.389 84.5097 134.752C84.8365 133.114 84.7971 131.425 84.3943 129.805L83.0943 125.615C82.6915 124.138 82.7913 122.569 83.3778 121.155C83.9644 119.742 85.0044 118.563 86.3343 117.805L90.2043 115.805C91.6327 114.949 92.8547 113.788 93.7829 112.405C94.7111 111.022 95.3228 109.451 95.5743 107.805L95.9743 103.445C96.1631 101.919 96.856 100.501 97.9429 99.4136C99.0299 98.3266 100.449 97.6338 101.974 97.4449L106.334 97.0449C107.98 96.7914 109.55 96.179 110.932 95.2509C112.315 94.3229 113.476 93.102 114.334 91.6749L116.334 87.8049C117.092 86.4751 118.271 85.435 119.685 84.8485C121.099 84.2619 122.667 84.1622 124.144 84.5649L128.334 85.8649C129.955 86.2656 131.643 86.304 133.28 85.9773C134.917 85.6506 136.462 84.9669 137.804 83.9749L141.224 81.0949Z" fill="#AAB2FF"/>
  <path d="M229.784 106.755C232.966 106.755 235.544 104.176 235.544 100.995C235.544 97.8137 232.966 95.2349 229.784 95.2349C226.603 95.2349 224.024 97.8137 224.024 100.995C224.024 104.176 226.603 106.755 229.784 106.755Z" fill="#818CFF"/>
  <path d="M189.924 173.265C185.724 177.825 184.634 179.265 180.204 184.685Z" fill="#FBFFEB"/>
  <path d="M175 198L167 202.5L169 193.5L186.5 170.5L193.5 176.5L175 198Z" fill="white"/>
  <path d="M191.5 165.5L187 171L192.5 175.5L197 170L191.5 165.5Z" fill="white"/>
  <path fill-rule="evenodd" clip-rule="evenodd" d="M190.648 164.803C191.033 164.333 191.726 164.264 192.196 164.649L197.696 169.149C198.166 169.533 198.236 170.226 197.851 170.696L193.963 175.448L194.215 175.665C194.437 175.855 194.574 176.125 194.596 176.417C194.618 176.708 194.524 176.996 194.333 177.217L175.833 198.717C175.75 198.814 175.65 198.896 175.539 198.959L167.553 203.451C167.524 203.467 167.495 203.482 167.465 203.497C167.455 203.501 167.445 203.506 167.434 203.51C165.138 204.513 163.187 204.341 161.469 203.397C159.85 202.506 158.51 200.961 157.27 199.43C157.052 199.161 156.836 198.891 156.62 198.621C154.261 195.676 151.97 192.816 148.284 192.079C147.068 191.835 145.83 192.055 144.478 192.618C143.11 193.189 141.705 194.076 140.169 195.092C139.957 195.233 139.742 195.375 139.525 195.52L139.524 195.521L139.524 195.521C136.684 197.41 133.412 199.588 129.645 200.09C129.043 200.171 128.489 199.747 128.409 199.145C128.329 198.543 128.752 197.99 129.354 197.91C132.595 197.477 135.457 195.578 138.398 193.627C138.584 193.504 138.769 193.38 138.955 193.257C140.481 192.248 142.046 191.249 143.631 190.588C145.232 189.92 146.931 189.564 148.715 189.921C153.234 190.825 156.032 194.343 158.303 197.2L158.304 197.2C158.534 197.49 158.759 197.773 158.979 198.045C160.24 199.601 161.337 200.813 162.53 201.469C163.512 202.009 164.607 202.198 166.052 201.692L167.921 193.283C167.953 193.123 168.021 192.969 168.126 192.832L185.624 169.834C185.807 169.593 186.082 169.438 186.383 169.406C186.54 169.389 186.696 169.407 186.842 169.455L190.648 164.803ZM188.128 173.344L186.642 172.129L170.518 193.321L174.659 196.709L191.947 176.618L190.13 175.061L180.844 186.204C180.456 186.671 179.762 186.734 179.295 186.345C178.829 185.956 178.765 185.262 179.154 184.796L188.46 173.629L188.128 173.344ZM192.345 173.952L189.54 171.657L188.566 170.822L191.654 167.048L195.452 170.155L192.345 173.952ZM168.608 200.333L169.686 195.483L172.76 197.998L168.608 200.333Z" fill="#08124F"/>
  <path d="M137.475 112.774L142.554 118.346L143.315 110.812L135.598 88.3619L128.592 91.2361L137.475 112.774Z" fill="white"/>
  <path d="M132.582 83.3218L134.674 88.7715L129.452 90.8602L127.361 85.4105L132.582 83.3218Z" fill="white"/>
  <path fill-rule="evenodd" clip-rule="evenodd" d="M133.023 82.3139C132.753 82.196 132.447 82.1912 132.174 82.3005L126.952 84.3893C126.394 84.6126 126.118 85.2431 126.334 85.8047L128.05 90.2784C127.838 90.3981 127.671 90.5857 127.576 90.8128C127.464 91.0824 127.463 91.3856 127.574 91.6556L136.458 113.194C136.507 113.312 136.576 113.421 136.662 113.515L141.741 119.087C141.771 119.121 141.803 119.152 141.837 119.181C143.293 120.483 144.682 121.143 146.101 121.33C147.498 121.514 148.806 121.222 150.038 120.853C150.466 120.725 150.889 120.588 151.314 120.449C153.388 119.775 155.503 119.087 158.366 119.438C160.49 119.698 161.747 120.716 163.26 122.176C163.425 122.335 163.593 122.5 163.765 122.668L163.765 122.668C165.173 124.047 166.859 125.698 169.52 126.99C170.066 127.255 170.724 127.027 170.99 126.48C171.255 125.934 171.027 125.276 170.48 125.01C168.158 123.883 166.717 122.475 165.306 121.097C165.133 120.929 164.961 120.76 164.788 120.593C163.196 119.057 161.499 117.606 158.634 117.254C155.245 116.839 152.626 117.699 150.539 118.385L150.539 118.385C150.143 118.515 149.766 118.638 149.407 118.746C148.254 119.091 147.312 119.27 146.389 119.149C145.598 119.044 144.728 118.706 143.706 117.883L144.407 110.947C144.427 110.781 144.411 110.609 144.351 110.442L136.638 88.0043C136.539 87.7179 136.327 87.4848 136.051 87.3599C135.811 87.2509 135.54 87.2327 135.289 87.306L133.609 82.9278C133.504 82.6529 133.292 82.4318 133.023 82.3139ZM133.521 90.4174L134.945 89.8476L141.929 110.165L138.182 111.603L130.028 91.8356L131.48 91.24L135.776 102.14C135.999 102.705 136.637 102.982 137.202 102.76C137.768 102.537 138.045 101.898 137.823 101.333L133.521 90.4174ZM130.079 89.4246L131.275 88.9462L133.251 88.1356L131.955 84.7575L128.776 86.0291L130.079 89.4246ZM141.707 115.784L142.041 112.479L139.562 113.43L141.707 115.784Z" fill="#08124F"/>
  <path d="M117.874 165.455L123.524 162.315Z" fill="#FBFFEB"/>
  <path fill-rule="evenodd" clip-rule="evenodd" d="M167.253 59.9412C167.564 56.7292 167.912 53.7299 168.298 50.9431L162.462 50.3791L161.809 57.134L152.67 56.2508L153.323 49.4959L147.487 48.9319C147.309 52.1566 147.085 55.1679 146.815 57.9659C146.544 60.7639 146.188 63.7625 145.745 66.9616L151.581 67.5256L152.234 60.7707L161.373 61.6539L160.72 68.4088L166.556 68.9728C166.71 66.1636 166.943 63.1531 167.253 59.9412ZM123.479 67.875C123.923 66.9576 124.277 66.1114 124.54 65.3365C124.819 64.5593 125.066 63.6691 125.281 62.6658C126.544 63.1805 127.976 63.5208 129.577 63.6868C131.178 63.8528 132.646 63.8441 133.98 63.6605C135.348 63.4724 136.296 63.2245 136.825 62.9168C137.351 62.5926 137.595 62.2904 137.556 62.0102C137.418 61.0051 135.817 60.7132 132.752 61.1347C129.39 61.597 126.904 61.5863 125.293 61.1027C123.679 60.6026 122.765 59.5698 122.549 58.0044C122.244 55.7798 122.941 54.0134 124.641 52.705C126.342 51.3966 128.667 50.5395 131.617 50.1339C133.33 49.8983 135.116 49.8794 136.973 50.0773C138.845 50.2565 140.558 50.6253 142.112 51.1839C141.784 52.3372 141.464 53.7328 141.151 55.3708C141.098 55.7139 141.05 55.9724 141.006 56.1463C140.073 55.5862 138.727 55.2005 136.969 54.989C135.208 54.761 133.677 54.7365 132.375 54.9155C130.81 55.1308 129.77 55.3829 129.255 55.6719C128.739 55.9444 128.508 56.2784 128.562 56.6739C128.616 57.0694 129.031 57.3397 129.807 57.4849C130.597 57.6114 131.7 57.5772 133.117 57.3823C136.611 56.9019 139.204 56.9566 140.897 57.5465C142.587 58.12 143.546 59.2306 143.773 60.8784C144.09 63.1854 143.478 64.9652 141.938 66.218C140.395 67.4543 137.919 68.307 134.508 68.7761C132.679 69.0276 130.789 69.0859 128.84 68.951C126.888 68.7997 125.101 68.441 123.479 67.875ZM110.322 67.9111C113.086 69.941 115.093 71.4672 116.344 72.4898L123.619 69.5817C121.991 68.6918 120.143 67.6305 118.073 66.3976C116.02 65.1587 114.15 63.9985 112.463 62.9171L116.872 52.7715L109.365 55.7722C108.846 57.9682 107.727 61.0397 106.009 64.9868L103.296 58.1987L97.5269 60.5049C98.8482 63.4518 100.031 66.2303 101.074 68.8405C102.118 71.4507 103.176 74.2787 104.251 77.3244L110.019 75.0182L108.686 71.6821L110.322 67.9111ZM96.1232 68.4743C97.0607 69.5766 97.5803 70.7396 97.6821 71.9632C97.7965 73.1761 97.3466 74.5085 96.3325 75.9605C96.6569 76.0339 96.8993 76.1007 97.0597 76.1609L103.776 77.8187L98.6059 82.2153C97.1647 81.6504 95.0341 80.9296 92.214 80.0527L89.4201 82.4288L93.1702 86.8382L88.6847 90.6529C86.6956 88.1085 84.7904 85.7657 82.9693 83.6244C81.1481 81.483 79.1416 79.2264 76.9497 76.8545L81.4351 73.0398L81.4513 73.0588L85.3475 69.7452C87.907 67.5684 90.0438 66.4608 91.7579 66.4223C93.472 66.3839 94.9271 67.0678 96.1232 68.4743ZM84.5548 76.708L86.3975 78.8746L88.9633 76.6925C90.0403 75.7766 90.8243 75.0552 91.3152 74.5285C91.8081 73.9783 92.0976 73.5356 92.1836 73.2004C92.2697 72.8651 92.1889 72.5518 91.941 72.2604C91.7039 71.9816 91.4194 71.8524 91.0873 71.8728C90.7553 71.8932 90.2836 72.1088 89.6722 72.5195C89.0608 72.9303 88.2103 73.5991 87.1206 74.5258L84.5548 76.708ZM75.3363 106.213C77.7071 105.649 79.9605 103.79 82.0965 100.636C84.2605 97.4414 85.1599 94.6454 84.7945 92.2484C84.4292 89.8514 83.0002 87.8087 80.5075 86.1204C78.0561 84.46 75.6381 83.9072 73.2536 84.4618C70.8783 85.0026 68.6134 86.8636 66.4587 90.0449C64.3133 93.2124 63.4255 96.0062 63.7953 98.4263C64.1744 100.833 65.5896 102.866 68.041 104.526C70.5199 106.205 72.9517 106.768 75.3363 106.213ZM79.2534 93.8893C79.3747 94.9559 78.9177 96.2535 77.8824 97.7822C76.8563 99.2971 75.8187 100.191 74.7694 100.465C73.7202 100.739 72.5827 100.461 71.357 99.6305C70.1451 98.8097 69.4716 97.8613 69.3364 96.7854C69.2013 95.7095 69.6468 94.4141 70.6728 92.8992C71.7082 91.3705 72.7505 90.4693 73.7998 90.1956C74.849 89.9218 75.9796 90.1954 77.1915 91.0162C78.431 91.8557 79.1182 92.8134 79.2534 93.8893ZM56.639 108.378L66.6484 113.785L55.4329 111.389L52.9557 117.573L62.5664 123.573L51.7403 120.607L49.4766 126.258L67.5346 129.89L70.2622 123.081L61.615 117.494L71.6261 119.676L74.4743 112.566L58.9028 102.727L56.639 108.378ZM177.496 73.4135C173.96 71.9977 171.664 70.1916 170.609 67.9952C169.559 65.7833 169.591 63.2876 170.704 60.5081C171.804 57.7595 173.49 55.9439 175.76 55.0612C178.046 54.1848 180.965 54.4575 184.517 55.8795C188.084 57.3076 190.384 59.1246 191.418 61.3303C192.468 63.5421 192.442 66.0224 191.342 68.771C190.223 71.5659 188.531 73.397 186.267 74.2642C184.002 75.1314 181.079 74.8478 177.496 73.4135ZM179.388 68.6883C181.102 69.3746 182.467 69.5449 183.484 69.1993C184.506 68.8383 185.296 67.9629 185.852 66.5731C186.396 65.2142 186.423 64.0513 185.932 63.0844C185.441 62.1175 184.339 61.2909 182.625 60.6046C180.926 59.9246 179.566 59.7651 178.543 60.1261C177.521 60.4872 176.737 61.3471 176.193 62.706C175.643 64.0803 175.613 65.2509 176.104 66.2178C176.595 67.1848 177.69 68.0083 179.388 68.6883ZM213.066 75.3461C212.694 73.6318 211.159 71.8154 208.461 69.897L204.232 66.8893L204.246 66.869L199.245 63.3118C197.483 66.0185 195.787 68.5173 194.158 70.8081C192.529 73.0989 190.725 75.5205 188.747 78.0731L193.748 81.6303L196.293 78.0518L200.522 81.0595C202.379 82.3802 204.001 83.1861 205.386 83.4771C206.78 83.7546 207.982 83.6294 208.99 83.1014C210.008 82.5598 210.941 81.6926 211.789 80.4998C213.023 78.7648 213.449 77.0469 213.066 75.3461ZM204.498 77.7942C203.884 77.4803 203.015 76.9233 201.89 76.1231L199.084 74.1276L201.369 70.9151L204.175 72.9106C205.327 73.73 206.152 74.378 206.65 74.8546C207.161 75.3408 207.437 75.7714 207.476 76.1465C207.539 76.5176 207.411 76.9268 207.093 77.3741C206.775 77.8214 206.419 78.0784 206.024 78.1449C205.644 78.2211 205.135 78.1042 204.498 77.7942Z" fill="#08124F"/>
  <path fill-rule="evenodd" clip-rule="evenodd" d="M231.754 130.305C232.548 130.012 233.389 129.87 234.234 129.885L234.274 129.915C234.638 129.916 235.002 129.936 235.364 129.975C236.916 130.097 238.385 130.726 239.544 131.765C240.357 132.705 240.933 133.826 241.224 135.035C241.234 135.135 241.264 135.135 241.314 135.135H241.394L249.874 131.135C250.033 131.057 250.208 131.016 250.384 131.015C250.513 131.014 250.639 131.04 250.757 131.091C250.874 131.143 250.979 131.219 251.064 131.315C251.163 131.431 251.236 131.567 251.277 131.714C251.318 131.86 251.328 132.014 251.304 132.165L250.864 136.385C250.819 136.73 250.685 137.057 250.474 137.334C250.264 137.611 249.985 137.829 249.664 137.965L241.834 141.055C241.706 141.123 241.593 141.218 241.505 141.334C241.417 141.449 241.356 141.583 241.324 141.725L237.764 175.395C237.761 175.466 237.783 175.535 237.828 175.59C237.872 175.646 237.935 175.683 238.004 175.695L245.204 176.435C245.566 176.475 245.896 176.656 246.125 176.939C246.353 177.222 246.461 177.583 246.424 177.945L246.074 181.205C246.04 181.541 245.881 181.852 245.63 182.077C245.378 182.303 245.052 182.427 244.714 182.425H244.574L224.014 180.255C223.653 180.215 223.322 180.033 223.094 179.751C222.866 179.468 222.758 179.106 222.794 178.745L227.014 138.905C227.054 138.445 227.154 137.705 227.224 137.245C227.36 136.416 227.55 135.598 227.794 134.795C228.106 133.798 228.609 132.87 229.274 132.065C229.936 131.275 230.79 130.669 231.754 130.305ZM228.824 174.715L232.234 175.075L232.254 175.085C232.323 175.085 232.388 175.059 232.439 175.013C232.489 174.967 232.519 174.903 232.524 174.835L236.134 140.705C236.147 140.593 236.163 140.464 236.18 140.326L236.18 140.324C236.232 139.907 236.294 139.412 236.294 139.075V138.515C236.313 138.114 236.272 137.714 236.174 137.325C236.089 137.012 235.92 136.728 235.684 136.505C235.397 136.278 235.049 136.142 234.684 136.115H234.354C234.099 136.105 233.846 136.157 233.614 136.265C233.348 136.411 233.121 136.62 232.954 136.875C232.765 137.185 232.623 137.522 232.534 137.875C232.424 138.235 232.424 138.345 232.424 138.345C232.408 138.462 232.387 138.601 232.363 138.748L232.363 138.749L232.363 138.749C232.299 139.155 232.224 139.633 232.224 139.955L228.584 174.415C228.578 174.487 228.599 174.558 228.644 174.615C228.666 174.643 228.693 174.667 228.724 174.684C228.755 174.701 228.789 174.712 228.824 174.715ZM69.4944 182.515C69.7295 182.334 70.0177 182.236 70.3144 182.235H70.3444C70.5575 182.237 70.7674 182.287 70.958 182.383C71.1486 182.478 71.315 182.616 71.4444 182.785L99.3944 219.875C99.6108 220.166 99.7039 220.531 99.6534 220.89C99.6028 221.25 99.4128 221.575 99.1244 221.795L96.8144 223.535C96.5754 223.716 96.2841 223.814 95.9844 223.815C95.7731 223.816 95.5644 223.768 95.3751 223.675C95.1858 223.581 95.0211 223.444 94.8944 223.275L69.8944 190.145C69.8706 190.111 69.8391 190.084 69.8026 190.065C69.7661 190.045 69.7256 190.035 69.6844 190.035C69.6222 190.033 69.5616 190.054 69.5144 190.095L67.2244 191.895C67.1954 191.916 67.1714 191.942 67.1541 191.974C67.1368 192.005 67.1266 192.039 67.1244 192.075C67.118 192.11 67.1192 192.146 67.1278 192.18C67.1364 192.215 67.1523 192.247 67.1744 192.275L88.3844 220.275C88.6008 220.566 88.6939 220.931 88.6434 221.29C88.5928 221.65 88.4028 221.975 88.1144 222.195L85.8044 223.935C85.5692 224.116 85.281 224.214 84.9844 224.215C84.7719 224.215 84.5623 224.166 84.3716 224.073C84.181 223.979 84.0143 223.843 83.8844 223.675L62.6744 195.615C62.6485 195.582 62.615 195.555 62.5767 195.538C62.5384 195.52 62.4964 195.512 62.4544 195.515C62.4027 195.496 62.346 195.496 62.2944 195.515L56.6544 199.765C56.4183 199.943 56.13 200.038 55.8344 200.035C55.6219 200.035 55.4123 199.986 55.2216 199.893C55.031 199.799 54.8643 199.663 54.7344 199.495L52.7344 196.875C52.5179 196.584 52.4248 196.219 52.4754 195.859C52.5259 195.5 52.7159 195.175 53.0044 194.955L69.4944 182.515ZM105.174 223.901C105.425 223.678 105.749 223.555 106.085 223.555L106.255 223.615L152.514 229.155C152.877 229.203 153.206 229.39 153.434 229.675C153.653 229.96 153.753 230.318 153.715 230.675L153.374 233.545C153.333 233.879 153.171 234.186 152.919 234.409C152.666 234.632 152.341 234.755 152.005 234.755H151.835L110.424 229.755C110.359 229.758 110.297 229.784 110.248 229.828C110.199 229.871 110.166 229.93 110.155 229.995L109.854 232.495C109.849 232.531 109.851 232.567 109.86 232.602C109.869 232.637 109.886 232.67 109.908 232.698C109.931 232.726 109.959 232.749 109.991 232.766C110.023 232.783 110.058 232.792 110.094 232.795L145.154 237.075C145.333 237.097 145.506 237.154 145.662 237.243C145.819 237.332 145.956 237.451 146.067 237.593C146.177 237.735 146.259 237.898 146.306 238.071C146.354 238.245 146.367 238.426 146.344 238.605L146.005 241.475C145.965 241.808 145.805 242.115 145.555 242.338C145.304 242.561 144.98 242.685 144.645 242.685H144.475L109.395 238.405C109.327 238.402 109.261 238.425 109.211 238.47C109.161 238.515 109.13 238.578 109.125 238.645L108.774 241.515C108.77 241.55 108.773 241.586 108.783 241.621C108.793 241.655 108.81 241.687 108.832 241.715C108.854 241.743 108.882 241.766 108.913 241.783C108.945 241.8 108.979 241.811 109.015 241.815L150.954 246.815C151.315 246.857 151.644 247.041 151.869 247.326C152.094 247.611 152.197 247.974 152.154 248.335L151.805 251.215C151.767 251.549 151.608 251.857 151.357 252.081C151.106 252.304 150.781 252.427 150.445 252.425H150.285L103.465 246.815C103.103 246.77 102.774 246.584 102.549 246.297C102.324 246.01 102.222 245.647 102.265 245.285L104.725 224.765C104.764 224.432 104.924 224.124 105.174 223.901ZM220.584 186.565C220.397 186.566 220.212 186.604 220.041 186.678C219.869 186.752 219.714 186.86 219.584 186.995L187.584 220.865C187.461 220.996 187.364 221.15 187.3 221.319C187.236 221.488 187.206 221.667 187.212 221.847C187.217 222.028 187.258 222.205 187.333 222.369C187.407 222.534 187.513 222.682 187.644 222.805L202.644 236.995C202.896 237.239 203.234 237.375 203.584 237.375C203.772 237.375 203.957 237.337 204.129 237.263C204.301 237.19 204.456 237.081 204.584 236.945L237.004 202.605C237.134 202.474 237.235 202.317 237.3 202.145C237.366 201.973 237.394 201.789 237.384 201.605C237.371 201.244 237.216 200.903 236.954 200.655L234.844 198.655C234.719 198.526 234.569 198.424 234.403 198.355C234.237 198.285 234.059 198.249 233.879 198.249C233.7 198.249 233.522 198.285 233.356 198.355C233.19 198.424 233.04 198.526 232.914 198.655L203.914 229.365C203.862 229.42 203.79 229.452 203.714 229.455C203.681 229.454 203.647 229.447 203.616 229.433C203.585 229.42 203.557 229.4 203.534 229.375L201.424 227.375C201.398 227.351 201.377 227.322 201.363 227.289C201.349 227.256 201.343 227.221 201.344 227.185C201.345 227.115 201.37 227.048 201.414 226.995L225.724 201.375C225.972 201.109 226.104 200.756 226.093 200.393C226.082 200.029 225.928 199.685 225.664 199.435L223.564 197.435C223.313 197.19 222.975 197.054 222.624 197.055C222.437 197.056 222.252 197.094 222.081 197.168C221.909 197.242 221.754 197.35 221.624 197.485L197.314 223.105C197.29 223.131 197.261 223.152 197.228 223.165C197.195 223.179 197.16 223.186 197.124 223.185C197.09 223.187 197.055 223.181 197.022 223.169C197.007 223.164 196.992 223.156 196.978 223.148C196.963 223.139 196.948 223.128 196.934 223.115L195.104 221.385C195.056 221.332 195.024 221.266 195.014 221.195C195.015 221.124 195.044 221.055 195.094 221.005L223.704 190.705C223.829 190.574 223.926 190.421 223.991 190.252C224.056 190.084 224.087 189.905 224.082 189.725C224.077 189.544 224.037 189.367 223.964 189.202C223.891 189.037 223.785 188.889 223.654 188.765L221.544 186.765C221.29 186.525 220.954 186.393 220.604 186.395L220.584 186.565ZM180.931 224.04C180.828 224.031 180.724 224.031 180.621 224.04L177.301 224.9C176.981 224.997 176.694 225.182 176.474 225.435C176.255 225.689 176.112 225.999 176.061 226.33L174.621 239.04L167.251 228.61C167.087 228.395 166.875 228.221 166.632 228.101C166.389 227.982 166.122 227.92 165.851 227.92C165.728 227.905 165.604 227.905 165.481 227.92L161.841 228.86C161.665 228.889 161.499 228.964 161.361 229.078C161.223 229.193 161.119 229.342 161.059 229.511C160.998 229.679 160.984 229.861 161.018 230.037C161.052 230.213 161.133 230.376 161.251 230.51L173.841 247.63C174.006 247.844 174.219 248.016 174.462 248.134C174.704 248.252 174.971 248.312 175.241 248.31C175.364 248.325 175.489 248.325 175.611 248.31L177.721 247.76C178.04 247.665 178.326 247.482 178.547 247.233C178.768 246.984 178.915 246.678 178.971 246.35L181.901 225.2C181.929 225.047 181.923 224.89 181.883 224.74C181.844 224.589 181.771 224.449 181.671 224.33C181.576 224.224 181.458 224.14 181.327 224.083C181.196 224.026 181.054 223.998 180.911 224L180.931 224.04Z" fill="#08124F"/>
  <path d="M55.184 162.025C59.4974 162.025 62.994 158.528 62.994 154.215C62.994 149.901 59.4974 146.405 55.184 146.405C50.8707 146.405 47.374 149.901 47.374 154.215C47.374 158.528 50.8707 162.025 55.184 162.025Z" fill="#818CFF"/>
  <path d="M174.5 136.5C160.9 139.7 140.167 134.167 131.5 131C136 157.5 126.833 167 121.5 180C136.5 178 155.5 188.5 167 182C176.2 176.8 175.833 149.5 174.5 136.5Z" fill="white"/>
  <path fill-rule="evenodd" clip-rule="evenodd" d="M175.2 136.5C175.2 136.2 175 135.9 174.7 135.7C174.4 135.5 174.1 135.5 173.8 135.5C167.2 137 158.8 136.5 150.9 135.1C143 133.8 135.8 131.6 131.5 130.1C131.1 130 130.7 130 130.4 130.3C130.1 130.6 130 130.9 130 131.3C132.2 144.4 131.1 153.2 128.7 160.3C127.5 163.9 126 167.1 124.5 170.2C124.3 170.8 124 171.4 123.7 172C122.5 174.5 121.2 177 120.1 179.7C119.9 180 120 180.5 120.2 180.8C120.4 181.1 120.8 181.3 121.2 181.2C127.5 180.4 134.4 181.8 141.5 183.2C142.6 183.4 143.8 183.7 144.9 183.9C148.9 184.7 152.9 185.3 156.7 185.4C160.4 185.4 164 184.9 167.1 183.1C169.7 181.6 171.6 178.6 172.8 175C174.1 171.4 174.9 167 175.3 162.4C176.3 153.2 175.9 143 175.2 136.5ZM166.1 181.1C163.5 182.6 160.3 183.1 156.8 183.1C156.3 183.1 155.8 183.1 155.3 183C156.6 182.4 157.9 181.7 159.2 180.8C161.6 178.9 163.6 176.2 164.2 172.3C164.6 172.5 165 172.8 165.6 173C166.6 173.4 167.8 173.6 169.2 173.3C170 173.1 170.8 172.8 171.6 172.4C171.4 173.1 171.2 173.7 171 174.3C169.6 177.7 168 180 166.1 181.1ZM173.2 162.2C173 164.6 172.6 167 172.2 169.1C172.1 169.1 172 169.2 171.9 169.3C170.6 170.4 169.5 171 168.6 171.1C167.7 171.3 166.9 171.2 166.2 170.9C165.5 170.6 164.9 170.3 164.6 169.9C164.4 169.7 164.3 169.6 164.2 169.5C164.2 169.4 164.1 169.4 164.1 169.4C163.8 169 163.3 168.9 162.9 169.1C162.5 169.3 162.2 169.7 162.2 170.1C162.2 174.5 160.3 177.2 157.9 179.1C155.5 181 152.5 181.9 150.1 182.5C148.6 182.3 147.1 182 145.5 181.7C144.4 181.5 143.3 181.3 142.1 181C135.8 179.7 129.1 178.4 122.9 178.8C123.8 176.8 124.7 174.9 125.7 173C126 172.4 126.3 171.8 126.6 171.2C128.1 168 129.6 164.7 130.8 161C133.1 153.9 134.3 145.2 132.4 132.7C136.9 134.2 143.4 136.1 150.5 137.3C158.1 138.6 166.3 139.2 173.1 137.9C173.7 144.4 174 153.7 173.2 162.2Z" fill="#08124F"/>
  <path d="M90.4869 106.799C99.8563 109.004 114.14 105.192 120.111 103.01C117.011 121.267 123.326 127.812 127 136.768C116.666 135.39 103.576 142.624 95.6538 138.146C89.3157 134.563 89.5683 115.755 90.4869 106.799Z" fill="white"/>
  <path d="M128.1 136.4C127.3 134.6 126.5 132.8 125.6 131.1C125.4 130.7 125.2 130.3 125 129.9C123.9 127.8 122.9 125.6 122.1 123.1C120.5 118.2 119.7 112.2 121.2 103.3C121.3 102.9 121.1 102.5 120.8 102.3C120.5 102.1 120.1 102 119.7 102.1C116.8 103.2 111.8 104.7 106.4 105.6C101 106.5 95.3004 106.9 90.8004 105.8C90.5004 105.7 90.2004 105.8 89.9004 106C89.7004 106.2 89.5004 106.5 89.5004 106.8C89.0004 111.3 88.7004 118.3 89.4004 124.7C89.7004 127.9 90.3004 130.9 91.2004 133.5C92.1004 136 93.4004 138.1 95.3004 139.2C97.5004 140.4 100 140.9 102.6 140.8C105.2 140.8 108 140.3 110.8 139.8C111.6 139.6 112.4 139.5 113.2 139.3C118.1 138.3 122.8 137.4 127 137.9C127.4 138 127.8 137.8 128 137.5C128.2 137.2 128.3 136.8 128.1 136.4ZM93.2004 132.7C93.1004 132.5 93.1004 132.3 93.0004 132.2C93.3004 132.3 93.7004 132.5 94.0004 132.5C95.0004 132.7 95.9004 132.6 96.7004 132.3C96.9004 132.2 97.1004 132.1 97.3004 132.1C97.8004 134.6 99.1004 136.4 100.8 137.7C101.3 138.1 101.8 138.4 102.3 138.7C100 138.7 98.1004 138.3 96.4004 137.4C95.1004 136.6 94.0004 135 93.2004 132.7ZM112.6 137.2C111.8 137.4 111.1 137.5 110.3 137.7C109.3 137.9 108.2 138.1 107.2 138.2C105.6 137.8 103.6 137.2 102 135.9C100.4 134.7 99.2004 132.9 99.2004 130C99.2004 129.5 98.9004 129.1 98.5004 129C98.1004 128.8 97.6004 129 97.3004 129.3C97.3004 129.3 97.3004 129.3 97.2004 129.4C97.1004 129.5 97.0004 129.6 96.9004 129.7C96.6004 129.9 96.3004 130.2 95.9004 130.3C95.5004 130.5 95.0004 130.5 94.4004 130.4C93.8004 130.3 93.1004 130 92.3004 129.2C92.3004 129.2 92.2004 129.1 92.1004 129.1C91.8004 127.7 91.6004 126.1 91.4004 124.5C91.0004 118.8 91.2004 112.6 91.6004 108.2C96.2004 109 101.8 108.6 106.9 107.7C111.5 106.9 115.8 105.7 118.9 104.7C117.7 113 118.5 118.9 120.1 123.8C120.9 126.4 122 128.7 123.1 130.8C123.3 131.2 123.5 131.7 123.7 132.1C124.3 133.3 124.8 134.4 125.4 135.6C121.2 135.4 116.8 136.3 112.6 137.2Z" fill="#08124F"/>
  <path d="M183.823 130.145C179.253 126.905 175.253 120.715 177.523 111.805C180.353 100.655 190.083 101.285 193.613 102.115C197.453 103.025 205.753 106.115 204.613 116.735C203.613 125.735 197.423 130.125 194.763 131.175C194.632 131.228 194.514 131.311 194.422 131.419C194.329 131.526 194.263 131.654 194.23 131.792C194.196 131.93 194.197 132.074 194.23 132.212C194.264 132.35 194.33 132.478 194.423 132.585C195.133 133.395 195.903 134.585 195.603 135.585C195.083 137.355 193.113 136.695 194.203 138.635C195.293 140.575 194.003 141.985 192.703 142.535C191.403 143.085 177.853 141.085 181.353 138.735C184.853 136.385 176.853 134.245 183.823 130.145Z" fill="white"/>
  <path fill-rule="evenodd" clip-rule="evenodd" d="M191.435 99.098C190.828 99.0624 190.366 98.5418 190.401 97.9353L190.901 89.4353C190.937 88.8289 191.458 88.3662 192.064 88.4018C192.671 88.4375 193.133 88.9581 193.098 89.5645L192.598 98.0645C192.562 98.671 192.041 99.1337 191.435 99.098ZM180.118 102.125C180.463 102.625 181.148 102.75 181.648 102.405C182.148 102.06 182.274 101.375 181.928 100.875L176.405 92.8748C176.06 92.3749 175.374 92.2495 174.875 92.5946C174.375 92.9398 174.249 93.6249 174.594 94.1248L180.118 102.125ZM173.96 110.459C174.49 110.756 175.161 110.569 175.458 110.039C175.756 109.51 175.568 108.839 175.039 108.541L167.039 104.041C166.509 103.743 165.839 103.931 165.541 104.461C165.243 104.99 165.431 105.661 165.96 105.959L173.96 110.459ZM202.339 100.849C201.98 101.338 202.085 102.027 202.575 102.386C203.064 102.746 203.753 102.641 204.113 102.151L208.886 95.651C209.246 95.1614 209.14 94.4729 208.651 94.1133C208.161 93.7537 207.473 93.8591 207.113 94.3488L202.339 100.849ZM206.927 110.24C206.791 109.648 207.161 109.058 207.753 108.921L214.253 107.428C214.845 107.292 215.435 107.661 215.572 108.253C215.708 108.846 215.338 109.436 214.746 109.572L208.246 111.066C207.654 111.202 207.064 110.832 206.927 110.24ZM208.087 117.804C207.481 117.756 206.951 118.208 206.903 118.813C206.855 119.419 207.306 119.949 207.912 119.997L215.412 120.596C216.018 120.645 216.548 120.193 216.596 119.587C216.645 118.982 216.193 118.452 215.587 118.403L208.087 117.804ZM192.943 108.934C193.255 109.455 193.086 110.131 192.565 110.443C191.873 110.859 191 111.668 190.597 112.681C190.23 113.604 190.197 114.819 191.368 116.325C192.997 118.419 193.113 120.454 192.447 122.131C191.816 123.718 190.54 124.859 189.565 125.443C189.045 125.756 188.369 125.587 188.056 125.066C187.744 124.545 187.913 123.869 188.434 123.557C189.126 123.141 190 122.332 190.402 121.319C190.769 120.396 190.802 119.181 189.631 117.675C188.002 115.581 187.886 113.546 188.552 111.869C189.183 110.282 190.46 109.141 191.434 108.557C191.955 108.244 192.63 108.413 192.943 108.934ZM178.59 112.075C179.915 106.856 182.793 104.515 185.67 103.505C188.628 102.467 191.712 102.798 193.361 103.185C195.207 103.623 198.028 104.566 200.238 106.594C202.392 108.571 204.052 111.654 203.52 116.616C202.574 125.123 196.728 129.217 194.36 130.152L194.354 130.154C194.195 130.218 194.045 130.302 193.908 130.404C193.867 130.407 193.825 130.413 193.784 130.421C192.953 130.587 191.715 130.562 190.423 130.431C189.158 130.302 187.951 130.084 187.238 129.926C186.645 129.794 186.058 130.168 185.926 130.761C185.794 131.354 186.168 131.942 186.761 132.074C187.549 132.249 188.841 132.481 190.201 132.619C191.185 132.719 192.266 132.777 193.235 132.706C193.318 132.925 193.439 133.129 193.594 133.307L193.597 133.31C193.914 133.672 194.212 134.084 194.395 134.478C194.585 134.886 194.59 135.137 194.55 135.269L194.548 135.275C194.448 135.617 194.311 135.709 193.964 135.943C193.878 136.001 193.779 136.067 193.664 136.149C193.554 136.226 193.406 136.338 193.262 136.493C192.37 136.575 191.04 136.538 189.649 136.428C187.983 136.297 186.416 136.077 185.738 135.926C185.145 135.794 184.558 136.168 184.426 136.761C184.294 137.354 184.668 137.942 185.261 138.074C186.083 138.256 187.766 138.486 189.476 138.621C190.657 138.715 191.947 138.771 193.015 138.715C193.083 138.872 193.162 139.026 193.245 139.174C193.62 139.841 193.54 140.283 193.376 140.594C193.184 140.961 192.789 141.294 192.321 141.502C192.304 141.505 192.273 141.509 192.227 141.513C192.107 141.523 191.937 141.529 191.714 141.526C191.271 141.52 190.684 141.481 190.005 141.41C188.647 141.267 186.986 141.002 185.478 140.651C183.996 140.306 182.795 139.906 182.145 139.523C182.604 139.185 182.969 138.789 183.184 138.307C183.435 137.742 183.423 137.189 183.303 136.711C183.191 136.262 182.978 135.852 182.795 135.527C182.713 135.382 182.64 135.257 182.572 135.14C182.463 134.954 182.366 134.788 182.265 134.592C181.967 134.013 181.894 133.633 182.028 133.25C182.183 132.805 182.715 132.073 184.381 131.093C184.703 130.904 184.907 130.564 184.923 130.192C184.939 129.819 184.764 129.463 184.46 129.247C180.193 126.223 176.451 120.47 178.59 112.076L178.59 112.075ZM181.806 139.776C181.805 139.778 181.804 139.778 181.805 139.778C181.805 139.778 181.806 139.777 181.808 139.775C181.81 139.773 181.813 139.769 181.816 139.765L181.81 139.771L181.806 139.776ZM193.866 101.044C191.985 100.602 188.439 100.202 184.942 101.429C181.365 102.684 177.963 105.604 176.458 111.534C174.264 120.145 177.628 126.42 181.941 130.075C180.907 130.86 180.253 131.662 179.951 132.523C179.516 133.767 179.917 134.838 180.31 135.6C180.433 135.84 180.587 136.104 180.717 136.327C180.777 136.43 180.832 136.525 180.876 136.604C181.044 136.903 181.132 137.098 181.169 137.245C181.198 137.359 181.183 137.392 181.175 137.41L181.174 137.412C181.156 137.451 181.074 137.598 180.741 137.822C180.197 138.186 179.567 138.823 179.693 139.744C179.802 140.54 180.436 141.044 180.876 141.325C181.847 141.944 183.417 142.43 184.979 142.794C186.584 143.167 188.335 143.446 189.775 143.598C190.494 143.673 191.152 143.718 191.684 143.726C191.95 143.729 192.2 143.724 192.42 143.704C192.612 143.687 192.885 143.653 193.132 143.548C193.945 143.204 194.825 142.567 195.324 141.618C195.857 140.602 195.878 139.369 195.163 138.096C195.111 138.004 195.074 137.93 195.047 137.871L195.066 137.859C195.45 137.617 196.311 137.075 196.658 135.898C196.917 135.031 196.687 134.188 196.39 133.549C196.134 133 195.781 132.497 195.442 132.084C198.504 130.749 204.684 126.064 205.707 116.856L205.707 116.852C206.315 111.195 204.395 107.423 201.725 104.973C199.11 102.573 195.861 101.517 193.867 101.044L193.866 101.044Z" fill="#08124F"/>
  <path d="M101.322 181.521C96.8496 180.13 92.0657 176.245 91.562 168.573C90.9231 158.975 98.822 156.955 101.844 156.7C105.132 156.429 112.532 156.735 114.377 165.474C115.914 172.888 112.13 177.982 110.287 179.506C110.196 179.582 110.124 179.679 110.078 179.788C110.032 179.898 110.013 180.017 110.023 180.135C110.032 180.253 110.069 180.368 110.132 180.469C110.194 180.57 110.28 180.654 110.382 180.715C111.156 181.175 112.077 181.922 112.097 182.794C112.143 184.336 110.405 184.322 111.775 185.582C113.144 186.842 112.483 188.297 111.592 189.071C110.701 189.845 99.4104 191.766 101.584 188.991C103.758 186.216 96.8432 186.587 101.322 181.521Z" fill="white"/>
  <path fill-rule="evenodd" clip-rule="evenodd" d="M93.0414 155.54C93.3392 156.069 94.0099 156.257 94.5394 155.959C95.0689 155.661 95.2567 154.99 94.9589 154.461L90.4589 146.461C90.161 145.931 89.4903 145.744 88.9608 146.041C88.4313 146.339 88.2435 147.01 88.5414 147.539L93.0414 155.54ZM90.997 161.465C90.7401 162.016 90.0855 162.254 89.535 161.997L82.035 158.497C81.4845 158.24 81.2465 157.586 81.5034 157.035C81.7603 156.485 82.4148 156.247 82.9653 156.503L90.4653 160.003C91.0159 160.26 91.2539 160.915 90.997 161.465ZM80.4129 166.833C80.5053 166.232 81.067 165.821 81.6674 165.913L88.1673 166.913C88.7677 167.005 89.1796 167.567 89.0872 168.167C88.9948 168.768 88.4332 169.18 87.8327 169.087L81.3328 168.087C80.7324 167.995 80.3205 167.433 80.4129 166.833ZM104.711 153.08C104.114 153.196 103.537 152.807 103.42 152.211C102.921 149.648 102.884 148.287 102.9 145.992C102.905 145.385 103.4 144.896 104.008 144.9C104.615 144.905 105.104 145.401 105.1 146.008C105.084 148.218 105.118 149.421 105.58 151.79C105.696 152.386 105.307 152.964 104.711 153.08ZM112.186 154.26C111.778 154.71 111.811 155.405 112.26 155.814C112.71 156.223 113.406 156.19 113.814 155.74L118.814 150.24C119.223 149.79 119.19 149.095 118.74 148.686C118.291 148.277 117.595 148.311 117.186 148.76L112.186 154.26ZM117.035 166.027C116.744 165.494 116.94 164.825 117.474 164.534L122.973 161.534C123.507 161.244 124.175 161.44 124.466 161.973C124.757 162.507 124.56 163.175 124.027 163.466L118.527 166.466C117.994 166.757 117.326 166.56 117.035 166.027ZM95.9982 160.007C94.02 161.518 92.3646 164.066 92.6597 168.5L92.6598 168.501C93.1286 175.641 97.5319 179.19 101.649 180.471C102.006 180.582 102.282 180.866 102.382 181.225C102.482 181.585 102.394 181.97 102.147 182.25C101.086 183.45 100.886 184.13 100.879 184.459C100.874 184.724 100.987 184.962 101.362 185.333C101.491 185.46 101.605 185.561 101.737 185.678L101.737 185.678L101.737 185.678L101.737 185.678C101.822 185.754 101.913 185.835 102.021 185.934C102.252 186.147 102.544 186.432 102.763 186.781C102.998 187.155 103.166 187.632 103.108 188.195C103.067 188.583 102.926 188.944 102.72 189.282C103.327 189.366 104.248 189.361 105.345 189.266C106.626 189.155 108.008 188.937 109.117 188.7C109.673 188.581 110.144 188.461 110.491 188.353C110.666 188.299 110.793 188.253 110.878 188.217L110.901 188.207L110.918 188.199C111.205 187.934 111.398 187.609 111.447 187.324C111.485 187.098 111.459 186.786 111.03 186.391C110.952 186.32 110.875 186.245 110.8 186.165C109.972 186.475 108.973 186.75 108.054 186.972C106.657 187.308 105.25 187.563 104.537 187.632C103.932 187.691 103.395 187.248 103.336 186.643C103.278 186.038 103.72 185.501 104.325 185.442C104.891 185.388 106.185 185.159 107.539 184.833C108.644 184.567 109.668 184.264 110.338 183.984C110.413 183.836 110.496 183.72 110.557 183.638C110.637 183.53 110.703 183.444 110.758 183.374C110.958 183.118 111.005 183.058 110.998 182.827L110.998 182.82C110.997 182.768 110.961 182.61 110.718 182.35C110.486 182.102 110.159 181.862 109.82 181.661L109.817 181.658C109.668 181.569 109.533 181.46 109.416 181.335C108.677 181.625 107.84 181.846 107.072 182.013C105.948 182.257 104.853 182.408 104.175 182.473C103.571 182.532 103.033 182.089 102.975 181.484C102.916 180.88 103.359 180.342 103.964 180.284C104.565 180.225 105.574 180.087 106.606 179.863C107.664 179.633 108.632 179.337 109.225 179.004C109.246 178.992 109.268 178.98 109.289 178.97C109.374 178.857 109.472 178.754 109.581 178.662L109.586 178.658C111.187 177.334 114.736 172.629 113.3 165.699C112.45 161.673 110.369 159.699 108.196 158.709C105.955 157.688 103.504 157.667 101.935 157.796C100.543 157.914 98.0438 158.443 95.9982 160.007ZM102.196 189.155C102.19 189.151 102.186 189.149 102.186 189.15C102.186 189.15 102.187 189.15 102.189 189.152C102.191 189.152 102.193 189.154 102.196 189.155ZM102.379 189.773C102.38 189.771 102.381 189.769 102.383 189.765C102.38 189.77 102.378 189.773 102.377 189.775C102.376 189.777 102.376 189.778 102.376 189.778C102.377 189.778 102.377 189.776 102.379 189.773ZM94.6624 158.259C97.1615 156.349 100.122 155.741 101.751 155.604L101.753 155.604C103.473 155.462 106.366 155.458 109.108 156.707C111.917 157.987 114.459 160.535 115.453 165.246L115.454 165.25C117 172.708 113.503 178.011 111.354 180.03C111.683 180.255 112.028 180.529 112.327 180.85C112.743 181.295 113.177 181.946 113.197 182.765C113.225 183.739 112.762 184.408 112.49 184.745L112.52 184.772C113.46 185.638 113.788 186.684 113.616 187.694C113.456 188.63 112.893 189.399 112.314 189.902C112.122 190.069 111.892 190.176 111.741 190.24C111.563 190.316 111.359 190.387 111.144 190.454C110.712 190.589 110.171 190.724 109.577 190.851C108.387 191.105 106.914 191.339 105.534 191.458C104.197 191.573 102.796 191.597 101.831 191.348C101.4 191.237 100.694 190.983 100.364 190.302C99.9785 189.506 100.368 188.76 100.718 188.312C100.867 188.123 100.906 188.016 100.916 187.98C100.915 187.977 100.912 187.972 100.909 187.967C100.907 187.962 100.903 187.956 100.899 187.95C100.845 187.864 100.74 187.745 100.531 187.553C100.479 187.505 100.413 187.446 100.34 187.381C100.178 187.236 99.9792 187.059 99.8154 186.897C99.2937 186.381 98.6543 185.588 98.6798 184.411C98.6961 183.658 98.9843 182.876 99.5352 182.035C95.1765 180.181 90.949 176.024 90.4645 168.645L90.4646 168.646L91.5617 168.573L90.4645 168.645C90.1211 163.481 92.0956 160.22 94.6624 158.259ZM100.922 187.993C100.922 187.993 100.921 187.992 100.921 187.99C100.922 187.992 100.922 187.993 100.922 187.993ZM103.195 162.159C103.654 162.558 103.703 163.253 103.304 163.711C102.879 164.201 102.417 165.034 102.363 165.894C102.314 166.656 102.571 167.571 103.841 168.43C105.73 169.707 106.382 171.355 106.282 172.928C106.189 174.403 105.446 175.677 104.806 176.414C104.407 176.873 103.712 176.921 103.254 176.523C102.795 176.124 102.746 175.43 103.145 174.971C103.57 174.482 104.032 173.648 104.086 172.788C104.135 172.026 103.878 171.111 102.608 170.252C100.72 168.975 100.068 167.327 100.167 165.755C100.261 164.279 101.003 163.006 101.644 162.268C102.042 161.81 102.737 161.761 103.195 162.159Z" fill="#08124F"/>
  <defs>
    <filter id="filter0_d_1077_2469" x="12" y="20.002" width="275.529" height="272.522" filterUnits="userSpaceOnUse" color-interpolation-filters="sRGB">
      <feFlood flood-opacity="0" result="BackgroundImageFix"/>
      <feColorMatrix in="SourceAlpha" type="matrix" values="0 0 0 0 0 0 0 0 0 0 0 0 0 0 0 0 0 0 127 0" result="hardAlpha"/>
      <feOffset dy="6"/>
      <feGaussianBlur stdDeviation="5"/>
      <feComposite in2="hardAlpha" operator="out"/>
      <feColorMatrix type="matrix" values="0 0 0 0 0.0313726 0 0 0 0 0.0705882 0 0 0 0 0.309804 0 0 0 0.25 0"/>
      <feBlend mode="normal" in2="BackgroundImageFix" result="effect1_dropShadow_1077_2469"/>
      <feBlend mode="normal" in="SourceGraphic" in2="effect1_dropShadow_1077_2469" result="shape"/>
    </filter>
  </defs>
</svg>
