<svg width="300" height="300" viewBox="0 0 300 300" fill="none" xmlns="http://www.w3.org/2000/svg">
  <path d="M156.504 238.746C174.884 238.746 189.784 223.846 189.784 205.466C189.784 187.086 174.884 172.186 156.504 172.186C138.124 172.186 123.224 187.086 123.224 205.466C123.224 223.846 138.124 238.746 156.504 238.746Z" fill="#D7DEFF"/>
  <path d="M111.323 236.536C126.395 236.536 138.613 224.318 138.613 209.246C138.613 194.174 126.395 181.956 111.323 181.956C96.2514 181.956 84.0332 194.174 84.0332 209.246C84.0332 224.318 96.2514 236.536 111.323 236.536Z" fill="#D7DEFF"/>
  <g filter="url(#filter0_d_1077_2471)">
    <path d="M275.843 230.316C275.842 221.472 272.904 212.879 267.491 205.885C262.077 198.892 254.495 193.894 245.933 191.676C249.603 184.789 251.523 177.105 251.523 169.301C251.523 161.497 249.603 153.813 245.933 146.926C249.351 143.288 251.898 138.923 253.385 134.158C254.871 129.393 255.257 124.354 254.514 119.418C253.771 114.482 251.918 109.78 249.094 105.664C246.271 101.548 242.55 98.1263 238.213 95.6562C238.346 94.4775 238.413 93.2923 238.413 92.1062C238.421 86.1532 236.739 80.3203 233.562 75.2859C230.385 70.2515 225.844 66.2225 220.467 63.6677C215.09 61.1128 209.098 60.1369 203.188 60.8536C197.278 61.5703 191.694 63.9501 187.083 67.7162C183.621 55.6492 175.916 45.2389 165.387 38.4017C154.859 31.5645 142.215 28.7605 129.783 30.5059C117.351 32.2513 105.967 38.4286 97.7284 47.9007C89.4894 57.3729 84.9491 69.5022 84.9434 82.0562C84.9433 84.1885 85.0701 86.319 85.3233 88.4362C77.5653 89.0178 70.1479 91.8609 63.9888 96.6139C57.8296 101.367 53.199 107.821 50.6696 115.178C48.1402 122.536 47.8231 130.473 49.7575 138.008C51.692 145.544 55.793 152.347 61.5533 157.576C57.9163 162.233 55.7107 167.846 55.2048 173.733C54.6988 179.62 55.9143 185.527 58.7034 190.736C48.6494 192.057 39.4755 197.156 33.046 204.997C26.6164 212.839 23.4137 222.834 24.0885 232.952C24.7634 243.07 29.2652 252.551 36.6792 259.469C44.0932 266.387 53.8631 270.222 64.0033 270.196H237.903V270.146C248.131 269.646 257.774 265.231 264.837 257.817C271.899 250.402 275.84 240.556 275.843 230.316Z" fill="white"/>
    <path d="M189.162 61.4262C184.892 50.6472 177.365 41.4101 167.566 35.047C156.229 27.6847 142.613 24.6653 129.226 26.5448C115.84 28.4242 103.582 35.076 94.7103 45.2756C85.8385 55.4752 80.9496 68.5362 80.9434 82.0544V82.056C80.9433 83.0162 80.9672 83.9761 81.0151 84.9347C73.945 86.1271 67.2539 89.0417 61.545 93.4472C54.7667 98.678 49.6705 105.781 46.8869 113.878C44.1033 121.975 43.7543 130.71 45.8832 139.003C47.7177 146.149 51.323 152.697 56.3416 158.054C53.4522 162.674 51.6889 167.928 51.2194 173.391C50.7996 178.275 51.4276 183.173 53.0374 187.761C44.0169 190.065 35.9131 195.192 29.9528 202.461C22.8787 211.089 19.3549 222.086 20.0974 233.218C20.8399 244.35 25.7931 254.782 33.9503 262.393C42.1061 270.004 52.853 274.224 64.0076 274.196C64.0097 274.196 64.0117 274.196 64.0137 274.196L237.903 274.196C238.198 274.196 238.485 274.164 238.761 274.104C249.768 273.399 260.115 268.573 267.733 260.576C275.504 252.418 279.84 241.584 279.843 230.317V230.316C279.842 220.586 276.61 211.131 270.654 203.437C265.681 197.012 259.044 192.118 251.506 189.258C254.151 182.953 255.523 176.17 255.523 169.301C255.523 161.769 253.873 154.34 250.704 147.532C253.61 143.922 255.818 139.79 257.203 135.349C258.87 130.007 259.302 124.356 258.469 118.822C257.636 113.289 255.558 108.016 252.393 103.401C249.713 99.4955 246.314 96.1473 242.384 93.5315C242.403 93.0585 242.413 92.585 242.413 92.1115C242.422 85.401 240.526 78.826 236.944 73.1511C233.363 67.4762 228.244 62.9347 222.183 60.0548C216.122 57.1748 209.368 56.0748 202.707 56.8827C197.911 57.4643 193.305 59.0176 189.162 61.4262Z" stroke="white" stroke-width="8" stroke-linecap="round" stroke-linejoin="round"/>
  </g>
  <path d="M275.843 230.316C275.842 221.472 272.904 212.879 267.491 205.885C262.077 198.892 254.495 193.894 245.933 191.676C249.603 184.789 251.523 177.105 251.523 169.301C251.523 161.497 249.603 153.813 245.933 146.926C249.351 143.288 251.898 138.923 253.385 134.158C254.871 129.393 255.257 124.354 254.514 119.418C253.771 114.482 251.918 109.78 249.094 105.664C246.271 101.548 242.55 98.1263 238.213 95.6562C238.346 94.4775 238.413 93.2923 238.413 92.1062C238.421 86.1532 236.739 80.3203 233.562 75.2859C230.385 70.2515 225.844 66.2225 220.467 63.6677C215.09 61.1128 209.098 60.1369 203.188 60.8536C197.278 61.5703 191.694 63.9501 187.083 67.7162C183.621 55.6492 175.916 45.2389 165.387 38.4017C154.859 31.5645 142.215 28.7605 129.783 30.5059C117.351 32.2513 105.967 38.4286 97.7284 47.9007C89.4894 57.3729 84.9491 69.5022 84.9434 82.0562C84.9433 84.1885 85.0701 86.319 85.3233 88.4362C77.5653 89.0178 70.1479 91.8609 63.9888 96.6139C57.8296 101.367 53.199 107.821 50.6696 115.178C48.1402 122.536 47.8231 130.473 49.7575 138.008C51.692 145.544 55.793 152.347 61.5533 157.576C57.9163 162.233 55.7107 167.846 55.2048 173.733C54.6988 179.62 55.9143 185.527 58.7034 190.736C48.6494 192.057 39.4755 197.156 33.046 204.997C26.6164 212.839 23.4137 222.834 24.0885 232.952C24.7634 243.07 29.2652 252.551 36.6792 259.469C44.0932 266.387 53.8631 270.222 64.0033 270.196H237.903V270.146C248.131 269.646 257.774 265.231 264.837 257.817C271.899 250.402 275.84 240.556 275.843 230.316Z" fill="#F8F8FF"/>
  <path d="M268.5 205.3C263.2 198.5 255.9 193.5 247.7 191.1C251 184.4 252.8 176.9 252.8 169.4C252.8 161.7 250.9 154 247.4 147.2C250.6 143.6 253.1 139.2 254.6 134.6C256.1 129.7 256.5 124.4 255.8 119.4C255 114.3 253.1 109.4 250.2 105.2C247.4 101.2 243.8 97.7001 239.6 95.2001C239.7 94.2001 239.7 93.2001 239.7 92.2001C239.7 86.0001 238 80.0001 234.7 74.8001C231.4 69.6001 226.7 65.4001 221.1 62.8001C215.5 60.2001 209.3 59.1001 203.2 59.9001C197.6 60.6001 192.3 62.7001 187.8 66.0001C184.1 54.3001 176.4 44.3001 166.1 37.6001C155.3 30.6001 142.4 27.8001 129.7 29.5001C117 31.3001 105.4 37.6001 97.0002 47.3001C88.6002 57.0001 84.0002 69.3001 83.9002 82.2001C83.9002 84.0001 84.0002 85.8001 84.2002 87.6001C76.6002 88.4001 69.5002 91.2001 63.4002 95.9001C57.1002 100.8 52.3002 107.4 49.7002 115C47.1002 122.6 46.8002 130.7 48.8002 138.5C50.7002 145.9 54.6002 152.6 60.2002 157.9C56.8002 162.6 54.7002 168.1 54.2002 173.8C53.7002 179.4 54.7002 185 57.1002 190C47.3002 191.7 38.6002 196.7 32.3002 204.4C25.7002 212.5 22.4002 222.7 23.1002 233.1C23.8002 243.5 28.4002 253.2 36.0002 260.3C43.6002 267.4 53.6002 271.3 64.0002 271.3H64.1002H238C238.1 271.3 238.2 271.3 238.4 271.2C248.8 270.6 258.5 266.1 265.8 258.5C273 251 277 241 277 230.4C277 221.4 274 212.5 268.5 205.3ZM264.1 257.2C257.2 264.4 247.9 268.7 237.9 269.2C237.8 269.2 237.7 269.2 237.6 269.2H64.1002H64.0002C54.1002 269.2 44.7002 265.5 37.5002 258.8C30.3002 252 25.9002 242.9 25.3002 233C24.6002 223.1 27.7002 213.5 34.0002 205.8C40.3002 198.1 49.1002 193.2 59.0002 191.9C59.4002 191.9 59.7002 191.6 59.8002 191.3C59.9002 191 60.0002 190.6 59.8002 190.3C57.1002 185.3 55.9002 179.6 56.4002 173.9C56.9002 168.2 59.0002 162.8 62.5002 158.3C62.9002 157.8 62.8002 157.2 62.4002 156.8C56.8002 151.7 52.8002 145.1 50.9002 137.8C49.0002 130.5 49.3002 122.8 51.8002 115.6C54.3002 108.4 58.7002 102.2 64.8002 97.5001C70.8002 92.9001 78.0002 90.1001 85.5002 89.5001C85.8002 89.5001 86.1002 89.3001 86.3002 89.1001C86.5002 88.9001 86.6002 88.6001 86.5002 88.3001C86.3002 86.2001 86.1002 84.1001 86.1002 82.1001C86.1002 69.8001 90.6002 57.9001 98.6002 48.7001C106.7 39.4001 117.8 33.4001 130 31.7001C132.4 31.4001 134.7 31.2001 137.1 31.2001C146.9 31.2001 156.6 34.0001 164.9 39.4001C175.2 46.1001 182.7 56.3001 186.1 68.1001C186.2 68.5001 186.5 68.7001 186.8 68.8001C187.2 68.9001 187.5 68.8001 187.8 68.6001C192.3 65.0001 197.6 62.7001 203.3 62.0001C209 61.3001 214.8 62.2001 220 64.7001C225.2 67.2001 229.6 71.0001 232.6 75.9001C235.7 80.8001 237.3 86.4001 237.3 92.1001C237.3 93.2001 237.2 94.4001 237.1 95.5001C237.1 95.9001 237.3 96.4001 237.6 96.6001C241.8 99.0001 245.4 102.3 248.1 106.3C250.8 110.3 252.6 114.9 253.3 119.6C254 124.3 253.6 129.3 252.2 133.8C250.8 138.4 248.3 142.6 245 146.1C244.7 146.4 244.6 147 244.8 147.4C248.4 154.1 250.3 161.7 250.3 169.3C250.3 176.9 248.4 184.5 244.8 191.2C244.6 191.5 244.6 191.9 244.8 192.2C244.9 192.5 245.2 192.7 245.5 192.8C253.8 194.9 261.2 199.9 266.5 206.6C271.7 213.4 274.6 221.8 274.6 230.4C274.8 240.4 271 249.9 264.1 257.2Z" fill="#08124F"/>
  <path d="M215.463 108.846C215.464 104.899 214.364 101.029 212.286 97.6729C210.209 94.3164 207.236 91.6059 203.703 89.8461C203.403 86.1797 202.106 82.665 199.954 79.6817C197.801 76.6984 194.875 74.3599 191.49 72.9187C188.105 71.4776 184.391 70.9885 180.749 71.5045C177.107 72.0204 173.674 73.5217 170.823 75.8461C168.605 68.092 163.658 61.4009 156.896 57.0059C150.133 52.6108 142.01 50.8079 134.023 51.9294C126.036 53.051 118.724 57.0213 113.433 63.1088C108.142 69.1963 105.23 76.9909 105.233 85.0561C105.235 86.4266 105.319 87.7956 105.483 89.1561C100.5 89.5277 95.7354 91.3523 91.7787 94.4041C87.822 97.4558 84.8471 101.601 83.222 106.326C81.5969 111.051 81.393 116.149 82.6356 120.989C83.8782 125.829 86.5127 130.198 90.213 133.556C87.9533 136.443 86.5509 139.907 86.1659 143.553C85.7809 147.199 86.4289 150.88 88.0359 154.175C89.6429 157.471 92.144 160.248 95.2539 162.189C98.3637 164.131 101.957 165.159 105.623 165.156V165.156C105.573 165.706 105.543 166.256 105.543 166.806C105.546 170.321 106.614 173.753 108.606 176.649C110.597 179.546 113.419 181.771 116.7 183.032C119.981 184.293 123.567 184.531 126.986 183.714C130.405 182.897 133.496 181.064 135.853 178.456C138.034 180.92 140.759 182.842 143.811 184.071C146.864 185.3 150.16 185.802 153.44 185.537C156.72 185.272 159.893 184.248 162.709 182.545C165.524 180.842 167.905 178.508 169.663 175.726C171.271 176.008 172.901 176.149 174.533 176.146C181.478 176.147 188.183 173.605 193.381 168.998C198.579 164.392 201.909 158.041 202.743 151.146C205.345 149.834 207.65 148.001 209.513 145.76C211.377 143.519 212.759 140.919 213.574 138.121C214.389 135.323 214.62 132.387 214.251 129.496C213.883 126.605 212.924 123.82 211.433 121.316C214.064 117.692 215.475 113.325 215.463 108.846V108.846Z" fill="#AAB2FF"/>
  <path d="M224.9 177.8C228.711 177.8 231.8 174.711 231.8 170.9C231.8 167.089 228.711 164 224.9 164C221.089 164 218 167.089 218 170.9C218 174.711 221.089 177.8 224.9 177.8Z" fill="#818CFF"/>
  <path d="M78.7337 177.766C81.8707 177.766 84.4137 175.223 84.4137 172.086C84.4137 168.949 81.8707 166.406 78.7337 166.406C75.5967 166.406 73.0537 168.949 73.0537 172.086C73.0537 175.223 75.5967 177.766 78.7337 177.766Z" fill="#818CFF"/>
  <path d="M89.4004 191.536C91.7684 191.536 93.8377 192.005 95.6084 192.944C97.379 193.883 98.7444 195.205 99.7044 196.912C100.686 198.597 101.176 200.549 101.176 202.768C101.176 204.965 100.686 206.917 99.7044 208.624C98.7444 210.331 97.3684 211.653 95.5764 212.592C93.8057 213.531 91.747 214 89.4004 214H80.9844V191.536H89.4004ZM89.0484 209.264C91.1177 209.264 92.7284 208.699 93.8804 207.568C95.0324 206.437 95.6084 204.837 95.6084 202.768C95.6084 200.699 95.0324 199.088 93.8804 197.936C92.7284 196.784 91.1177 196.208 89.0484 196.208H86.4564V209.264H89.0484Z" fill="#08124F"/>
  <path d="M109.706 195.92V200.464H117.034V204.688H109.706V209.616H117.994V214H104.234V191.536H117.994V195.92H109.706Z" fill="#08124F"/>
  <path d="M129.675 214.224C128.032 214.224 126.56 213.957 125.259 213.424C123.958 212.891 122.912 212.101 122.123 211.056C121.355 210.011 120.95 208.752 120.907 207.28H126.731C126.816 208.112 127.104 208.752 127.595 209.2C128.086 209.627 128.726 209.84 129.515 209.84C130.326 209.84 130.966 209.659 131.435 209.296C131.904 208.912 132.139 208.389 132.139 207.728C132.139 207.173 131.947 206.715 131.563 206.352C131.2 205.989 130.742 205.691 130.187 205.456C129.654 205.221 128.886 204.955 127.883 204.656C126.432 204.208 125.248 203.76 124.331 203.312C123.414 202.864 122.624 202.203 121.963 201.328C121.302 200.453 120.971 199.312 120.971 197.904C120.971 195.813 121.728 194.181 123.243 193.008C124.758 191.813 126.731 191.216 129.163 191.216C131.638 191.216 133.632 191.813 135.147 193.008C136.662 194.181 137.472 195.824 137.579 197.936H131.659C131.616 197.211 131.35 196.645 130.859 196.24C130.368 195.813 129.739 195.6 128.971 195.6C128.31 195.6 127.776 195.781 127.371 196.144C126.966 196.485 126.763 196.987 126.763 197.648C126.763 198.373 127.104 198.939 127.787 199.344C128.47 199.749 129.536 200.187 130.987 200.656C132.438 201.147 133.611 201.616 134.507 202.064C135.424 202.512 136.214 203.163 136.875 204.016C137.536 204.869 137.867 205.968 137.867 207.312C137.867 208.592 137.536 209.755 136.875 210.8C136.235 211.845 135.296 212.677 134.059 213.296C132.822 213.915 131.36 214.224 129.675 214.224Z" fill="#08124F"/>
  <path d="M146.706 191.536V214H141.234V191.536H146.706Z" fill="#08124F"/>
  <path d="M165.584 198.64C165.179 197.893 164.592 197.328 163.824 196.944C163.077 196.539 162.192 196.336 161.168 196.336C159.397 196.336 157.979 196.923 156.912 198.096C155.845 199.248 155.312 200.795 155.312 202.736C155.312 204.805 155.867 206.427 156.976 207.6C158.107 208.752 159.653 209.328 161.616 209.328C162.96 209.328 164.091 208.987 165.008 208.304C165.947 207.621 166.629 206.64 167.056 205.36H160.112V201.328H172.016V206.416C171.611 207.781 170.917 209.051 169.936 210.224C168.976 211.397 167.749 212.347 166.256 213.072C164.763 213.797 163.077 214.16 161.2 214.16C158.981 214.16 156.997 213.68 155.248 212.72C153.52 211.739 152.165 210.384 151.184 208.656C150.224 206.928 149.744 204.955 149.744 202.736C149.744 200.517 150.224 198.544 151.184 196.816C152.165 195.067 153.52 193.712 155.248 192.752C156.976 191.771 158.949 191.28 161.168 191.28C163.856 191.28 166.117 191.931 167.952 193.232C169.808 194.533 171.035 196.336 171.632 198.64H165.584Z" fill="#08124F"/>
  <path d="M195.143 214H189.671L180.519 200.144V214H175.047V191.536H180.519L189.671 205.456V191.536H195.143V214Z" fill="#08124F"/>
  <path fill-rule="evenodd" clip-rule="evenodd" d="M201.018 205.605C199.507 204.983 197.779 205.229 196.501 206.246C195.25 207.243 194.623 208.827 194.85 210.406C194.847 210.417 194.844 210.432 194.838 210.449C194.824 210.498 194.81 210.547 194.797 210.597C194.68 211.041 194.524 211.499 194.325 211.972C194.309 212.01 194.294 212.049 194.279 212.087C194.056 212.659 193.837 213.19 193.622 213.682C193.59 213.756 193.559 213.831 193.531 213.906C193.272 214.596 192.933 215.645 192.933 216.786C192.933 216.895 192.936 217.003 192.942 217.11C192.769 217.227 192.603 217.356 192.445 217.498C191.253 218.572 190.729 220.192 191.048 221.746C191.044 221.784 191.038 221.831 191.029 221.888C190.748 221.655 190.459 221.43 190.163 221.213C189.012 220.372 187.778 219.664 186.467 219.089C185.101 218.44 183.547 217.954 181.892 217.954C180.33 217.954 178.858 218.355 177.523 218.962C176.174 219.542 174.952 220.34 173.863 221.322C173.828 221.352 173.794 221.383 173.759 221.413C173.175 220.87 172.531 220.392 171.831 219.989C170.986 219.47 170.008 219.016 168.915 218.782C167.552 218.49 166.13 218.846 165.066 219.747C164.772 219.995 164.47 220.271 164.16 220.571C164.098 220.501 164.035 220.432 163.971 220.363C163.295 219.603 162.56 218.911 161.762 218.295C160.975 217.663 159.977 217.01 158.792 216.645C157.355 216.203 155.792 216.508 154.626 217.457C153.469 218.4 152.855 219.855 152.986 221.341V221.341C152.986 221.36 152.984 221.451 152.959 221.631C152.922 221.898 152.846 222.278 152.708 222.788C152.699 222.825 152.689 222.862 152.68 222.899L152.654 223.004C152.128 222.497 151.562 222.03 150.96 221.6C149.651 220.666 148.223 219.929 146.694 219.382C145.166 218.789 143.567 218.434 141.926 218.422C139.827 218.366 137.984 219.13 136.486 220.225C136.463 220.242 136.44 220.258 136.418 220.275C135.362 221.078 134.389 222.032 133.488 223.098C133.311 222.856 133.127 222.619 132.935 222.387C132.244 221.509 131.446 220.721 130.532 220.059C129.543 219.283 128.089 218.474 126.258 218.474C124.359 218.474 122.786 219.293 121.667 220.092C121.227 220.407 120.797 220.746 120.378 221.107C119.97 220.684 119.536 220.284 119.08 219.905C118.142 219.095 117.057 218.44 115.825 218.029C113.976 217.413 111.941 218.057 110.783 219.625C110.338 220.227 110.062 220.912 109.954 221.618C109.779 221.48 109.601 221.345 109.42 221.213C108.27 220.372 107.036 219.664 105.725 219.089C104.359 218.44 102.805 217.954 101.149 217.954C99.5873 217.954 98.1154 218.355 96.7812 218.962C95.4319 219.542 94.21 220.34 93.1204 221.322C92.5787 221.794 92.08 222.305 91.6268 222.853C91.5782 222.803 91.5293 222.753 91.48 222.704C90.433 221.657 89.2622 220.771 87.9679 220.07C86.7094 219.369 85.2403 218.816 83.6241 218.739C83.5528 218.736 83.4814 218.734 83.41 218.734C81.0937 218.734 79.0483 219.662 77.3498 220.884C77.1108 219.899 76.7851 218.93 76.3771 217.978C75.4531 215.821 74.1964 213.861 72.6218 212.112C71.0064 210.317 69.1098 208.868 66.9543 207.786C64.672 206.603 62.2213 205.994 59.657 205.994C57.0562 205.994 54.5714 206.556 52.2886 207.744C50.298 208.763 48.5369 210.077 47.0501 211.697C45.6308 213.21 44.4869 214.895 43.6759 216.756C42.9257 218.477 42.417 220.316 42.417 222.194C42.417 224.816 42.9741 227.327 44.2356 229.587L44.2579 229.627C45.4149 231.652 47.094 233.118 49.1371 233.991C48.6574 235.133 48.2439 236.13 47.8976 236.98C47.5379 237.863 47.1425 238.889 46.9764 239.72C46.9409 239.897 46.9161 240.077 46.9022 240.257C46.8137 241.409 47.0042 242.495 47.2798 243.432C47.3024 243.509 47.327 243.585 47.3535 243.66C47.6924 244.62 48.153 245.525 48.7029 246.375C48.7358 246.426 48.7697 246.476 48.8046 246.525C49.3467 247.293 49.9475 248.026 50.6021 248.724C50.6352 248.759 50.6688 248.794 50.703 248.828C51.4578 249.583 52.2796 250.263 53.1639 250.868C54.4392 251.741 56.0731 251.898 57.4914 251.284C58.3906 250.895 59.1234 250.231 59.5999 249.408C59.6923 249.502 59.7861 249.594 59.8815 249.685C61.4132 251.143 63.3619 251.966 65.533 251.966C67.2295 251.966 68.975 251.594 70.5536 250.616C70.5966 250.59 70.6391 250.562 70.6811 250.534C71.5518 249.954 72.2881 249.242 72.8783 248.422C74.1168 249.472 75.4706 250.334 76.9408 250.971C76.9799 250.988 77.0192 251.004 77.0588 251.02C78.431 251.569 79.9349 251.966 81.486 251.966C83.3306 251.966 85.2383 251.629 86.9607 250.664L86.9777 250.655L87.0108 250.636C87.5447 250.328 88.0728 249.991 88.5759 249.619C88.6083 249.654 88.641 249.689 88.6738 249.724C88.7032 249.755 88.7331 249.786 88.7634 249.816C89.6832 250.736 90.7352 251.494 91.9111 252.065C93.2115 252.732 94.642 253.11 96.1573 253.11C96.7165 253.11 97.2704 253.07 97.8179 252.992C97.7694 253.274 97.7344 253.59 97.7344 253.914C97.7344 254.998 97.957 256.017 98.2906 256.939C98.61 257.914 99.0792 258.806 99.6536 259.614C100.256 260.543 100.995 261.348 101.831 262.036C102.839 262.903 103.987 263.54 105.231 263.955C106.672 264.435 108.258 264.157 109.448 263.214C110.544 262.346 111.169 261.024 111.154 259.64C111.162 259.604 111.172 259.559 111.185 259.502C111.209 259.402 111.242 259.277 111.286 259.126C111.484 258.45 111.767 257.622 112.151 256.631C112.545 255.612 112.993 254.518 113.495 253.347C113.5 253.335 113.504 253.324 113.509 253.312C113.519 253.29 113.528 253.268 113.537 253.245C113.826 252.521 114.123 251.803 114.425 251.092C115.458 251.667 116.645 252.018 117.938 252.018C120.197 252.018 122.222 251.214 123.945 249.976C123.97 249.958 123.994 249.94 124.018 249.922C125.463 248.839 126.769 247.544 127.947 246.072C128.128 245.847 128.307 245.619 128.482 245.388C129.006 246.203 129.62 246.957 130.309 247.651C131.526 248.911 132.977 249.906 134.575 250.682C134.59 250.689 134.606 250.697 134.621 250.704C134.637 250.712 134.654 250.719 134.67 250.727C136.561 251.592 138.603 251.966 140.701 251.966C142.782 251.966 144.564 251.131 145.971 250.061L145.992 250.045C146.707 249.496 147.374 248.88 147.999 248.21C148.214 248.459 148.438 248.7 148.671 248.932C148.698 248.959 148.725 248.986 148.752 249.012C148.765 249.024 148.778 249.036 148.791 249.048C149.552 249.755 150.395 250.355 151.31 250.845C152.247 251.365 153.31 251.77 154.482 251.927C156.596 252.209 158.617 250.968 159.323 248.956C159.398 248.743 159.475 248.53 159.554 248.317L159.587 248.353C160.395 249.219 161.322 249.941 162.338 250.529C163.429 251.16 164.6 251.598 165.821 251.863C167.25 252.174 168.741 251.771 169.819 250.782C169.942 250.669 170.057 250.551 170.165 250.428C170.918 251.077 171.749 251.626 172.653 252.065C173.954 252.732 175.384 253.11 176.9 253.11C178.117 253.11 179.309 252.92 180.464 252.562C181.697 252.214 182.858 251.657 183.9 250.87C184.973 250.085 185.848 249.107 186.515 247.977C186.661 248.142 186.812 248.303 186.967 248.46C187.649 249.183 188.397 249.832 189.215 250.394C189.999 250.934 190.92 251.45 191.949 251.767C193.314 252.187 194.797 251.934 195.946 251.086C196.405 250.747 196.789 250.329 197.084 249.858C197.139 249.9 197.193 249.942 197.248 249.984C198.022 250.596 198.858 251.117 199.752 251.538C201.081 252.163 202.631 252.101 203.905 251.371C203.999 251.317 204.092 251.259 204.181 251.199C205.314 251.687 206.545 251.966 207.856 251.966C209.881 251.966 211.711 251.273 213.28 250.28L213.318 250.255C213.335 250.245 213.352 250.234 213.368 250.222C214.643 249.373 215.81 248.346 216.878 247.176C217.096 247.501 217.329 247.815 217.576 248.12C218.243 248.941 219.002 249.683 219.864 250.315C220.65 250.892 221.586 251.437 222.657 251.767C223.64 252.069 224.683 252.023 225.619 251.657C225.357 251.789 225.105 251.947 224.868 252.131C223.634 253.092 222.987 254.624 223.16 256.179C223.32 257.627 223.869 258.92 224.665 260.021C225.301 260.973 226.078 261.797 226.967 262.495C227.908 263.295 228.965 263.908 230.104 264.346C231.304 264.822 232.569 265.07 233.872 265.07C235.502 265.07 237.076 264.702 238.536 263.971C239.829 263.325 240.984 262.467 242.008 261.45C243.015 260.483 243.911 259.381 244.71 258.173C245.513 257.04 246.245 255.827 246.909 254.542C247.278 253.843 247.778 252.799 248.39 251.475C249.063 250.092 249.782 248.549 250.546 246.848C251.347 245.14 252.165 243.365 252.999 241.522L253.012 241.494C253.85 239.61 254.603 237.875 255.273 236.29C255.968 234.69 256.541 233.313 256.983 232.173C257.218 231.595 257.424 231.053 257.575 230.589C257.649 230.359 257.738 230.063 257.806 229.744L257.81 229.727C257.837 229.606 257.949 229.1 257.922 228.438C257.893 227.055 257.46 225.776 256.728 224.679C256.185 223.82 255.516 223.081 254.771 222.451C254.044 221.836 253.248 221.313 252.41 220.869C251.637 220.46 250.845 220.109 250.034 219.823C248.691 219.349 247.202 219.538 246.021 220.335C245.326 220.803 244.786 221.449 244.446 222.19C244.165 221.86 243.867 221.546 243.554 221.246C242.786 220.446 241.921 219.761 240.978 219.183C240.859 219.103 240.737 219.026 240.614 218.95C240.664 218.808 240.712 218.669 240.755 218.535L240.762 218.514C240.853 218.234 241.117 217.421 241.117 216.526C241.117 215.207 240.728 214.03 240.293 213.095C239.872 212.158 239.341 211.28 238.72 210.461C238.092 209.599 237.375 208.811 236.576 208.1C235.746 207.33 234.807 206.661 233.749 206.162C232.137 205.404 230.229 205.668 228.883 206.835C227.712 207.852 227.159 209.387 227.381 210.891C227.378 210.906 227.375 210.923 227.372 210.94C227.35 211.053 227.318 211.199 227.272 211.382C227.047 212.219 226.689 213.305 226.171 214.664C225.649 216.036 225.02 217.56 224.282 219.238L224.264 219.278C223.732 220.519 223.171 221.782 222.579 223.066C222.305 222.744 222.014 222.434 221.705 222.139C220.774 221.217 219.712 220.442 218.515 219.866L218.507 219.863C218.598 219.588 218.679 219.32 218.75 219.062C218.882 218.575 219.064 217.815 219.064 216.994C219.064 215.754 218.737 214.634 218.302 213.687C217.917 212.817 217.429 212.006 216.848 211.256C216.253 210.455 215.563 209.741 214.791 209.115C213.947 208.395 212.979 207.785 211.88 207.373C210.445 206.834 208.835 207.064 207.607 207.981C206.974 208.454 206.488 209.076 206.18 209.777C205.545 208.98 204.835 208.251 204.055 207.59C203.192 206.795 202.184 206.085 201.018 205.605Z" fill="#08124F"/>
  <path d="M55.705 247.154C55.0463 246.703 54.4397 246.201 53.885 245.646C53.365 245.091 52.897 244.519 52.481 243.93C52.0997 243.341 51.805 242.751 51.597 242.162C51.4237 241.573 51.3543 241.053 51.389 240.602C51.4583 240.255 51.6837 239.614 52.065 238.678C52.4463 237.742 52.9143 236.615 53.469 235.298C54.0583 233.981 54.6823 232.525 55.341 230.93C56.0343 229.335 56.6757 227.723 57.265 226.094C57.889 224.465 58.4437 222.887 58.929 221.362C59.4143 219.802 59.7437 218.415 59.917 217.202C61.581 218.207 62.7077 219.282 63.297 220.426C63.8863 221.535 64.129 222.437 64.025 223.13C63.9557 224.135 63.661 225.331 63.141 226.718C62.6557 228.07 62.0837 229.543 61.425 231.138C62.8463 230.826 64.077 230.167 65.117 229.162C66.1917 228.122 67.0583 226.943 67.717 225.626C68.3757 224.309 68.8263 222.974 69.069 221.622C69.3117 220.27 69.329 219.109 69.121 218.138C68.5663 217.583 67.925 217.15 67.197 216.838C66.469 216.526 65.7583 216.301 65.065 216.162C64.3717 215.989 63.7477 215.885 63.193 215.85C62.673 215.815 62.309 215.798 62.101 215.798C59.917 215.798 58.0623 216.318 56.537 217.358C55.0463 218.398 53.8677 219.663 53.001 221.154C52.169 222.645 51.6663 224.222 51.493 225.886C51.3197 227.515 51.4757 228.954 51.961 230.202C50.2623 229.786 48.997 228.85 48.165 227.394C47.333 225.903 46.917 224.17 46.917 222.194C46.917 221.119 47.2117 219.906 47.801 218.554C48.3903 217.202 49.2397 215.937 50.349 214.758C51.4583 213.545 52.793 212.539 54.353 211.742C55.9477 210.91 57.7157 210.494 59.657 210.494C61.4943 210.494 63.245 210.927 64.909 211.794C66.573 212.626 68.029 213.735 69.277 215.122C70.525 216.509 71.513 218.051 72.241 219.75C72.969 221.449 73.333 223.165 73.333 224.898C73.333 226.458 73.0557 227.966 72.501 229.422C71.9463 230.878 71.1663 232.161 70.161 233.27C69.1903 234.379 68.0117 235.281 66.625 235.974C65.273 236.633 63.7823 236.962 62.153 236.962C62.257 237.378 62.3957 237.829 62.569 238.314C62.7423 238.765 62.9677 239.198 63.245 239.614C63.5223 239.995 63.8517 240.325 64.233 240.602C64.6143 240.845 65.0477 240.966 65.533 240.966C65.8797 240.966 66.209 240.949 66.521 240.914C66.8677 240.879 67.1797 240.758 67.457 240.55C67.769 240.342 68.0463 240.03 68.289 239.614C68.5663 239.198 68.809 238.626 69.017 237.898C69.6063 239.285 69.953 240.567 70.057 241.746C70.161 242.925 70.057 243.947 69.745 244.814C69.433 245.646 68.913 246.305 68.185 246.79C67.457 247.241 66.573 247.466 65.533 247.466C64.5623 247.466 63.713 247.119 62.985 246.426C62.257 245.733 61.6157 244.866 61.061 243.826C60.541 242.751 60.0903 241.607 59.709 240.394C59.3623 239.146 59.085 238.002 58.877 236.962C58.1837 238.73 57.5423 240.481 56.953 242.214C56.3637 243.947 55.9477 245.594 55.705 247.154Z" fill="white"/>
  <path d="M83.41 223.234C84.138 223.269 84.9354 223.529 85.802 224.014C86.7034 224.499 87.5354 225.123 88.298 225.886C89.0607 226.649 89.702 227.498 90.222 228.434C90.742 229.37 91.002 230.341 91.002 231.346C91.002 232.351 90.742 233.322 90.222 234.258C89.702 235.194 89.078 236.026 88.35 236.754C87.622 237.482 86.8594 238.071 86.062 238.522C85.2994 238.938 84.658 239.146 84.138 239.146C83.098 239.146 82.11 238.955 81.174 238.574C80.238 238.158 79.4754 237.447 78.886 236.442C78.6434 236.858 78.3487 237.517 78.002 238.418C77.69 239.319 77.482 240.238 77.378 241.174C77.274 242.075 77.378 242.873 77.69 243.566C78.002 244.259 78.6434 244.606 79.614 244.606C80.238 244.606 80.862 244.485 81.486 244.242C82.11 243.999 82.6994 243.722 83.254 243.41C83.8434 243.063 84.3807 242.699 84.866 242.318C85.3514 241.902 85.802 241.538 86.218 241.226C86.4954 241.503 86.686 241.815 86.79 242.162C86.9287 242.509 86.998 242.873 86.998 243.254C86.998 243.601 86.9807 243.947 86.946 244.294C86.9114 244.606 86.8767 244.901 86.842 245.178C86.3567 245.698 85.6634 246.218 84.762 246.738C83.8954 247.223 82.8034 247.466 81.486 247.466C80.6887 247.466 79.77 247.258 78.73 246.842C77.69 246.391 76.702 245.767 75.766 244.97C74.8647 244.138 74.102 243.133 73.478 241.954C72.8194 240.741 72.49 239.371 72.49 237.846C72.49 236.321 72.854 234.709 73.582 233.01C74.2754 231.277 75.1594 229.699 76.234 228.278C77.3434 226.822 78.522 225.626 79.77 224.69C81.0527 223.719 82.266 223.234 83.41 223.234ZM79.458 235.09C79.7354 235.229 80.082 235.298 80.498 235.298C81.226 235.298 81.954 235.038 82.682 234.518C83.41 233.963 84.0514 233.322 84.606 232.594C85.1954 231.866 85.6807 231.103 86.062 230.306C86.4434 229.509 86.6514 228.85 86.686 228.33C85.9927 228.365 85.2994 228.625 84.606 229.11C83.9127 229.595 83.254 230.185 82.63 230.878C82.006 231.537 81.4167 232.247 80.862 233.01C80.3074 233.773 79.8394 234.466 79.458 235.09Z" fill="white"/>
  <path d="M101.149 222.454C101.947 222.454 102.848 222.697 103.853 223.182C104.893 223.633 105.864 224.187 106.765 224.846C107.667 225.505 108.412 226.215 109.001 226.978C109.625 227.706 109.937 228.365 109.937 228.954C109.937 229.786 109.816 230.705 109.573 231.71C109.331 232.715 108.984 233.669 108.533 234.57C108.083 235.437 107.545 236.182 106.921 236.806C106.297 237.395 105.604 237.69 104.841 237.69C104.217 237.69 103.645 237.499 103.125 237.118C102.64 236.737 102.224 236.303 101.877 235.818C101.531 235.333 101.271 234.847 101.097 234.362C100.924 233.877 100.855 233.513 100.889 233.27C101.375 233.235 101.843 233.062 102.293 232.75C102.744 232.403 103.125 231.97 103.437 231.45C103.784 230.93 104.044 230.358 104.217 229.734C104.425 229.075 104.529 228.434 104.529 227.81C103.559 227.845 102.709 228.087 101.981 228.538C101.288 228.954 100.699 229.457 100.213 230.046C99.7627 230.635 99.416 231.259 99.1733 231.918C98.9307 232.542 98.8093 233.114 98.8093 233.634C98.8093 234.431 99 235.194 99.3813 235.922C99.7973 236.65 100.231 237.395 100.681 238.158C101.167 238.886 101.6 239.649 101.981 240.446C102.363 241.243 102.553 242.11 102.553 243.046C102.553 243.982 102.363 244.814 101.981 245.542C101.6 246.235 101.097 246.807 100.473 247.258C99.884 247.709 99.208 248.038 98.4453 248.246C97.6827 248.489 96.92 248.61 96.1573 248.61C95.3947 248.61 94.6493 248.419 93.9213 248.038C93.1933 247.691 92.5347 247.223 91.9453 246.634C91.356 246.01 90.8707 245.317 90.4893 244.554C90.0733 243.757 89.8307 242.925 89.7613 242.058C89.9347 242.439 90.2467 242.734 90.6973 242.942C91.148 243.115 91.668 243.202 92.2573 243.202C92.7427 243.202 93.2453 243.133 93.7653 242.994C94.2507 242.821 94.684 242.561 95.0653 242.214C95.4813 241.833 95.8107 241.365 96.0533 240.81C96.3307 240.255 96.4693 239.597 96.4693 238.834C96.4693 238.175 96.3133 237.551 96.0013 236.962C95.6893 236.373 95.3427 235.731 94.9613 235.038C94.58 234.345 94.2333 233.565 93.9213 232.698C93.6093 231.831 93.4533 230.809 93.4533 229.63C93.4533 228.694 93.7133 227.81 94.2333 226.978C94.7187 226.111 95.3427 225.349 96.1053 224.69C96.868 223.997 97.7 223.459 98.6013 223.078C99.5027 222.662 100.352 222.454 101.149 222.454Z" fill="white"/>
  <path d="M114.402 222.298C115.026 222.506 115.616 222.853 116.17 223.338C116.76 223.823 117.28 224.343 117.73 224.898C118.181 225.453 118.545 225.99 118.822 226.51C119.1 226.995 119.256 227.359 119.29 227.602C119.256 227.741 119.186 227.931 119.082 228.174C119.013 228.417 118.926 228.677 118.822 228.954C118.718 229.197 118.614 229.439 118.51 229.682C118.441 229.925 118.406 230.098 118.406 230.202C118.822 229.578 119.36 228.867 120.018 228.07C120.677 227.238 121.37 226.441 122.098 225.678C122.826 224.915 123.554 224.274 124.282 223.754C125.01 223.234 125.669 222.974 126.258 222.974C126.744 222.974 127.264 223.199 127.818 223.65C128.408 224.066 128.945 224.586 129.43 225.21C129.95 225.834 130.384 226.493 130.73 227.186C131.077 227.845 131.25 228.417 131.25 228.902C131.25 229.318 131.077 230.063 130.73 231.138C130.418 232.213 129.95 233.443 129.326 234.83C128.737 236.182 128.026 237.621 127.194 239.146C126.362 240.637 125.444 242.006 124.438 243.254C123.468 244.467 122.428 245.49 121.318 246.322C120.209 247.119 119.082 247.518 117.938 247.518C117.418 247.518 116.916 247.362 116.43 247.05C115.98 246.738 115.546 246.322 115.13 245.802C114.749 245.282 114.402 244.693 114.09 244.034C113.813 243.375 113.622 242.717 113.518 242.058C113.206 242.751 112.808 243.618 112.322 244.658C111.872 245.698 111.386 246.807 110.866 247.986C110.346 249.165 109.844 250.361 109.358 251.574C108.838 252.787 108.37 253.931 107.954 255.006C107.538 256.081 107.209 257.034 106.966 257.866C106.724 258.698 106.62 259.305 106.654 259.686C105.926 259.443 105.285 259.079 104.73 258.594C104.176 258.143 103.725 257.641 103.378 257.086C102.997 256.566 102.72 256.029 102.546 255.474C102.338 254.919 102.234 254.399 102.234 253.914C102.234 253.671 102.425 253.065 102.806 252.094C103.188 251.123 103.708 249.91 104.366 248.454C104.99 246.998 105.701 245.369 106.498 243.566C107.296 241.763 108.093 239.943 108.89 238.106C109.688 236.234 110.468 234.414 111.23 232.646C111.958 230.843 112.582 229.214 113.102 227.758C113.657 226.302 114.056 225.089 114.298 224.118C114.541 223.147 114.576 222.541 114.402 222.298ZM125.478 227.186C124.889 227.602 124.213 228.209 123.45 229.006C122.722 229.769 121.96 230.635 121.162 231.606C120.365 232.542 119.585 233.547 118.822 234.622C118.094 235.697 117.436 236.719 116.846 237.69C116.292 238.626 115.858 239.493 115.546 240.29C115.234 241.053 115.13 241.642 115.234 242.058C115.928 242.058 116.656 241.763 117.418 241.174C118.216 240.585 118.978 239.839 119.706 238.938C120.469 238.002 121.18 236.962 121.838 235.818C122.532 234.674 123.138 233.565 123.658 232.49C124.213 231.381 124.646 230.358 124.958 229.422C125.27 228.451 125.444 227.706 125.478 227.186Z" fill="white"/>
  <path d="M141.845 222.922C142.885 222.922 143.977 223.147 145.121 223.598C146.299 224.014 147.374 224.569 148.345 225.262C149.315 225.955 150.113 226.753 150.737 227.654C151.395 228.521 151.725 229.422 151.725 230.358C151.725 230.947 151.569 231.779 151.257 232.854C150.945 233.929 150.511 235.107 149.957 236.39C149.437 237.673 148.813 238.973 148.085 240.29C147.391 241.573 146.629 242.751 145.797 243.826C144.999 244.901 144.15 245.785 143.249 246.478C142.382 247.137 141.533 247.466 140.701 247.466C139.141 247.466 137.754 247.189 136.541 246.634C135.327 246.045 134.322 245.334 133.525 244.502C132.693 243.67 132.069 242.769 131.653 241.798C131.237 240.827 131.029 239.961 131.029 239.198C131.029 238.678 131.167 237.915 131.445 236.91C131.722 235.905 132.121 234.795 132.641 233.582C133.126 232.369 133.698 231.138 134.357 229.89C135.05 228.607 135.795 227.446 136.593 226.406C137.425 225.366 138.274 224.517 139.141 223.858C140.042 223.199 140.943 222.887 141.845 222.922ZM145.693 227.602C145.589 227.567 145.433 227.55 145.225 227.55C144.289 227.55 143.318 228.105 142.313 229.214C141.307 230.323 140.371 231.71 139.505 233.374C138.638 235.038 137.893 236.841 137.269 238.782C136.645 240.689 136.246 242.457 136.073 244.086C137.737 243.219 139.175 242.023 140.389 240.498C141.637 238.938 142.642 237.326 143.405 235.662C144.202 233.998 144.791 232.438 145.173 230.982C145.554 229.491 145.727 228.365 145.693 227.602Z" fill="white"/>
  <path d="M157.469 220.946C157.919 221.085 158.422 221.379 158.977 221.83C159.566 222.281 160.121 222.801 160.641 223.39C161.161 223.945 161.594 224.551 161.941 225.21C162.322 225.834 162.513 226.389 162.513 226.874C162.513 227.117 162.287 227.793 161.837 228.902C161.386 230.011 160.797 231.398 160.069 233.062C161.594 230.705 163.067 228.659 164.489 226.926C165.91 225.193 167.071 223.945 167.973 223.182C168.458 223.286 168.978 223.511 169.533 223.858C170.087 224.17 170.59 224.569 171.041 225.054C171.526 225.539 171.925 226.077 172.237 226.666C172.549 227.221 172.705 227.793 172.705 228.382C172.705 228.763 172.531 229.353 172.185 230.15C171.873 230.913 171.474 231.831 170.989 232.906C170.503 233.946 169.983 235.09 169.429 236.338C168.874 237.586 168.371 238.851 167.921 240.134C167.505 241.417 167.175 242.699 166.933 243.982C166.69 245.23 166.638 246.391 166.777 247.466C165.979 247.293 165.251 247.015 164.593 246.634C163.934 246.253 163.362 245.802 162.877 245.282C162.426 244.762 162.062 244.207 161.785 243.618C161.542 242.994 161.421 242.37 161.421 241.746C161.421 241.122 161.594 240.238 161.941 239.094C162.322 237.915 162.755 236.702 163.241 235.454C163.726 234.206 164.211 233.045 164.697 231.97C165.217 230.895 165.598 230.133 165.841 229.682C165.355 230.202 164.645 231.051 163.709 232.23C162.773 233.409 161.785 234.795 160.745 236.39C159.705 237.985 158.665 239.735 157.625 241.642C156.619 243.549 155.77 245.49 155.077 247.466C154.557 247.397 154.019 247.206 153.465 246.894C152.875 246.582 152.338 246.201 151.853 245.75C151.367 245.265 150.969 244.762 150.657 244.242C150.31 243.687 150.137 243.167 150.137 242.682C150.137 242.335 150.327 241.677 150.709 240.706C151.09 239.701 151.575 238.522 152.165 237.17C152.719 235.818 153.326 234.345 153.985 232.75C154.643 231.155 155.233 229.613 155.753 228.122C156.307 226.631 156.741 225.245 157.053 223.962C157.399 222.679 157.538 221.674 157.469 220.946Z" fill="white"/>
  <path d="M181.892 222.454C182.689 222.454 183.59 222.697 184.596 223.182C185.636 223.633 186.606 224.187 187.508 224.846C188.409 225.505 189.154 226.215 189.744 226.978C190.368 227.706 190.68 228.365 190.68 228.954C190.68 229.786 190.558 230.705 190.316 231.71C190.073 232.715 189.726 233.669 189.276 234.57C188.825 235.437 188.288 236.182 187.664 236.806C187.04 237.395 186.346 237.69 185.584 237.69C184.96 237.69 184.388 237.499 183.868 237.118C183.382 236.737 182.966 236.303 182.62 235.818C182.273 235.333 182.013 234.847 181.84 234.362C181.666 233.877 181.597 233.513 181.632 233.27C182.117 233.235 182.585 233.062 183.036 232.75C183.486 232.403 183.868 231.97 184.18 231.45C184.526 230.93 184.786 230.358 184.96 229.734C185.168 229.075 185.272 228.434 185.272 227.81C184.301 227.845 183.452 228.087 182.724 228.538C182.03 228.954 181.441 229.457 180.956 230.046C180.505 230.635 180.158 231.259 179.916 231.918C179.673 232.542 179.552 233.114 179.552 233.634C179.552 234.431 179.742 235.194 180.124 235.922C180.54 236.65 180.973 237.395 181.424 238.158C181.909 238.886 182.342 239.649 182.724 240.446C183.105 241.243 183.296 242.11 183.296 243.046C183.296 243.982 183.105 244.814 182.724 245.542C182.342 246.235 181.84 246.807 181.216 247.258C180.626 247.709 179.95 248.038 179.188 248.246C178.425 248.489 177.662 248.61 176.9 248.61C176.137 248.61 175.392 248.419 174.664 248.038C173.936 247.691 173.277 247.223 172.688 246.634C172.098 246.01 171.613 245.317 171.232 244.554C170.816 243.757 170.573 242.925 170.504 242.058C170.677 242.439 170.989 242.734 171.44 242.942C171.89 243.115 172.41 243.202 173 243.202C173.485 243.202 173.988 243.133 174.508 242.994C174.993 242.821 175.426 242.561 175.808 242.214C176.224 241.833 176.553 241.365 176.796 240.81C177.073 240.255 177.212 239.597 177.212 238.834C177.212 238.175 177.056 237.551 176.744 236.962C176.432 236.373 176.085 235.731 175.704 235.038C175.322 234.345 174.976 233.565 174.664 232.698C174.352 231.831 174.196 230.809 174.196 229.63C174.196 228.694 174.456 227.81 174.976 226.978C175.461 226.111 176.085 225.349 176.848 224.69C177.61 223.997 178.442 223.459 179.344 223.078C180.245 222.662 181.094 222.454 181.892 222.454Z" fill="white"/>
  <path d="M195.457 220.842C196.046 221.085 196.635 221.466 197.225 221.986C197.849 222.471 198.403 223.009 198.889 223.598C199.409 224.187 199.825 224.794 200.137 225.418C200.449 226.042 200.605 226.597 200.605 227.082C200.605 227.394 200.414 228.053 200.033 229.058C199.686 230.029 199.235 231.19 198.681 232.542C198.161 233.859 197.571 235.298 196.913 236.858C196.289 238.383 195.699 239.857 195.145 241.278C194.625 242.665 194.174 243.913 193.793 245.022C193.446 246.131 193.273 246.946 193.273 247.466C192.822 247.327 192.319 247.067 191.765 246.686C191.21 246.305 190.69 245.854 190.205 245.334C189.685 244.814 189.251 244.242 188.905 243.618C188.558 242.994 188.385 242.37 188.385 241.746C188.385 241.33 188.593 240.602 189.009 239.562C189.39 238.522 189.875 237.326 190.465 235.974C191.054 234.622 191.678 233.201 192.337 231.71C192.995 230.185 193.585 228.711 194.105 227.29C194.625 225.869 195.023 224.586 195.301 223.442C195.578 222.298 195.63 221.431 195.457 220.842ZM199.305 209.766C199.894 210.009 200.483 210.407 201.073 210.962C201.697 211.482 202.251 212.054 202.737 212.678C203.257 213.302 203.673 213.926 203.985 214.55C204.297 215.139 204.453 215.642 204.453 216.058C204.453 216.474 204.366 216.925 204.193 217.41C204.019 217.861 203.829 218.381 203.621 218.97C203.413 219.525 203.187 220.131 202.945 220.79C202.737 221.414 202.581 222.09 202.477 222.818C202.026 222.679 201.506 222.35 200.917 221.83C200.362 221.31 199.825 220.738 199.305 220.114C198.785 219.455 198.334 218.831 197.953 218.242C197.606 217.618 197.433 217.133 197.433 216.786C197.433 216.474 197.537 216.041 197.745 215.486C197.987 214.931 198.23 214.342 198.473 213.718C198.75 213.059 198.975 212.401 199.149 211.742C199.357 211.049 199.409 210.39 199.305 209.766Z" fill="white"/>
  <path d="M210.3 211.586C210.855 211.794 211.392 212.123 211.912 212.574C212.432 212.99 212.883 213.458 213.264 213.978C213.646 214.463 213.958 214.983 214.2 215.538C214.443 216.058 214.564 216.543 214.564 216.994C214.564 217.41 214.356 218.173 213.94 219.282C213.524 220.357 213.056 221.483 212.536 222.662C212.016 223.806 211.514 224.863 211.028 225.834C210.578 226.805 210.3 227.394 210.196 227.602C211.306 226.493 212.259 225.522 213.056 224.69C213.888 223.823 214.443 223.39 214.72 223.39C215.24 223.39 215.847 223.563 216.54 223.91C217.268 224.257 217.944 224.742 218.568 225.366C219.192 225.955 219.73 226.666 220.18 227.498C220.631 228.295 220.856 229.179 220.856 230.15C220.856 230.774 220.666 231.641 220.284 232.75C219.938 233.859 219.435 235.055 218.776 236.338C218.152 237.621 217.407 238.921 216.54 240.238C215.708 241.555 214.807 242.751 213.836 243.826C212.9 244.901 211.912 245.785 210.872 246.478C209.832 247.137 208.827 247.466 207.856 247.466C206.816 247.466 205.811 247.119 204.84 246.426C203.87 245.733 203.211 244.797 202.864 243.618C202.622 244.277 202.379 244.987 202.136 245.75C201.859 246.513 201.703 247.085 201.668 247.466C201.079 247.189 200.524 246.842 200.004 246.426C199.45 246.01 198.982 245.559 198.6 245.074C198.184 244.589 197.872 244.121 197.664 243.67C197.422 243.185 197.3 242.769 197.3 242.422C197.3 242.249 197.491 241.729 197.872 240.862C198.254 239.995 198.756 238.903 199.38 237.586C200.004 236.234 200.715 234.726 201.512 233.062C202.31 231.398 203.107 229.682 203.904 227.914C204.736 226.146 205.551 224.395 206.348 222.662C207.146 220.929 207.839 219.317 208.428 217.826C209.018 216.335 209.486 215.053 209.832 213.978C210.179 212.869 210.335 212.071 210.3 211.586ZM205.776 243.826C206.747 243.41 207.648 242.734 208.48 241.798C209.347 240.827 210.127 239.753 210.82 238.574C211.548 237.361 212.19 236.095 212.744 234.778C213.334 233.461 213.819 232.247 214.2 231.138C214.616 230.029 214.928 229.075 215.136 228.278C215.379 227.481 215.535 227.013 215.604 226.874C215.396 226.805 214.963 227.047 214.304 227.602C213.646 228.122 212.883 228.867 212.016 229.838C211.184 230.774 210.318 231.866 209.416 233.114C208.55 234.327 207.787 235.575 207.128 236.858C206.47 238.141 205.984 239.389 205.672 240.602C205.395 241.815 205.43 242.89 205.776 243.826Z" fill="white"/>
  <path d="M231.833 210.234C232.422 210.511 232.994 210.91 233.549 211.43C234.138 211.95 234.658 212.522 235.109 213.146C235.559 213.735 235.923 214.342 236.201 214.966C236.478 215.555 236.617 216.075 236.617 216.526C236.617 216.769 236.426 217.358 236.045 218.294C235.698 219.195 235.23 220.339 234.641 221.726C234.051 223.113 233.375 224.655 232.613 226.354C231.85 228.053 231.07 229.786 230.273 231.554C229.51 233.322 228.747 235.073 227.985 236.806C227.222 238.539 226.546 240.134 225.957 241.59C225.367 243.046 224.882 244.294 224.501 245.334C224.154 246.374 223.981 247.085 223.981 247.466C223.53 247.327 223.045 247.067 222.525 246.686C222.005 246.305 221.519 245.837 221.069 245.282C220.618 244.727 220.254 244.138 219.977 243.514C219.665 242.855 219.509 242.197 219.509 241.538C219.509 241.226 219.699 240.585 220.081 239.614C220.462 238.643 220.965 237.465 221.589 236.078C222.213 234.657 222.923 233.114 223.721 231.45C224.483 229.751 225.263 228.018 226.061 226.25C226.893 224.482 227.673 222.749 228.401 221.05C229.163 219.317 229.822 217.722 230.377 216.266C230.931 214.81 231.347 213.562 231.625 212.522C231.902 211.447 231.971 210.685 231.833 210.234Z" fill="white"/>
  <path d="M241.776 240.81C241.256 241.434 240.649 242.075 239.956 242.734C239.263 243.393 238.552 244.034 237.824 244.658C237.096 245.247 236.385 245.785 235.692 246.27C235.033 246.755 234.461 247.154 233.976 247.466C233.491 247.362 232.988 247.154 232.468 246.842C231.948 246.495 231.463 246.097 231.012 245.646C230.561 245.161 230.197 244.641 229.92 244.086C229.608 243.531 229.452 242.994 229.452 242.474C229.452 242.127 229.643 241.521 230.024 240.654C230.405 239.753 230.891 238.695 231.48 237.482C232.035 236.234 232.641 234.899 233.3 233.478C233.924 232.057 234.496 230.653 235.016 229.266C235.536 227.879 235.952 226.562 236.264 225.314C236.576 224.066 236.68 223.009 236.576 222.142C237.235 222.246 237.893 222.523 238.552 222.974C239.245 223.39 239.852 223.875 240.372 224.43C240.927 224.95 241.377 225.505 241.724 226.094C242.071 226.683 242.244 227.221 242.244 227.706C242.244 227.914 242.123 228.365 241.88 229.058C241.637 229.717 241.325 230.497 240.944 231.398C240.597 232.299 240.199 233.27 239.748 234.31C239.332 235.315 238.916 236.286 238.5 237.222C238.084 238.158 237.703 239.007 237.356 239.77C237.009 240.533 236.749 241.087 236.576 241.434C237.235 240.983 237.98 240.359 238.812 239.562C239.644 238.765 240.493 237.846 241.36 236.806C242.227 235.766 243.076 234.674 243.908 233.53C244.775 232.351 245.537 231.19 246.196 230.046C246.855 228.902 247.392 227.81 247.808 226.77C248.259 225.73 248.501 224.829 248.536 224.066C249.125 224.274 249.715 224.534 250.304 224.846C250.893 225.158 251.413 225.505 251.864 225.886C252.315 226.267 252.679 226.683 252.956 227.134C253.268 227.585 253.424 228.07 253.424 228.59C253.459 228.763 253.251 229.405 252.8 230.514C252.384 231.589 251.829 232.923 251.136 234.518C250.477 236.078 249.732 237.794 248.9 239.666C248.068 241.503 247.253 243.271 246.456 244.97C245.693 246.669 244.983 248.194 244.324 249.546C243.7 250.898 243.232 251.869 242.92 252.458C242.331 253.602 241.689 254.659 240.996 255.63C240.337 256.635 239.627 257.502 238.864 258.23C238.136 258.958 237.356 259.53 236.524 259.946C235.692 260.362 234.808 260.57 233.872 260.57C233.144 260.57 232.433 260.431 231.74 260.154C231.012 259.877 230.371 259.495 229.816 259.01C229.227 258.559 228.741 258.039 228.36 257.45C227.944 256.895 227.701 256.306 227.632 255.682C227.909 255.786 228.204 255.855 228.516 255.89C228.793 255.925 229.071 255.942 229.348 255.942C230.908 255.942 232.347 255.37 233.664 254.226C234.981 253.082 236.16 251.695 237.2 250.066C238.24 248.471 239.141 246.825 239.904 245.126C240.667 243.393 241.291 241.954 241.776 240.81Z" fill="white"/>
  <path d="M111.683 119.606C111.683 119.606 112.923 110.416 121.323 109.936C128.323 109.536 131.043 118.176 131.043 118.176C131.043 118.176 133.843 107.546 143.413 108.176C152.983 108.806 152.053 119.506 152.053 119.506C152.053 119.506 154.833 108.506 165.563 107.586C176.293 106.666 178.873 119.756 178.873 119.756C178.873 119.756 192.473 114.646 197.333 126.506C203.333 141.126 189.183 146.756 189.183 146.756C189.183 146.756 198.743 155.416 189.843 162.756C181.603 169.566 170.773 160.756 170.773 160.756C170.773 160.756 176.853 173.586 163.773 178.036C150.693 182.486 143.693 167.566 143.693 167.566C143.693 167.566 143.943 180.166 133.443 181.106C122.943 182.046 118.263 168.996 118.263 168.996C118.263 168.996 100.123 181.576 90.8834 164.996C82.4734 149.906 101.193 142.176 101.193 142.176C101.193 142.176 86.0934 134.516 94.1934 123.036C100.323 114.446 111.683 119.606 111.683 119.606Z" fill="white"/>
  <path d="M135.173 93.956L135.003 87.206C135.003 87.206 135.173 83.656 130.953 80.796C126.733 77.936 123.263 74.796 124.413 67.486C125.663 59.486 135.173 53.786 144.283 59.356C153.393 64.926 150.753 74.506 146.973 78.926C144.453 81.866 144.453 83.156 144.793 86.026C145.133 88.896 145.303 92.266 145.303 92.266L135.173 93.956Z" fill="white"/>
  <path d="M144.913 101.536C147.813 101.196 147.603 98.9761 146.723 97.6161C146.263 96.9261 145.923 96.3661 146.423 95.7461C148.183 93.5261 146.113 93.4361 145.953 92.1961C145.793 90.9561 147.163 89.8861 145.013 88.5161L134.843 89.0161C134.843 89.0161 132.213 90.8461 133.943 92.5361C135.213 93.7661 133.063 94.2961 133.703 95.9161C134.04 96.2429 134.261 96.6705 134.333 97.1342C134.405 97.5979 134.324 98.0724 134.103 98.4861C131.163 103.606 141.883 101.886 144.913 101.536Z" fill="white"/>
  <path fill-rule="evenodd" clip-rule="evenodd" d="M117.5 170.9C119.3 176.6 125.4 182.3 132.3 182.3C136.1 182.3 139 181.1 141.2 178.6C143.2 176.3 143.9 173.4 144.2 170.9C145 172.1 146 173.3 147.2 174.5C152 179.2 157.3 181 162.7 179.7C167.1 178.6 170.1 176.5 171.7 173.5C173.2 170.8 173.5 167.5 172.7 163.6C177.6 166.5 185.4 168.6 191.3 163.4C193.7 161.2 194.9 158.7 194.9 156C194.8 152.2 192.4 149 190.6 147.2C194.5 145.1 201.2 139.7 199.6 129.2C199 125.4 197.2 122.4 194.1 120.4C189.9 117.5 184 117.1 179.6 117.8C179.2 113.7 176.3 107.6 167.6 106.1C160.5 104.9 155.4 109.3 152.5 114.7C151.2 111.3 148.3 107.7 143 107.1C137.5 106.4 133.4 109 130.8 114.7C129 111.1 125.8 108.1 121.3 108.1C115.4 108.1 111.8 113.8 110.5 117.6C106 115.9 97.3002 115.5 92.2002 123.8C90.5002 126.6 90.0002 129.4 90.7002 132.2C91.7002 136.4 95.2002 139.8 98.2002 142C95.0002 143.3 91.6002 146.1 89.5002 149.4C87.5002 152.4 85.7002 157.2 88.1002 163C90.4002 168.5 93.8002 172.1 98.4002 173.7C105.4 176.1 113.3 173 117.5 170.9ZM118.9 167.8C118.7 167.7 118.5 167.7 118.3 167.7C118.1 167.7 117.9 167.7 117.7 167.8C114.4 169.6 106.2 173.6 99.2002 171.2C95.4002 169.9 92.5002 166.8 90.5002 162C88.6002 157.2 90.1002 153.2 92.0002 150.4C94.6002 146.3 99.0002 143.7 101.7 143.5C102.3 143.5 102.8 143 102.9 142.5C103 142 102.8 141.4 102.3 141.1C99.5002 139.4 94.6002 135.9 93.5002 131.3C93.0002 129.1 93.4002 127.1 94.7002 124.9C99.5002 117.1 107.8 118.5 110.9 120.3C111.3 120.5 111.7 120.6 112.1 120.4C112.4 120.3 112.7 119.9 112.8 119.5C113.3 116.6 116.3 110.5 121.5 110.5C127 110.5 129.2 116.6 129.7 118.5C129.8 119.1 130.3 119.5 130.9 119.5C131.5 119.6 132 119.2 132.2 118.6C134.2 111.8 137.6 108.9 142.8 109.5C149.6 110.3 151 116.8 150.7 119.1C150.6 119.7 151 120.4 151.7 120.5C152.3 120.6 153 120.2 153.2 119.6C153.6 118.3 157.6 106.8 167.2 108.5C175.4 110 177.3 116.1 177.1 119.2C177.1 119.6 177.3 120 177.6 120.3C177.9 120.6 178.3 120.7 178.7 120.6C181.9 119.8 188.3 119.6 192.7 122.5C195.2 124.2 196.6 126.5 197.1 129.6C198.7 139.8 191.2 144.3 187.9 145.7C187.5 145.9 187.2 146.3 187.1 146.7C187 147.2 187.2 147.6 187.5 147.9C189.7 149.8 192.2 152.9 192.2 156C192.2 157.9 191.3 159.8 189.4 161.4C183.3 166.8 174.3 162.3 171.1 159.4C170.6 159 170 159 169.5 159.3C169 159.6 168.8 160.2 169 160.8C170.6 165.6 170.7 169.4 169.2 172.2C167.9 174.6 165.5 176.2 161.9 177.1C151.707 179.648 144.81 167.409 143.983 165.942C143.934 165.855 143.906 165.806 143.9 165.8C143.7 165.2 143 164.9 142.4 165.1C141.8 165.3 141.4 165.9 141.5 166.5C141.5 166.505 141.503 166.527 141.507 166.564C141.581 167.258 142.231 173.294 139.1 176.9C137.5 178.7 135.3 179.6 132.3 179.6C126.2 179.6 120.5 173.9 119.6 168.7C119.6 168.3 119.3 168 118.9 167.8ZM223.29 109.339C223.201 108.626 222.551 108.121 221.839 108.21C221.127 108.299 220.621 108.949 220.71 109.661C221.674 117.372 219.234 134.288 202.041 140.784C201.369 141.038 201.03 141.788 201.284 142.459C201.538 143.131 202.288 143.47 202.96 143.216C221.766 136.111 224.326 117.628 223.29 109.339ZM235.168 130.071C235.484 129.426 235.216 128.647 234.571 128.332C233.926 128.017 233.148 128.284 232.832 128.929C224.351 146.277 206.793 149.345 199.108 148.704C198.393 148.645 197.764 149.177 197.705 149.892C197.645 150.608 198.177 151.236 198.892 151.296C207.207 151.988 226.049 148.723 235.168 130.071ZM67.631 114.757C68.3176 114.829 68.8156 115.444 68.7433 116.131C68.436 119.051 68.9898 123.799 71.7207 128.33C74.4276 132.82 79.3131 137.165 87.8034 139.287C88.4731 139.455 88.8803 140.133 88.7129 140.803C88.5454 141.473 87.8668 141.88 87.197 141.713C78.0873 139.435 72.6394 134.696 69.5796 129.62C66.5439 124.584 65.8978 119.283 66.2571 115.869C66.3293 115.183 66.9445 114.685 67.631 114.757ZM56.676 127.575C56.4416 126.926 55.7251 126.59 55.0758 126.824C54.4265 127.059 54.0902 127.775 54.3246 128.425C56.645 134.85 66.2885 147.426 86.4494 148.249C87.1391 148.277 87.7211 147.741 87.7493 147.051C87.7775 146.361 87.2411 145.779 86.5513 145.751C67.5122 144.974 58.689 133.15 56.676 127.575ZM159.529 127.288C160.198 127.028 160.952 127.36 161.212 128.029C161.87 129.72 162.282 132.322 161.585 134.692C161.229 135.901 160.575 137.076 159.494 138.007C158.41 138.94 156.974 139.563 155.161 139.79C151.558 140.24 149.145 139.058 147.659 137.251C146.245 135.532 145.797 133.407 145.704 132.093C145.652 131.377 146.191 130.755 146.908 130.703C147.624 130.652 148.246 131.191 148.297 131.907C148.37 132.927 148.723 134.452 149.667 135.599C150.538 136.659 152.042 137.56 154.839 137.21C156.227 137.037 157.161 136.585 157.797 136.037C158.436 135.487 158.851 134.774 159.091 133.958C159.585 132.278 159.297 130.28 158.789 128.971C158.528 128.302 158.86 127.549 159.529 127.288ZM139.3 132.5C139.3 131.782 138.718 131.2 138 131.2C137.282 131.2 136.7 131.782 136.7 132.5C136.7 134.69 136.451 136.91 135.638 138.623C134.867 140.249 133.595 141.428 131.339 141.71C128.588 142.054 126.874 141.11 125.689 139.802C124.436 138.42 123.729 136.576 123.234 135.089C123.007 134.408 122.27 134.04 121.589 134.267C120.908 134.494 120.54 135.23 120.767 135.911C121.271 137.424 122.115 139.73 123.762 141.548C125.477 143.44 128.013 144.746 131.662 144.29C134.906 143.884 136.884 142.063 137.987 139.737C139.05 137.496 139.3 134.81 139.3 132.5ZM154.367 144.194C155.046 143.962 155.785 144.324 156.018 145.003C156.779 147.227 156.906 150.571 155.657 153.552C154.369 156.628 151.635 159.26 146.879 159.877C142.247 160.478 138.986 159.169 136.798 157.14C134.66 155.159 133.662 152.6 133.277 150.831C133.125 150.129 133.57 149.437 134.271 149.284C134.973 149.132 135.665 149.577 135.818 150.278C136.129 151.708 136.934 153.721 138.566 155.234C140.147 156.699 142.621 157.807 146.545 157.298C150.344 156.806 152.315 154.803 153.259 152.548C154.243 150.199 154.13 147.516 153.558 145.845C153.326 145.166 153.688 144.427 154.367 144.194Z" fill="#08124F"/>
  <path fill-rule="evenodd" clip-rule="evenodd" d="M132.777 41.2191C133.485 41.0961 134.158 41.5698 134.281 42.2772L136.281 53.7772C136.404 54.4846 135.93 55.1577 135.223 55.2807C134.516 55.4038 133.842 54.9301 133.719 54.2227L131.719 42.7227C131.596 42.0153 132.07 41.3422 132.777 41.2191ZM120.643 59.4774C121.183 59.9508 122.004 59.8968 122.478 59.357C122.951 58.8171 122.897 57.9958 122.357 57.5225L113.693 49.9258C113.153 49.4525 112.332 49.5064 111.859 50.0462C111.385 50.5861 111.439 51.4074 111.979 51.8807L120.643 59.4774ZM102.741 67.2954C102.871 66.5892 103.548 66.1216 104.254 66.251L117.734 68.7214C118.441 68.8508 118.908 69.5282 118.779 70.2344C118.649 70.9406 117.972 71.4082 117.266 71.2788L103.786 68.8085C103.079 68.679 102.612 68.0016 102.741 67.2954ZM118.299 80.8915C118.905 80.5061 119.084 79.7026 118.698 79.0968C118.313 78.4911 117.509 78.3125 116.903 78.698L108.097 84.3021C107.491 84.6876 107.313 85.4911 107.698 86.0968C108.084 86.7026 108.887 86.8811 109.493 86.4957L118.299 80.8915ZM116.943 95.2435C116.525 95.8274 116.66 96.6394 117.244 97.0572C117.828 97.475 118.64 97.3403 119.057 96.7564L126.344 86.5724C126.762 85.9885 126.627 85.1764 126.043 84.7587C125.46 84.3409 124.648 84.4755 124.23 85.0594L116.943 95.2435ZM153.175 45.5566C153.482 44.9077 153.206 44.1326 152.557 43.8252C151.908 43.5178 151.133 43.7947 150.825 44.4435L146.325 53.9435C146.018 54.5924 146.295 55.3675 146.944 55.6749C147.593 55.9822 148.368 55.7054 148.675 55.0565L153.175 45.5566ZM154.46 64.78C154.029 64.2056 154.146 63.3908 154.72 62.96L162.72 56.96C163.295 56.5292 164.109 56.6456 164.54 57.22C164.971 57.7944 164.855 58.6092 164.28 59.04L156.28 65.04C155.706 65.4708 154.891 65.3544 154.46 64.78ZM167.25 76.2757C167.955 76.4139 168.638 75.9547 168.776 75.2502C168.914 74.5456 168.455 73.8625 167.75 73.7243L157.827 71.7784C157.122 71.6402 156.439 72.0994 156.301 72.8039C156.163 73.5085 156.622 74.1916 157.327 74.3298L167.25 76.2757ZM160.885 88.9526C160.359 89.4411 159.536 89.4107 159.048 88.8845L152.548 81.8846C152.059 81.3585 152.09 80.5359 152.616 80.0474C153.142 79.5588 153.964 79.5893 154.453 80.1154L160.953 87.1154C161.441 87.6415 161.411 88.464 160.885 88.9526ZM137.8 66.4999C137.8 65.782 137.218 65.1999 136.5 65.1999C135.782 65.1999 135.2 65.782 135.2 66.4999L135.2 66.5515C135.2 67.0516 135.2 67.9878 135.335 68.8807C135.406 69.3423 135.521 69.8582 135.727 70.3261C135.925 70.7745 136.274 71.3328 136.901 71.6535C136.902 71.6634 136.903 71.675 136.903 71.6884C136.916 71.9229 136.861 72.2056 136.766 72.7019L136.766 72.7025C136.751 72.7802 136.735 72.8631 136.718 72.9519C136.617 73.4855 136.472 74.2935 136.648 75.0807C136.85 75.9839 137.432 76.7215 138.424 77.1666C138.325 77.2843 138.221 77.3993 138.1 77.5338C138.021 77.6213 137.935 77.7171 137.838 77.8273C137.393 78.3314 136.662 79.182 136.517 80.2547C136.344 81.529 137.009 82.6313 138.22 83.5399C138.803 83.9769 139.158 84.8544 139.286 85.972C139.344 86.478 139.348 86.9699 139.327 87.3772C138.936 87.402 138.564 87.4278 138.217 87.4535C137.638 87.4964 137.125 87.5393 136.698 87.5773C136.627 87.0726 136.507 86.4647 136.306 85.8064C135.765 84.0443 134.611 81.8504 132.169 80.3852C131.047 79.7118 129.289 78.312 127.825 76.4964C126.35 74.6679 125.3 72.5771 125.3 70.5C125.3 68.9204 125.762 66.0834 127.402 63.6112C128.998 61.2054 131.755 59.0657 136.572 58.798C144.829 58.3393 148.771 63.7721 149.207 68.1293C149.656 72.6242 147.401 76.2607 145.581 78.0807C144.546 79.1152 143.969 80.5378 143.643 81.7673C143.312 83.0175 143.2 84.23 143.2 85V87.2128C142.773 87.221 142.35 87.2329 141.934 87.2476C141.948 86.7686 141.933 86.2291 141.869 85.6751C141.716 84.3418 141.237 82.5527 139.78 81.4599C139.378 81.1585 139.209 80.9344 139.141 80.8072C139.085 80.7025 139.087 80.6482 139.093 80.6046C139.119 80.4116 139.295 80.1059 139.787 79.5475C139.844 79.4833 139.909 79.4113 139.978 79.335L139.978 79.3348L139.978 79.3345L139.978 79.3342C140.146 79.148 140.336 78.9359 140.491 78.7462C140.709 78.4787 140.995 78.0948 141.148 77.6376C141.325 77.1059 141.322 76.4583 140.919 75.8598C140.575 75.35 140.038 75.0302 139.512 74.805C139.22 74.6798 139.2 74.5837 139.187 74.5228L139.185 74.5127C139.141 74.3172 139.164 74.0095 139.272 73.4366C139.284 73.3765 139.297 73.3109 139.311 73.2406L139.311 73.2406L139.311 73.2405L139.311 73.2404C139.402 72.7846 139.531 72.1351 139.5 71.551C139.48 71.1772 139.396 70.7431 139.154 70.3252C138.918 69.9177 138.576 69.6009 138.156 69.3759C138.144 69.3563 138.127 69.325 138.107 69.2782C138.03 69.1048 137.959 68.8399 137.906 68.4897C137.8 67.7947 137.8 67.0236 137.8 66.5088V66.5087V66.4999ZM145.8 87.4562V85C145.8 84.4366 145.888 83.4491 146.157 82.4326C146.431 81.3955 146.854 80.4847 147.419 79.9192C149.599 77.7392 152.344 73.3758 151.794 67.8706C151.229 62.2279 146.171 55.6607 136.428 56.202C130.762 56.5168 127.269 59.1092 125.235 62.1739C123.246 65.1722 122.7 68.544 122.7 70.5C122.7 73.4229 124.15 76.082 125.801 78.1285C127.462 80.188 129.454 81.7881 130.831 82.6147C132.556 83.6495 133.402 85.2056 133.82 86.5686C133.965 87.042 134.055 87.4835 134.112 87.8571C133.195 88.164 132.481 88.8845 132.156 89.7671C131.727 90.9277 131.987 92.2721 133.005 93.3412C132.991 93.3576 132.976 93.3751 132.959 93.3939C132.944 93.4118 132.925 93.4326 132.904 93.4562C132.723 93.6579 132.364 94.0594 132.167 94.5312C132.04 94.836 131.96 95.2027 132.003 95.6144C132.045 96.0225 132.2 96.3927 132.419 96.721C132.652 97.0709 132.733 97.2404 132.763 97.3288C132.778 97.3717 132.782 97.3887 132.773 97.4637C132.756 97.6011 132.709 97.7771 132.597 98.1914C132.493 98.5747 132.359 99.0767 132.226 99.745C132.093 100.406 132.233 101.037 132.586 101.566C132.915 102.058 133.387 102.403 133.855 102.65C134.781 103.138 136.02 103.411 137.305 103.543C139.903 103.81 143.201 103.547 145.874 102.745C147.169 102.356 148.307 101.763 148.707 100.652C149.106 99.5474 148.542 98.5327 148.246 98.0283C148.147 97.8611 148.015 97.6515 147.9 97.4705C147.835 97.3672 147.775 97.2733 147.731 97.2018C147.576 96.9486 147.477 96.7623 147.42 96.6119C147.391 96.5363 147.381 96.4896 147.378 96.4655C147.386 96.4549 147.399 96.4395 147.419 96.4192C148.045 95.7932 148.51 95.0215 148.395 94.1088C148.292 93.3027 147.756 92.7477 147.51 92.4937L147.506 92.4895C147.437 92.4182 147.383 92.3638 147.336 92.3167L147.336 92.3164C147.265 92.2451 147.211 92.1901 147.147 92.1198C147.826 91.0343 147.881 89.8082 147.324 88.8061C146.981 88.1893 146.442 87.7234 145.8 87.4562ZM134.815 90.3842L135.644 90.292L135.655 90.2909L135.691 90.2869C135.723 90.2835 135.772 90.2783 135.836 90.2716C135.911 90.2638 136.007 90.2541 136.122 90.2427L144.527 89.8003C144.82 89.8085 144.985 89.9497 145.051 90.0688C145.086 90.1317 145.108 90.2107 145.102 90.3119C145.095 90.4134 145.056 90.5724 144.919 90.7788C144.682 91.133 144.514 91.5352 144.479 91.9812C144.444 92.4345 144.555 92.8292 144.714 93.1485C144.945 93.6093 145.355 94.0166 145.559 94.2187L145.559 94.2192C145.591 94.2501 145.617 94.2762 145.637 94.2969C145.679 94.3401 145.712 94.3767 145.739 94.4071C145.702 94.4527 145.651 94.5103 145.581 94.5807C145.156 95.0056 144.882 95.5142 144.801 96.0886C144.723 96.6389 144.839 97.1356 144.987 97.5286C145.133 97.9173 145.339 98.2739 145.515 98.5618C145.608 98.7134 145.684 98.8317 145.752 98.9395L145.753 98.9396L145.753 98.9398L145.753 98.9401C145.84 99.0767 145.916 99.1965 146.005 99.3466C146.135 99.5681 146.194 99.7043 146.221 99.7785C146.11 99.8651 145.82 100.047 145.127 100.255C142.8 100.953 139.847 101.19 137.57 100.957C136.418 100.839 135.563 100.611 135.068 100.35C134.921 100.273 134.837 100.209 134.793 100.168C134.903 99.6295 135.012 99.2193 135.107 98.871L135.129 98.7886C135.215 98.4729 135.311 98.1194 135.353 97.7862C135.406 97.3611 135.379 96.9406 135.222 96.4836C135.095 96.1137 134.895 95.7588 134.662 95.4003C134.71 95.3398 134.763 95.2798 134.836 95.1973L134.916 95.106L134.938 95.0809C135.135 94.8572 135.564 94.3688 135.69 93.7168C135.856 92.8678 135.48 92.1409 134.92 91.5807C134.501 91.1619 134.534 90.8333 134.595 90.667C134.64 90.5438 134.72 90.4475 134.815 90.3842ZM145.828 94.273C145.828 94.273 145.827 94.277 145.823 94.2853L145.826 94.2782C145.826 94.2757 145.827 94.2741 145.828 94.2734C145.828 94.2732 145.828 94.273 145.828 94.273Z" fill="#08124F"/>
  <defs>
    <filter id="filter0_d_1077_2471" x="6" y="18" width="287.844" height="276.196" filterUnits="userSpaceOnUse" color-interpolation-filters="sRGB">
      <feFlood flood-opacity="0" result="BackgroundImageFix"/>
      <feColorMatrix in="SourceAlpha" type="matrix" values="0 0 0 0 0 0 0 0 0 0 0 0 0 0 0 0 0 0 127 0" result="hardAlpha"/>
      <feOffset dy="6"/>
      <feGaussianBlur stdDeviation="5"/>
      <feComposite in2="hardAlpha" operator="out"/>
      <feColorMatrix type="matrix" values="0 0 0 0 0.0313726 0 0 0 0 0.0705882 0 0 0 0 0.309804 0 0 0 0.25 0"/>
      <feBlend mode="normal" in2="BackgroundImageFix" result="effect1_dropShadow_1077_2471"/>
      <feBlend mode="normal" in="SourceGraphic" in2="effect1_dropShadow_1077_2471" result="shape"/>
    </filter>
  </defs>
</svg>
