<?xml version="1.0" standalone="no"?>
<!DOCTYPE svg PUBLIC "-//W3C//DTD SVG 20010904//EN"
 "http://www.w3.org/TR/2001/REC-SVG-20010904/DTD/svg10.dtd">
<svg version="1.0" xmlns="http://www.w3.org/2000/svg"
 width="700.000000pt" height="700.000000pt" viewBox="0 0 700.000000 700.000000"
 preserveAspectRatio="xMidYMid meet">
<metadata>
Created by potrace 1.14, written by Peter Selinger 2001-2017
</metadata>
<g transform="translate(0.000000,700.000000) scale(0.100000,-0.100000)"
fill="#000000" stroke="none">
<path d="M0 3495 l0 -2625 1718 0 c1721 1 1974 5 2176 35 663 99 1282 465
1687 997 155 203 305 475 387 703 47 128 105 358 128 500 22 135 30 523 14
668 -94 890 -629 1665 -1425 2068 -240 121 -458 193 -755 251 l-115 22 -1907
3 -1908 3 0 -2625z"/>
</g>
</svg>
