<?xml version="1.0" standalone="no"?>
<!DOCTYPE svg PUBLIC "-//W3C//DTD SVG 20010904//EN"
 "http://www.w3.org/TR/2001/REC-SVG-20010904/DTD/svg10.dtd">
<svg version="1.0" xmlns="http://www.w3.org/2000/svg"
 width="374.000000pt" height="374.000000pt" viewBox="0 0 374.000000 374.000000"
 preserveAspectRatio="xMidYMid meet">
<metadata>
Created by potrace 1.14, written by Peter Selinger 2001-2017
</metadata>
<g transform="translate(0.000000,374.000000) scale(0.100000,-0.100000)"
fill="#000000" stroke="none">
<path d="M1975 3482 c-11 -2 -48 -31 -82 -63 -85 -81 -97 -80 -217 15 -70 55
-117 39 -172 -60 -30 -53 -42 -65 -73 -75 -34 -10 -43 -8 -97 19 -118 60 -158
44 -190 -74 -24 -89 -43 -109 -102 -108 -26 1 -66 5 -89 9 -92 16 -125 -17
-128 -129 -1 -40 -8 -81 -16 -94 -17 -27 -59 -42 -119 -42 -109 0 -143 -40
-121 -139 28 -123 11 -158 -95 -187 -108 -29 -129 -82 -74 -183 50 -91 40
-132 -43 -180 -60 -34 -82 -56 -90 -90 -8 -33 5 -58 57 -116 25 -27 46 -57 47
-65 1 -8 3 -22 4 -30 2 -23 -11 -44 -60 -96 -79 -82 -73 -124 25 -194 90 -64
97 -93 46 -183 -60 -108 -46 -152 57 -186 113 -38 129 -63 102 -164 -8 -32
-15 -71 -15 -88 0 -34 38 -78 70 -80 11 -1 29 -3 40 -4 11 -1 35 -3 54 -4 21
0 46 -11 62 -24 24 -21 27 -30 29 -104 2 -44 5 -89 9 -99 10 -31 62 -57 99
-49 18 3 55 9 84 12 48 5 55 3 83 -25 16 -17 30 -39 31 -49 0 -10 2 -26 5 -35
2 -10 6 -26 8 -35 3 -10 5 -21 5 -24 1 -3 9 -16 20 -27 30 -35 69 -37 136 -7
79 35 92 37 129 20 22 -11 40 -34 61 -76 32 -65 57 -89 99 -93 25 -3 46 9 118
66 64 51 110 41 173 -36 66 -81 127 -80 186 2 69 97 104 104 200 42 100 -64
135 -54 184 55 49 108 77 121 173 85 99 -38 152 -18 167 60 3 19 8 44 10 55 2
11 4 28 4 37 1 9 11 29 24 43 24 28 34 30 156 25 46 -2 57 2 80 24 27 27 29
46 17 161 -3 35 17 80 42 94 10 5 38 12 62 16 75 10 105 24 124 56 16 27 17
36 5 77 -7 26 -19 58 -26 72 -32 61 -8 102 83 145 110 52 123 96 55 192 -22
32 -40 65 -41 73 -5 39 3 61 32 87 105 93 111 101 105 140 -5 29 -20 50 -67
93 -78 70 -84 99 -34 167 19 27 42 63 51 81 16 30 16 34 0 67 -13 26 -33 43
-85 69 -97 49 -110 82 -67 174 55 118 26 160 -127 187 -43 8 -77 41 -79 76 -1
13 2 54 6 90 5 45 3 74 -5 89 -17 32 -66 48 -133 43 -105 -9 -132 17 -143 135
-7 71 -13 82 -57 105 -26 14 -36 13 -95 -4 -113 -32 -143 -22 -176 61 -38 97
-47 109 -83 119 -37 10 -55 4 -138 -49 -34 -21 -77 -25 -105 -10 -11 6 -38 37
-59 69 -41 59 -76 81 -116 73z"/>
</g>
</svg>
